<svg xmlns="http://www.w3.org/2000/svg" xmlns:xlink="http://www.w3.org/1999/xlink" width="40" zoomAndPan="magnify" viewBox="0 0 30 30.000001" height="40" preserveAspectRatio="xMidYMid meet" version="1.0"><defs><clipPath id="9c7a5c6fa0"><path d="M 6 7 L 24 7 L 24 25.300781 L 6 25.300781 Z M 6 7 " clip-rule="nonzero"/></clipPath><clipPath id="1ff9ef174c"><path d="M 3.386719 3.527344 L 26.613281 3.527344 L 26.613281 16 L 3.386719 16 Z M 3.386719 3.527344 " clip-rule="nonzero"/></clipPath><clipPath id="3ccb1f6c4a"><path d="M 11.019531 10.535156 L 19 10.535156 L 19 18.519531 L 11.019531 18.519531 Z M 11.019531 10.535156 " clip-rule="nonzero"/></clipPath></defs><g clip-path="url(#9c7a5c6fa0)"><path fill="#940012" d="M 23.152344 14.695312 Z M 23.152344 14.695312 L 15.003906 7.476562 L 6.847656 14.695312 L 6.847656 25.011719 C 6.847656 25.28125 7.0625 25.492188 7.332031 25.492188 L 12.425781 25.492188 L 12.425781 20.96875 C 12.425781 20.703125 12.640625 20.488281 12.90625 20.488281 L 17.09375 20.488281 C 17.359375 20.488281 17.574219 20.703125 17.574219 20.96875 L 17.574219 25.492188 L 22.671875 25.492188 C 22.9375 25.492188 23.152344 25.28125 23.152344 25.011719 L 23.152344 14.691406 Z M 6.847656 14.695312 Z M 6.847656 14.695312 " fill-opacity="1" fill-rule="nonzero"/></g><g clip-path="url(#1ff9ef174c)"><path fill="#940012" d="M 14.953125 3.527344 L 3.390625 13.765625 L 4.609375 15.140625 L 15.003906 5.9375 L 25.394531 15.140625 L 26.609375 13.765625 L 15.046875 3.527344 L 15.003906 3.578125 L 14.957031 3.527344 Z M 14.953125 3.527344 " fill-opacity="1" fill-rule="nonzero"/></g><path fill="#940012" d="M 6.847656 5 L 9.78125 5 L 9.753906 6.738281 L 6.847656 9.363281 Z M 6.847656 5 " fill-opacity="1" fill-rule="nonzero"/><g clip-path="url(#3ccb1f6c4a)"><path fill="#ffffff" d="M 17.8125 11.699219 C 17.0625 10.949219 16.0625 10.535156 15 10.535156 C 13.9375 10.535156 12.9375 10.949219 12.183594 11.699219 C 11.433594 12.453125 11.019531 13.453125 11.019531 14.515625 C 11.019531 15.578125 11.433594 16.578125 12.183594 17.332031 C 12.9375 18.082031 13.9375 18.496094 15 18.496094 C 16.0625 18.496094 17.0625 18.082031 17.8125 17.332031 C 18.566406 16.578125 18.980469 15.578125 18.980469 14.515625 C 18.980469 13.453125 18.566406 12.453125 17.8125 11.699219 Z M 12.367188 11.882812 C 13.070312 11.179688 14.003906 10.789062 15 10.789062 C 15.996094 10.789062 16.929688 11.179688 17.632812 11.882812 C 18.335938 12.585938 18.722656 13.519531 18.722656 14.515625 C 18.722656 15.34375 18.457031 16.128906 17.960938 16.773438 C 17.566406 16.222656 16.941406 15.898438 16.257812 15.898438 L 13.742188 15.898438 C 13.058594 15.898438 12.429688 16.222656 12.035156 16.773438 C 11.542969 16.128906 11.273438 15.34375 11.273438 14.515625 C 11.273438 13.519531 11.660156 12.585938 12.367188 11.882812 Z M 15 15.6875 C 16.023438 15.6875 16.855469 14.855469 16.855469 13.835938 C 16.855469 12.8125 16.023438 11.980469 15 11.980469 C 13.976562 11.980469 13.144531 12.8125 13.144531 13.835938 C 13.144531 14.855469 13.976562 15.6875 15 15.6875 Z M 15 15.6875 " fill-opacity="1" fill-rule="nonzero"/></g></svg>