<svg xmlns="http://www.w3.org/2000/svg" xmlns:xlink="http://www.w3.org/1999/xlink" width="40" zoomAndPan="magnify" viewBox="0 0 30 30.000001" height="40" preserveAspectRatio="xMidYMid meet" version="1.0"><defs><clipPath id="14933c1f1c"><path d="M 3.386719 4.335938 L 26.613281 4.335938 L 26.613281 24.65625 L 3.386719 24.65625 Z M 3.386719 4.335938 " clip-rule="nonzero"/></clipPath></defs><g clip-path="url(#14933c1f1c)"><path fill="#940012" d="M 21.851562 21.414062 C 21.679688 22.273438 21.3125 22.640625 20.738281 22.460938 C 20.789062 22.355469 20.832031 22.246094 20.867188 22.128906 C 20.886719 21.988281 20.898438 21.84375 20.898438 21.699219 L 18.0625 22.421875 C 17.859375 22.96875 17.839844 23.597656 17.125 23.894531 L 17.125 22.703125 L 12.011719 24.035156 C 11.890625 24.070312 11.769531 24.09375 11.640625 24.105469 C 11.296875 24.121094 11.222656 24.0625 11.089844 23.714844 C 10.980469 23.414062 10.984375 23.300781 11.269531 23.117188 C 11.519531 22.957031 11.789062 22.832031 12.074219 22.742188 C 12.699219 22.535156 13.335938 22.363281 13.964844 22.164062 C 14.542969 21.988281 15.019531 21.664062 15.402344 21.195312 C 14.925781 20.464844 14.46875 19.75 14.003906 19.039062 C 13.964844 18.972656 13.910156 18.882812 13.851562 18.871094 C 13.324219 18.753906 12.8125 18.421875 12.253906 18.6875 C 11.53125 19.03125 10.777344 19.34375 10.125 19.792969 C 9.597656 20.152344 9.191406 20.691406 8.742188 21.160156 C 7.757812 22.1875 6.78125 23.226562 5.792969 24.253906 C 5.671875 24.375 5.53125 24.476562 5.375 24.558594 C 5.035156 24.75 4.9375 24.714844 4.660156 24.402344 C 4.453125 24.464844 4.246094 24.527344 4.039062 24.59375 C 3.808594 24.664062 3.578125 24.664062 3.441406 24.453125 C 3.304688 24.246094 3.460938 24.050781 3.582031 23.894531 C 3.792969 23.617188 4.019531 23.351562 4.261719 23.101562 C 5.167969 22.171875 6.082031 21.246094 6.988281 20.316406 C 7.683594 19.601562 8.371094 18.878906 9.042969 18.109375 L 8.121094 18.441406 C 7.839844 18.542969 7.558594 18.640625 7.277344 18.742188 C 7.117188 18.796875 6.96875 18.808594 6.828125 18.574219 C 6.941406 18.386719 7.070312 18.207031 7.210938 18.039062 C 7.78125 17.445312 8.386719 16.882812 8.953125 16.28125 C 9.945312 15.21875 10.925781 14.148438 11.90625 13.066406 C 13.039062 11.828125 14.164062 10.578125 15.457031 9.503906 C 16.195312 8.886719 16.980469 8.324219 17.722656 7.710938 C 17.988281 7.488281 18.214844 7.230469 18.402344 6.9375 C 18.816406 6.300781 19.296875 5.714844 19.84375 5.1875 C 20.835938 4.253906 22.613281 4 23.796875 4.949219 C 24.058594 5.175781 24.28125 5.441406 24.464844 5.734375 C 24.59375 5.925781 24.699219 6.058594 24.945312 6.117188 C 25.328125 6.210938 25.679688 6.390625 26.039062 6.546875 C 26.171875 6.617188 26.296875 6.699219 26.414062 6.792969 C 26.167969 6.902344 25.992188 6.988281 25.808594 7.058594 C 25.664062 7.117188 25.511719 7.15625 25.363281 7.207031 C 24.875 7.367188 24.617188 7.714844 24.558594 8.214844 C 24.261719 10.753906 24.273438 12.871094 22.640625 15.015625 C 21.570312 16.464844 20.273438 17.632812 18.503906 18.34375 C 18.710938 18.554688 18.875 18.734375 19.054688 18.898438 C 19.582031 19.375 20.101562 19.863281 20.738281 20.203125 C 20.964844 20.332031 21.203125 20.363281 21.457031 20.292969 C 22.355469 20.070312 23.265625 19.882812 24.171875 19.703125 C 24.375 19.667969 24.578125 19.667969 24.785156 19.703125 C 25.027344 19.730469 25.164062 19.867188 25.199219 20.105469 C 25.230469 20.308594 25.070312 20.421875 24.902344 20.488281 C 23.90625 20.894531 22.914062 21.109375 21.851562 21.414062 Z M 15.011719 19 C 15.171875 19.257812 15.308594 19.523438 15.480469 19.761719 C 15.722656 20.113281 15.984375 20.445312 16.265625 20.761719 C 16.570312 21.082031 16.964844 21.289062 17.414062 21.1875 C 18.078125 21.035156 18.742188 20.824219 19.402344 20.628906 C 19.46875 20.609375 19.515625 20.523438 19.5625 20.476562 C 19.066406 20.023438 18.570312 19.621094 18.148438 19.160156 C 17.839844 18.816406 17.578125 18.632812 17.078125 18.753906 C 16.410156 18.910156 15.714844 18.921875 15.011719 19 Z M 15.011719 19 " fill-opacity="1" fill-rule="nonzero"/></g></svg>