<svg xmlns="http://www.w3.org/2000/svg" xmlns:xlink="http://www.w3.org/1999/xlink" width="40" zoomAndPan="magnify" viewBox="0 0 30 30.000001" height="40" preserveAspectRatio="xMidYMid meet" version="1.0"><defs><clipPath id="64d67509d2"><path d="M 11.15625 8.855469 L 19 8.855469 L 19 16 L 11.15625 16 Z M 11.15625 8.855469 " clip-rule="nonzero"/></clipPath><clipPath id="fa14ae7b28"><path d="M 3.386719 4 L 26.613281 4 L 26.613281 26.128906 L 3.386719 26.128906 Z M 3.386719 4 " clip-rule="nonzero"/></clipPath><clipPath id="3c952dc531"><path d="M 7 2.902344 L 23 2.902344 L 23 24 L 7 24 Z M 7 2.902344 " clip-rule="nonzero"/></clipPath></defs><g clip-path="url(#64d67509d2)"><path fill="#ffffff" d="M 18.378906 14.625 L 16.261719 13.53125 C 16.261719 13.453125 16.230469 13.378906 16.171875 13.320312 L 16.121094 13.269531 L 16.105469 13.070312 C 16.101562 13.023438 16.097656 12.976562 16.097656 12.929688 C 16.097656 12.632812 16.144531 12.425781 16.292969 12.164062 C 16.292969 12.164062 16.582031 12.121094 16.582031 11.5 C 16.582031 11.078125 16.515625 11.03125 16.472656 11.046875 C 16.589844 10.6875 16.863281 9.582031 16.019531 9.367188 C 16.011719 9.363281 16.003906 9.359375 16 9.351562 C 15.972656 9.300781 15.917969 9.164062 15.71875 9.023438 C 15.472656 8.851562 15.152344 8.8125 14.875 8.925781 C 14.796875 8.957031 14.757812 8.988281 14.757812 8.988281 C 14.757812 8.988281 14.351562 8.929688 14.132812 9.035156 C 14.109375 9.046875 14.109375 9.082031 14.136719 9.09375 C 14.167969 9.105469 14.164062 9.148438 14.132812 9.152344 C 14.097656 9.160156 14.054688 9.167969 14.003906 9.183594 C 13.601562 9.316406 13.339844 9.707031 13.351562 10.136719 C 13.355469 10.390625 13.398438 10.78125 13.503906 11.058594 C 13.464844 11.027344 13.375 11.011719 13.375 11.5 C 13.375 12.121094 13.667969 12.164062 13.667969 12.164062 C 13.816406 12.425781 13.890625 12.632812 13.890625 12.929688 C 13.890625 12.976562 13.890625 13.023438 13.886719 13.070312 L 13.871094 13.269531 L 13.816406 13.320312 C 13.761719 13.378906 13.730469 13.453125 13.730469 13.53125 L 11.613281 14.625 C 11.332031 14.769531 11.15625 15.058594 11.15625 15.375 L 11.15625 15.9375 L 18.835938 15.9375 L 18.835938 15.375 C 18.835938 15.058594 18.65625 14.769531 18.378906 14.625 Z M 18.378906 14.625 " fill-opacity="1" fill-rule="nonzero"/></g><g clip-path="url(#fa14ae7b28)"><path fill="#940012" d="M 20.492188 4.289062 C 20.46875 4.378906 20.441406 4.46875 20.417969 4.566406 C 19.738281 7.316406 20.71875 9.515625 21.664062 11.640625 C 22.636719 13.832031 23.648438 16.097656 22.769531 18.871094 C 21.664062 22.363281 18.023438 24.1875 15 24.1875 C 11.976562 24.1875 8.335938 22.363281 7.230469 18.871094 C 6.351562 16.097656 7.363281 13.832031 8.335938 11.640625 C 9.28125 9.515625 10.261719 7.316406 9.582031 4.566406 C 9.558594 4.46875 9.53125 4.378906 9.507812 4.285156 C 5.867188 6.25 3.386719 10.097656 3.386719 14.515625 C 3.386719 20.917969 8.597656 26.128906 15 26.128906 C 21.402344 26.128906 26.613281 20.917969 26.613281 14.515625 C 26.613281 10.097656 24.132812 6.25 20.492188 4.289062 Z M 20.492188 4.289062 " fill-opacity="1" fill-rule="nonzero"/></g><g clip-path="url(#3c952dc531)"><path fill="#940012" d="M 10.308594 4.386719 C 11.050781 7.386719 10.019531 9.703125 9.019531 11.945312 C 8.058594 14.105469 7.152344 16.144531 7.945312 18.644531 C 8.941406 21.792969 12.25 23.4375 15 23.4375 C 17.75 23.4375 21.058594 21.792969 22.054688 18.644531 C 22.847656 16.144531 21.9375 14.105469 20.976562 11.945312 C 19.980469 9.703125 18.949219 7.386719 19.691406 4.386719 C 19.726562 4.238281 19.769531 4.09375 19.808594 3.949219 C 18.34375 3.28125 16.714844 2.902344 15 2.902344 C 13.285156 2.902344 11.65625 3.28125 10.191406 3.949219 C 10.230469 4.09375 10.269531 4.238281 10.308594 4.386719 Z M 19.371094 14.746094 C 20.039062 14.746094 20.5625 15.449219 20.5625 16.347656 C 20.5625 17.246094 20.039062 17.949219 19.371094 17.949219 C 18.703125 17.949219 18.179688 17.246094 18.179688 16.347656 C 18.179688 15.449219 18.703125 14.746094 19.371094 14.746094 Z M 16.589844 12.105469 C 17.257812 12.105469 17.78125 12.808594 17.78125 13.707031 C 17.78125 14.601562 17.257812 15.304688 16.589844 15.304688 C 15.921875 15.304688 15.398438 14.601562 15.398438 13.707031 C 15.398438 12.808594 15.921875 12.105469 16.589844 12.105469 Z M 13.410156 12.105469 C 14.078125 12.105469 14.601562 12.808594 14.601562 13.707031 C 14.601562 14.601562 14.078125 15.304688 13.410156 15.304688 C 12.742188 15.304688 12.21875 14.601562 12.21875 13.707031 C 12.21875 12.808594 12.742188 12.105469 13.410156 12.105469 Z M 13.019531 17.429688 C 13.1875 16.488281 14.011719 15.78125 15 15.78125 C 15.984375 15.78125 16.808594 16.488281 16.980469 17.429688 C 17.648438 17.707031 18.097656 18.359375 18.097656 19.101562 C 18.097656 20.09375 17.289062 20.902344 16.292969 20.902344 L 13.707031 20.902344 C 12.710938 20.902344 11.902344 20.09375 11.902344 19.101562 C 11.902344 18.359375 12.347656 17.707031 13.019531 17.429688 Z M 11.820312 16.347656 C 11.820312 17.246094 11.296875 17.949219 10.628906 17.949219 C 9.960938 17.949219 9.433594 17.246094 9.433594 16.347656 C 9.433594 15.449219 9.957031 14.746094 10.628906 14.746094 C 11.296875 14.746094 11.820312 15.449219 11.820312 16.347656 Z M 11.820312 16.347656 " fill-opacity="1" fill-rule="nonzero"/></g></svg>