<svg xmlns="http://www.w3.org/2000/svg" xmlns:xlink="http://www.w3.org/1999/xlink" width="40" zoomAndPan="magnify" viewBox="0 0 30 30.000001" height="40" preserveAspectRatio="xMidYMid meet" version="1.0"><defs><clipPath id="dcd0527548"><path d="M 11.15625 8.855469 L 19 8.855469 L 19 16 L 11.15625 16 Z M 11.15625 8.855469 " clip-rule="nonzero"/></clipPath><clipPath id="0a2b31acfd"><path d="M 6.417969 2.902344 L 23 2.902344 L 23 26.128906 L 6.417969 26.128906 Z M 6.417969 2.902344 " clip-rule="nonzero"/></clipPath></defs><g clip-path="url(#dcd0527548)"><path fill="#ffffff" d="M 18.378906 14.625 L 16.261719 13.53125 C 16.261719 13.453125 16.230469 13.378906 16.171875 13.320312 L 16.121094 13.269531 L 16.105469 13.070312 C 16.101562 13.023438 16.097656 12.976562 16.097656 12.929688 C 16.097656 12.632812 16.144531 12.425781 16.292969 12.164062 C 16.292969 12.164062 16.582031 12.121094 16.582031 11.5 C 16.582031 11.078125 16.515625 11.03125 16.472656 11.046875 C 16.589844 10.6875 16.863281 9.582031 16.019531 9.367188 C 16.011719 9.363281 16.003906 9.359375 16 9.351562 C 15.972656 9.300781 15.917969 9.164062 15.71875 9.023438 C 15.472656 8.851562 15.152344 8.8125 14.875 8.925781 C 14.796875 8.957031 14.757812 8.988281 14.757812 8.988281 C 14.757812 8.988281 14.351562 8.929688 14.132812 9.035156 C 14.109375 9.046875 14.109375 9.082031 14.136719 9.09375 C 14.167969 9.105469 14.164062 9.148438 14.132812 9.152344 C 14.097656 9.160156 14.054688 9.167969 14.003906 9.183594 C 13.601562 9.316406 13.339844 9.707031 13.351562 10.136719 C 13.355469 10.390625 13.398438 10.78125 13.503906 11.058594 C 13.464844 11.027344 13.375 11.011719 13.375 11.5 C 13.375 12.121094 13.667969 12.164062 13.667969 12.164062 C 13.816406 12.425781 13.890625 12.632812 13.890625 12.929688 C 13.890625 12.976562 13.890625 13.023438 13.886719 13.070312 L 13.871094 13.269531 L 13.816406 13.320312 C 13.761719 13.378906 13.730469 13.453125 13.730469 13.53125 L 11.613281 14.625 C 11.332031 14.769531 11.15625 15.058594 11.15625 15.375 L 11.15625 15.9375 L 18.835938 15.9375 L 18.835938 15.375 C 18.835938 15.058594 18.65625 14.769531 18.378906 14.625 Z M 18.378906 14.625 " fill-opacity="1" fill-rule="nonzero"/></g><path fill="#940012" d="M 14.628906 3.859375 C 16.5 5.355469 19.015625 7.789062 22.125 7.75 L 22.125 14.625 C 22.125 16.871094 21.34375 19.050781 19.90625 20.777344 C 17.191406 24.042969 14.628906 25.277344 14.628906 25.277344 C 14.628906 25.277344 12.0625 24.042969 9.347656 20.777344 C 7.914062 19.050781 7.128906 16.871094 7.128906 14.625 L 7.128906 7.75 C 10.238281 7.789062 12.757812 5.355469 14.628906 3.859375 " fill-opacity="1" fill-rule="nonzero"/><g clip-path="url(#0a2b31acfd)"><path fill="#940012" d="M 14.628906 2.902344 L 14.394531 3.089844 C 14.15625 3.28125 13.914062 3.480469 13.660156 3.691406 C 11.835938 5.199219 9.5625 7.074219 6.871094 7.074219 C 6.847656 7.074219 6.824219 7.074219 6.800781 7.074219 L 6.421875 7.066406 L 6.421875 14.625 C 6.421875 15.839844 6.628906 17.03125 7.039062 18.171875 C 7.453125 19.308594 8.050781 20.359375 8.828125 21.292969 C 9.484375 22.082031 10.1875 22.824219 10.917969 23.5 C 11.503906 24.042969 12.105469 24.542969 12.714844 24.984375 C 13.753906 25.746094 14.4375 26.078125 14.464844 26.09375 L 14.542969 26.128906 L 14.714844 26.128906 L 14.789062 26.09375 C 14.820312 26.078125 15.503906 25.746094 16.542969 24.984375 C 17.148438 24.542969 17.753906 24.042969 18.335938 23.5 C 19.066406 22.824219 19.773438 22.082031 20.429688 21.292969 C 21.203125 20.359375 21.804688 19.308594 22.214844 18.171875 C 22.625 17.03125 22.835938 15.839844 22.835938 14.625 L 22.835938 7.066406 L 22.453125 7.074219 C 22.429688 7.074219 22.40625 7.074219 22.382812 7.074219 C 19.691406 7.074219 17.421875 5.199219 15.59375 3.691406 C 15.339844 3.480469 15.097656 3.28125 14.863281 3.089844 Z M 14.628906 3.386719 C 16.566406 4.9375 19.171875 7.449219 22.382812 7.449219 C 22.410156 7.449219 22.433594 7.449219 22.457031 7.449219 L 22.457031 14.625 C 22.457031 16.972656 21.640625 19.246094 20.140625 21.050781 C 17.304688 24.464844 14.628906 25.753906 14.628906 25.753906 C 14.628906 25.753906 11.949219 24.464844 9.113281 21.050781 C 7.617188 19.246094 6.796875 16.972656 6.796875 14.625 L 6.796875 7.449219 C 6.820312 7.449219 6.847656 7.449219 6.871094 7.449219 C 10.085938 7.449219 12.691406 4.9375 14.628906 3.386719 " fill-opacity="1" fill-rule="nonzero"/></g><path fill="#ffffff" d="M 20.742188 12.75 C 20.6875 12.226562 20.46875 11.855469 20.121094 11.707031 C 19.773438 11.558594 19.351562 11.652344 18.9375 11.976562 C 18.742188 12.125 18.558594 12.320312 18.390625 12.546875 C 18.226562 12.773438 18.082031 13.03125 17.960938 13.308594 C 17.722656 13.867188 17.621094 14.445312 17.671875 14.9375 C 17.726562 15.457031 17.949219 15.828125 18.296875 15.976562 C 18.402344 16.023438 18.515625 16.046875 18.636719 16.046875 C 18.902344 16.046875 19.191406 15.933594 19.476562 15.710938 C 19.867188 15.40625 20.214844 14.933594 20.453125 14.375 C 20.691406 13.820312 20.792969 13.242188 20.742188 12.75 " fill-opacity="1" fill-rule="nonzero"/><path fill="#ffffff" d="M 16.160156 13.554688 C 16.183594 13.554688 16.207031 13.554688 16.230469 13.554688 C 16.582031 13.554688 16.921875 13.335938 17.195312 12.925781 C 17.472656 12.515625 17.652344 11.957031 17.699219 11.351562 C 17.75 10.746094 17.667969 10.167969 17.460938 9.714844 C 17.246094 9.238281 16.917969 8.957031 16.542969 8.925781 C 16.164062 8.894531 15.796875 9.117188 15.503906 9.554688 C 15.230469 9.964844 15.050781 10.523438 15 11.128906 C 14.949219 11.730469 15.035156 12.3125 15.238281 12.761719 C 15.457031 13.242188 15.78125 13.523438 16.160156 13.554688 " fill-opacity="1" fill-rule="nonzero"/><path fill="#ffffff" d="M 12.058594 12.925781 C 12.332031 13.335938 12.675781 13.554688 13.027344 13.554688 C 13.050781 13.554688 13.074219 13.554688 13.097656 13.554688 C 13.472656 13.523438 13.800781 13.242188 14.015625 12.761719 C 14.21875 12.3125 14.304688 11.730469 14.253906 11.128906 C 14.203125 10.523438 14.027344 9.964844 13.75 9.554688 C 13.457031 9.117188 13.089844 8.894531 12.714844 8.925781 C 12.335938 8.957031 12.007812 9.238281 11.792969 9.714844 C 11.589844 10.167969 11.503906 10.746094 11.554688 11.351562 C 11.605469 11.957031 11.785156 12.515625 12.058594 12.925781 " fill-opacity="1" fill-rule="nonzero"/><path fill="#ffffff" d="M 17.574219 16.859375 C 17.109375 16.445312 16.734375 15.90625 16.4375 15.21875 C 16.433594 15.207031 16.429688 15.191406 16.425781 15.175781 L 16.421875 15.167969 L 16.417969 15.15625 C 16.371094 15.039062 16.324219 14.917969 16.277344 14.796875 L 16.273438 14.785156 L 16.269531 14.777344 C 15.949219 14.167969 15.316406 13.789062 14.628906 13.789062 C 13.941406 13.789062 13.316406 14.164062 12.992188 14.765625 L 12.984375 14.773438 L 12.976562 14.792969 L 12.964844 14.816406 L 12.964844 14.824219 C 12.925781 14.9375 12.882812 15.046875 12.835938 15.152344 C 12.523438 15.898438 12.125 16.46875 11.621094 16.902344 C 11.402344 17.074219 11.21875 17.292969 11.09375 17.542969 C 10.960938 17.804688 10.890625 18.085938 10.890625 18.378906 C 10.890625 18.785156 11.019531 19.167969 11.257812 19.492188 C 11.496094 19.808594 11.816406 20.035156 12.191406 20.15625 C 12.316406 20.195312 12.445312 20.214844 12.578125 20.214844 C 12.742188 20.214844 12.90625 20.183594 13.058594 20.125 C 13.582031 19.921875 14.035156 19.789062 14.40625 19.726562 C 14.480469 19.714844 14.554688 19.699219 14.628906 19.675781 C 14.699219 19.699219 14.773438 19.714844 14.851562 19.726562 C 15.21875 19.789062 15.671875 19.925781 16.195312 20.125 C 16.480469 20.234375 16.796875 20.246094 17.082031 20.148438 C 17.835938 19.902344 18.347656 19.207031 18.363281 18.414062 C 18.375 17.800781 18.078125 17.21875 17.574219 16.859375 " fill-opacity="1" fill-rule="nonzero"/><path fill="#ffffff" d="M 11.582031 14.9375 C 11.632812 14.445312 11.53125 13.867188 11.292969 13.308594 C 11.054688 12.75 10.710938 12.277344 10.320312 11.976562 C 9.902344 11.652344 9.484375 11.558594 9.136719 11.707031 C 8.789062 11.855469 8.566406 12.226562 8.511719 12.75 C 8.460938 13.242188 8.566406 13.820312 8.800781 14.375 C 9.039062 14.933594 9.386719 15.40625 9.777344 15.710938 C 10.0625 15.933594 10.355469 16.046875 10.621094 16.046875 C 10.738281 16.046875 10.851562 16.023438 10.960938 15.976562 C 11.308594 15.828125 11.527344 15.457031 11.582031 14.9375 " fill-opacity="1" fill-rule="nonzero"/></svg>