<svg xmlns="http://www.w3.org/2000/svg" xmlns:xlink="http://www.w3.org/1999/xlink" width="40" zoomAndPan="magnify" viewBox="0 0 30 30.000001" height="40" preserveAspectRatio="xMidYMid meet" version="1.0"><defs><clipPath id="440da8ddcb"><path d="M 5.558594 2.902344 L 24.429688 2.902344 L 24.429688 25.402344 L 5.558594 25.402344 Z M 5.558594 2.902344 " clip-rule="nonzero"/></clipPath></defs><g clip-path="url(#440da8ddcb)"><path fill="#940012" d="M 17.003906 25.457031 L 16.6875 25.457031 C 16.503906 25.433594 16.324219 25.421875 16.144531 25.421875 C 15.898438 25.417969 15.71875 25.417969 15.597656 25.410156 C 15.332031 25.398438 15.085938 25.402344 14.863281 25.414062 C 14.589844 25.429688 14.304688 25.414062 14.023438 25.4375 C 13.859375 25.449219 13.695312 25.449219 13.53125 25.457031 L 13.515625 25.457031 C 13.425781 25.453125 13.339844 25.445312 13.25 25.433594 C 13.144531 25.421875 13.046875 25.425781 12.941406 25.40625 C 12.898438 25.394531 12.855469 25.386719 12.816406 25.382812 C 12.613281 25.34375 12.4375 25.265625 12.292969 25.144531 C 11.910156 24.820312 12.300781 24.320312 12.621094 24.175781 C 12.648438 24.164062 12.652344 24.148438 12.628906 24.128906 C 12.585938 24.085938 12.542969 24.039062 12.503906 23.992188 C 12.253906 23.675781 12.039062 23.339844 11.855469 22.976562 C 11.824219 22.910156 11.789062 22.851562 11.761719 22.800781 C 11.746094 22.777344 11.738281 22.78125 11.734375 22.804688 C 11.65625 23.160156 11.578125 23.503906 11.5 23.839844 C 11.433594 24.117188 11.363281 24.355469 11.285156 24.554688 C 11.160156 24.886719 10.976562 25.152344 10.621094 25.285156 C 10.222656 25.4375 9.789062 25.46875 9.316406 25.371094 C 9.191406 25.347656 9.085938 25.300781 8.992188 25.234375 C 8.839844 25.125 8.8125 24.941406 8.828125 24.757812 C 8.832031 24.660156 8.855469 24.578125 8.886719 24.507812 C 8.992188 24.289062 9.171875 24.15625 9.421875 24.113281 C 9.757812 24.050781 9.914062 23.917969 10.011719 23.574219 C 10.023438 23.527344 10.042969 23.492188 10.035156 23.4375 C 10.035156 23.425781 10.035156 23.414062 10.039062 23.402344 C 10.058594 23.351562 10.066406 23.300781 10.066406 23.25 C 10.078125 22.941406 10.070312 22.6875 10.046875 22.492188 C 10.03125 22.351562 10.046875 22.214844 10.019531 22.078125 C 10 21.972656 10.015625 21.863281 9.992188 21.757812 C 9.972656 21.691406 9.96875 21.628906 9.96875 21.558594 C 9.972656 21.476562 9.9375 21.40625 9.9375 21.324219 C 9.9375 21.253906 9.925781 21.179688 9.910156 21.105469 C 9.902344 21.078125 9.90625 21.046875 9.902344 21.015625 C 9.820312 20.433594 9.742188 19.855469 9.660156 19.273438 C 9.636719 19.097656 9.605469 18.90625 9.570312 18.695312 C 9.449219 17.988281 9.222656 17.320312 8.890625 16.691406 C 8.558594 16.074219 8.167969 15.480469 7.789062 14.898438 C 7.4375 14.359375 7.140625 13.792969 7.027344 13.167969 C 7.011719 13.082031 7 13 6.996094 12.914062 C 6.992188 12.835938 6.988281 12.75 6.980469 12.660156 C 6.96875 12.5 7 12.347656 7 12.191406 C 6.996094 12.136719 7.003906 12.085938 7.019531 12.035156 C 7.039062 11.964844 7.03125 11.894531 7.046875 11.824219 C 7.101562 11.566406 7.167969 11.304688 7.25 11.03125 C 7.316406 10.824219 7.363281 10.605469 7.390625 10.382812 C 7.398438 10.324219 7.40625 10.261719 7.417969 10.203125 C 7.425781 10.140625 7.429688 10.082031 7.433594 10.023438 C 7.4375 9.746094 7.4375 9.492188 7.429688 9.261719 C 7.425781 9.160156 7.410156 9.039062 7.378906 8.890625 C 7.332031 8.648438 7.226562 8.421875 7.023438 8.289062 C 6.90625 8.214844 6.765625 8.140625 6.609375 8.0625 C 6.238281 7.878906 5.96875 7.617188 5.800781 7.277344 C 5.753906 7.175781 5.722656 7.0625 5.71875 6.941406 C 5.714844 6.839844 5.644531 6.75 5.613281 6.652344 C 5.578125 6.554688 5.574219 6.457031 5.597656 6.363281 C 5.605469 6.332031 5.625 6.3125 5.65625 6.300781 C 5.730469 6.277344 5.804688 6.253906 5.878906 6.230469 C 6.171875 6.140625 6.375 5.933594 6.429688 5.636719 C 6.484375 5.339844 6.683594 5.148438 6.941406 5 C 7.238281 4.832031 7.554688 4.710938 7.898438 4.628906 C 7.914062 4.625 7.933594 4.625 7.949219 4.625 C 7.960938 4.625 7.972656 4.621094 7.984375 4.617188 C 8.011719 4.597656 8.042969 4.589844 8.078125 4.59375 C 8.089844 4.59375 8.097656 4.589844 8.101562 4.574219 C 8.125 4.433594 8.136719 4.296875 8.132812 4.164062 C 8.132812 4.027344 8.171875 3.898438 8.167969 3.761719 C 8.167969 3.679688 8.195312 3.601562 8.203125 3.519531 C 8.210938 3.445312 8.226562 3.371094 8.257812 3.289062 C 8.320312 3.117188 8.46875 3.113281 8.570312 3.25 C 8.621094 3.316406 8.679688 3.378906 8.722656 3.449219 C 8.945312 3.796875 9.164062 4.160156 9.378906 4.535156 C 9.390625 4.558594 9.40625 4.558594 9.421875 4.542969 C 9.691406 4.253906 9.980469 3.957031 10.289062 3.65625 C 10.488281 3.464844 10.683594 3.289062 10.882812 3.128906 C 11.011719 3.019531 11.226562 2.902344 11.367188 3.042969 C 11.40625 3.082031 11.441406 3.164062 11.480469 3.285156 C 11.523438 3.429688 11.550781 3.578125 11.566406 3.730469 C 11.570312 3.8125 11.578125 3.886719 11.589844 3.957031 C 11.597656 4.035156 11.605469 4.105469 11.605469 4.179688 C 11.613281 4.628906 11.636719 5.054688 11.605469 5.519531 C 11.605469 5.53125 11.609375 5.542969 11.617188 5.550781 C 11.976562 6 12.257812 6.429688 12.300781 6.980469 C 12.332031 7.371094 12.265625 7.699219 12.152344 8.074219 C 12.0625 8.363281 12.039062 8.636719 12.070312 8.894531 C 12.128906 9.3125 12.335938 9.617188 12.695312 9.808594 C 12.8125 9.871094 12.925781 9.9375 13.039062 10.003906 C 13.234375 10.125 13.394531 10.273438 13.519531 10.449219 C 13.625 10.59375 13.726562 10.726562 13.828125 10.851562 C 14.035156 11.105469 14.363281 11.316406 14.652344 11.46875 C 15.320312 11.824219 15.847656 12.105469 16.421875 12.507812 C 17.582031 13.324219 18.5 14.503906 19.09375 15.804688 C 19.59375 16.902344 19.894531 18.074219 20.101562 19.292969 C 20.109375 19.347656 20.117188 19.402344 20.121094 19.460938 C 20.125 19.53125 20.152344 19.59375 20.152344 19.667969 C 20.148438 19.765625 20.1875 19.851562 20.183594 19.945312 C 20.183594 20.097656 20.21875 20.242188 20.21875 20.394531 C 20.21875 20.640625 20.21875 20.890625 20.21875 21.144531 C 20.21875 21.210938 20.210938 21.28125 20.199219 21.355469 C 20.183594 21.453125 20.1875 21.550781 20.175781 21.652344 C 20.132812 22.03125 20.054688 22.417969 19.949219 22.8125 C 19.886719 23.050781 19.917969 23.246094 20.050781 23.402344 C 20.160156 23.53125 20.296875 23.613281 20.464844 23.644531 C 20.789062 23.703125 21.089844 23.648438 21.367188 23.476562 C 22.050781 23.058594 22.460938 22.242188 22.632812 21.484375 C 22.65625 21.367188 22.683594 21.25 22.707031 21.125 C 22.714844 21.074219 22.722656 21.019531 22.722656 20.96875 C 22.722656 20.898438 22.753906 20.835938 22.753906 20.765625 C 22.757812 20.664062 22.753906 20.566406 22.765625 20.46875 C 22.800781 20.207031 22.761719 19.953125 22.757812 19.691406 C 22.753906 19.628906 22.75 19.566406 22.738281 19.503906 C 22.730469 19.445312 22.722656 19.378906 22.710938 19.3125 C 22.679688 19.0625 22.625 18.800781 22.550781 18.535156 C 22.40625 18.03125 22.179688 17.578125 21.867188 17.183594 C 21.75 17.03125 21.675781 16.917969 21.644531 16.839844 C 21.511719 16.503906 21.589844 15.996094 21.992188 15.886719 C 22.117188 15.855469 22.300781 15.867188 22.429688 15.921875 C 22.742188 16.050781 22.984375 16.289062 23.1875 16.566406 C 23.445312 16.921875 23.664062 17.320312 23.839844 17.757812 C 24.074219 18.335938 24.234375 18.933594 24.320312 19.546875 C 24.339844 19.671875 24.355469 19.792969 24.371094 19.910156 C 24.382812 20.015625 24.394531 20.132812 24.398438 20.261719 C 24.402344 20.382812 24.40625 20.503906 24.414062 20.625 C 24.425781 20.882812 24.40625 21.152344 24.386719 21.433594 C 24.363281 21.777344 24.304688 22.128906 24.210938 22.484375 C 24.074219 23 23.878906 23.445312 23.621094 23.832031 C 23.335938 24.261719 23.003906 24.585938 22.570312 24.851562 C 22.117188 25.125 21.59375 25.308594 21.007812 25.394531 C 20.882812 25.414062 20.777344 25.421875 20.691406 25.421875 C 20.554688 25.421875 20.414062 25.460938 20.28125 25.445312 C 20.140625 25.429688 19.996094 25.425781 19.851562 25.40625 C 19.5625 25.363281 19.339844 25.261719 19.082031 25.164062 C 18.796875 25.058594 18.515625 25.070312 18.238281 25.203125 C 17.992188 25.320312 17.726562 25.394531 17.441406 25.421875 C 17.292969 25.433594 17.148438 25.445312 17.003906 25.457031 Z M 17.003906 25.457031 " fill-opacity="1" fill-rule="nonzero"/></g></svg>