<svg xmlns="http://www.w3.org/2000/svg" xmlns:xlink="http://www.w3.org/1999/xlink" width="40" zoomAndPan="magnify" viewBox="0 0 30 30.000001" height="40" preserveAspectRatio="xMidYMid meet" version="1.0"><defs><clipPath id="655bacf49f"><path d="M 11.15625 8.855469 L 19 8.855469 L 19 16 L 11.15625 16 Z M 11.15625 8.855469 " clip-rule="nonzero"/></clipPath><clipPath id="65f1a5ea09"><path d="M 5.835938 9 L 23.980469 9 L 23.980469 26.128906 L 5.835938 26.128906 Z M 5.835938 9 " clip-rule="nonzero"/></clipPath><clipPath id="de73747725"><path d="M 5.835938 2.902344 L 23.980469 2.902344 L 23.980469 12 L 5.835938 12 Z M 5.835938 2.902344 " clip-rule="nonzero"/></clipPath></defs><g clip-path="url(#655bacf49f)"><path fill="#ffffff" d="M 18.378906 14.625 L 16.261719 13.53125 C 16.261719 13.453125 16.230469 13.378906 16.171875 13.320312 L 16.121094 13.269531 L 16.105469 13.070312 C 16.101562 13.023438 16.097656 12.976562 16.097656 12.929688 C 16.097656 12.632812 16.144531 12.425781 16.292969 12.164062 C 16.292969 12.164062 16.582031 12.121094 16.582031 11.5 C 16.582031 11.078125 16.515625 11.03125 16.472656 11.046875 C 16.589844 10.6875 16.863281 9.582031 16.019531 9.367188 C 16.011719 9.363281 16.003906 9.359375 16 9.351562 C 15.972656 9.300781 15.917969 9.164062 15.71875 9.023438 C 15.472656 8.851562 15.152344 8.8125 14.875 8.925781 C 14.796875 8.957031 14.757812 8.988281 14.757812 8.988281 C 14.757812 8.988281 14.351562 8.929688 14.132812 9.035156 C 14.109375 9.046875 14.109375 9.082031 14.136719 9.09375 C 14.167969 9.105469 14.164062 9.148438 14.132812 9.152344 C 14.097656 9.160156 14.054688 9.167969 14.003906 9.183594 C 13.601562 9.316406 13.339844 9.707031 13.351562 10.136719 C 13.355469 10.390625 13.398438 10.78125 13.503906 11.058594 C 13.464844 11.027344 13.375 11.011719 13.375 11.5 C 13.375 12.121094 13.667969 12.164062 13.667969 12.164062 C 13.816406 12.425781 13.890625 12.632812 13.890625 12.929688 C 13.890625 12.976562 13.890625 13.023438 13.886719 13.070312 L 13.871094 13.269531 L 13.816406 13.320312 C 13.761719 13.378906 13.730469 13.453125 13.730469 13.53125 L 11.613281 14.625 C 11.332031 14.769531 11.15625 15.058594 11.15625 15.375 L 11.15625 15.9375 L 18.835938 15.9375 L 18.835938 15.375 C 18.835938 15.058594 18.65625 14.769531 18.378906 14.625 Z M 18.378906 14.625 " fill-opacity="1" fill-rule="nonzero"/></g><g clip-path="url(#65f1a5ea09)"><path fill="#940012" d="M 10.960938 11.78125 C 10.960938 11.78125 10.753906 9.660156 14.371094 9.433594 C 14.371094 9.433594 18.574219 9.140625 18.929688 11.78125 C 18.929688 11.78125 19.050781 12.550781 18.929688 13.863281 C 18.929688 13.863281 19.324219 13.964844 19.359375 14.417969 C 19.359375 14.417969 19.441406 15.847656 18.746094 16.527344 L 18.394531 16.527344 C 18.394531 16.527344 17.554688 19.484375 16.640625 19.992188 C 16.640625 19.992188 23.246094 21.398438 24.160156 24.003906 L 24.160156 26.113281 L 5.832031 26.113281 L 5.832031 24.117188 C 5.832031 24.117188 6.054688 22.644531 8.105469 21.925781 C 8.105469 21.925781 11.863281 19.886719 13.320312 20.066406 C 13.320312 20.066406 12.167969 19.042969 11.558594 16.546875 C 11.558594 16.546875 10.78125 17.042969 10.617188 15.285156 C 10.617188 15.285156 10.421875 14.0625 11.003906 13.910156 Z M 10.960938 11.78125 " fill-opacity="1" fill-rule="nonzero"/></g><g clip-path="url(#de73747725)"><path fill="#940012" d="M 10.574219 11.195312 L 5.914062 8.875 L 14.789062 2.988281 C 14.789062 2.988281 14.921875 2.90625 15.097656 3.066406 L 23.828125 8.875 L 19.335938 11.195312 C 19.335938 11.195312 19.449219 8.105469 14.316406 8.445312 C 14.316406 8.445312 10.425781 8.535156 10.574219 11.195312 Z M 10.574219 11.195312 " fill-opacity="1" fill-rule="nonzero"/></g><path fill="#940012" d="M 8.464844 15.082031 L 8.109375 7.722656 C 8.109375 7.722656 8.101562 7.714844 8.089844 7.699219 C 8.246094 7.617188 8.351562 7.457031 8.351562 7.269531 C 8.351562 7 8.132812 6.785156 7.867188 6.785156 C 7.597656 6.785156 7.382812 7 7.382812 7.269531 C 7.382812 7.464844 7.496094 7.628906 7.660156 7.707031 C 7.65625 7.714844 7.652344 7.71875 7.648438 7.722656 C 7.648438 7.722656 7.207031 12.648438 7.273438 15.199219 C 7.273438 15.199219 7.125 16.210938 7.9375 16.101562 C 7.9375 16.101562 8.511719 16.078125 8.464844 15.082031 Z M 8.464844 15.082031 " fill-opacity="1" fill-rule="nonzero"/></svg>