<svg xmlns="http://www.w3.org/2000/svg" xmlns:xlink="http://www.w3.org/1999/xlink" width="40" zoomAndPan="magnify" viewBox="0 0 30 30.000001" height="40" preserveAspectRatio="xMidYMid meet" version="1.0"><defs><clipPath id="51aa2b63f9"><path d="M 4.910156 3.003906 L 25.234375 3.003906 L 25.234375 26.226562 L 4.910156 26.226562 Z M 4.910156 3.003906 " clip-rule="nonzero"/></clipPath></defs><g clip-path="url(#51aa2b63f9)"><path fill="#940012" d="M 8.21875 13.664062 C 8.210938 13.628906 7.921875 13.308594 7.859375 13.203125 C 7.628906 12.8125 7.484375 12.242188 7.460938 11.785156 C 7.449219 11.578125 7.542969 10.726562 7.460938 10.632812 C 7.386719 10.550781 7.179688 10.589844 7.21875 10.425781 C 7.253906 10.253906 7.425781 10.441406 7.476562 10.4375 C 7.523438 10.433594 7.625 10.011719 7.636719 9.933594 C 7.671875 9.699219 7.640625 9.285156 7.726562 9.082031 C 7.769531 8.976562 8.226562 8.597656 8.34375 8.515625 C 8.492188 8.414062 8.753906 8.332031 8.855469 8.242188 C 8.980469 8.128906 9.128906 7.816406 9.25 7.664062 C 9.445312 7.410156 9.695312 7.199219 9.914062 6.96875 C 9.605469 6.789062 9.675781 6.335938 9.789062 6.050781 C 10.105469 5.25 10.550781 5.738281 11.140625 5.675781 C 11.394531 5.648438 11.402344 5.609375 11.367188 5.367188 C 11.3125 4.980469 11.113281 4.675781 11.160156 4.273438 C 11.175781 4.152344 11.292969 3.683594 11.332031 3.566406 C 11.378906 3.425781 11.644531 3.175781 11.785156 3.144531 C 11.925781 3.113281 11.839844 3.128906 11.921875 3.09375 C 12.089844 3.023438 12.464844 2.988281 12.644531 3.023438 C 12.863281 3.070312 13.066406 3.222656 13.269531 3.277344 C 13.371094 3.304688 13.503906 3.273438 13.613281 3.34375 L 13.492188 3.40625 C 13.816406 3.484375 13.792969 3.765625 13.792969 4.039062 L 13.644531 3.980469 C 13.671875 4.179688 13.699219 4.4375 13.675781 4.632812 C 13.660156 4.742188 13.589844 4.78125 13.578125 4.875 C 13.5625 5.046875 13.746094 5.210938 13.703125 5.382812 C 13.691406 5.433594 13.539062 5.417969 13.503906 5.464844 C 13.472656 5.503906 13.519531 5.558594 13.515625 5.597656 C 13.503906 5.65625 13.347656 5.707031 13.417969 5.859375 C 13.273438 6.023438 13.363281 6.261719 13.105469 6.304688 C 13 6.324219 12.738281 6.265625 12.734375 6.417969 C 12.730469 6.5625 13.128906 6.898438 13.277344 6.917969 C 13.210938 7.066406 13.078125 7.191406 13.097656 7.386719 C 13.125 7.675781 13.304688 8.039062 13.335938 8.363281 C 13.375 8.789062 13.324219 9.183594 13.410156 9.621094 C 13.484375 10.019531 13.667969 10.394531 13.75 10.796875 C 13.851562 11.300781 13.835938 12.042969 14.066406 12.480469 C 14.136719 12.613281 14.292969 12.75 14.347656 12.867188 C 14.417969 13.027344 14.414062 13.300781 14.476562 13.433594 C 14.515625 13.507812 14.628906 13.519531 14.660156 13.613281 C 14.699219 13.734375 14.636719 13.855469 14.65625 13.917969 C 14.730469 14.136719 15.148438 14.417969 15.160156 14.601562 C 15.164062 14.667969 15.121094 14.761719 15.140625 14.800781 C 15.167969 14.851562 15.976562 15.371094 16.097656 15.449219 C 17.472656 16.324219 18.953125 17.015625 20.398438 17.757812 C 20.464844 17.785156 20.488281 17.699219 20.542969 17.683594 C 20.738281 17.621094 20.902344 17.804688 20.945312 17.785156 C 20.972656 17.773438 21.039062 17.6875 21.085938 17.652344 C 21.246094 17.542969 21.429688 17.464844 21.578125 17.359375 C 21.832031 17.175781 22.066406 16.78125 22.328125 16.652344 C 22.757812 16.441406 23.574219 16.59375 23.957031 16.863281 C 24.15625 17.007812 24.058594 17.082031 24.109375 17.253906 C 24.140625 17.359375 24.324219 17.472656 24.417969 17.523438 C 24.53125 17.582031 25.050781 17.746094 25.078125 17.804688 C 25.132812 17.933594 24.96875 18.195312 24.882812 18.296875 C 24.78125 18.417969 24.40625 18.683594 24.253906 18.703125 C 24.09375 18.722656 23.941406 18.617188 23.808594 18.617188 C 23.722656 18.617188 23.371094 18.707031 23.34375 18.789062 C 23.308594 18.894531 23.371094 18.949219 23.277344 19.085938 C 23.183594 19.222656 23.023438 19.328125 22.855469 19.34375 C 23.09375 19.785156 22.726562 19.863281 22.605469 20.140625 C 22.546875 20.28125 22.566406 20.414062 22.53125 20.550781 C 22.371094 21.164062 21.847656 21.464844 21.519531 21.90625 C 21.34375 22.144531 21.261719 23 21.222656 23.332031 C 21.164062 23.804688 21.03125 24.339844 21.261719 24.769531 C 21.386719 24.996094 21.484375 24.886719 21.671875 24.964844 C 21.832031 25.035156 21.9375 25.34375 21.777344 25.34375 L 20.960938 25.34375 C 20.761719 25.34375 20.683594 24.898438 20.5625 24.769531 C 20.492188 24.699219 20.28125 24.621094 20.261719 24.585938 C 20.230469 24.535156 20.34375 24.328125 20.308594 24.285156 C 20.296875 24.273438 20.15625 24.28125 20.128906 24.203125 C 20.101562 24.105469 20.230469 23.914062 20.246094 23.8125 C 20.304688 23.4375 20.230469 22.507812 20.035156 22.175781 C 19.839844 21.835938 19.480469 21.84375 19.15625 21.722656 C 18.894531 21.621094 18.667969 21.429688 18.398438 21.34375 C 18.421875 21.40625 18.449219 21.476562 18.457031 21.542969 C 18.511719 22.128906 17.695312 23.023438 17.796875 23.78125 C 17.828125 24.019531 18.222656 24.683594 18.457031 24.753906 C 18.574219 24.789062 18.675781 24.75 18.792969 24.84375 C 18.847656 24.890625 18.921875 25.015625 18.917969 25.085938 C 18.898438 25.269531 18.226562 25.234375 18.089844 25.183594 C 17.949219 25.136719 17.433594 24.328125 17.277344 24.148438 C 17.191406 24.046875 16.882812 23.800781 16.867188 23.707031 C 16.839844 23.53125 17.054688 23.222656 17.105469 23.035156 C 17.1875 22.734375 17.1875 22.140625 17.058594 21.851562 C 16.984375 21.691406 16.34375 21.199219 16.175781 21.222656 C 16.066406 21.238281 16.003906 21.460938 15.929688 21.558594 C 15.824219 21.695312 15.664062 21.769531 15.554688 21.878906 C 15.347656 22.082031 15.195312 22.324219 14.925781 22.460938 C 14.753906 22.550781 14.542969 22.585938 14.371094 22.664062 C 14.011719 22.824219 13.75 23.199219 13.492188 23.484375 C 13.433594 23.546875 13.304688 23.519531 13.492188 23.660156 C 13.566406 23.714844 13.804688 23.785156 13.824219 23.820312 C 13.925781 23.972656 13.855469 24.351562 14.007812 24.480469 C 14.183594 24.628906 14.617188 24.6875 14.816406 24.851562 C 15.199219 24.941406 15.742188 24.621094 15.640625 25.265625 C 15.609375 25.472656 15.207031 25.707031 15.023438 25.769531 C 14.644531 25.898438 14.363281 25.832031 13.992188 25.859375 C 13.507812 25.894531 12.996094 26.003906 12.503906 25.949219 C 12.050781 25.902344 12.242188 25.453125 12.242188 25.125 C 12.21875 25.019531 12.113281 25 12.050781 24.917969 C 11.832031 24.625 12.144531 24.453125 12.125 24.363281 C 12.117188 24.328125 11.890625 24.203125 11.839844 24.164062 C 11.699219 24.046875 11.601562 23.925781 11.558594 23.746094 C 11.445312 23.273438 11.421875 22.683594 11.328125 22.1875 C 11.25 21.765625 11.074219 21.28125 11.039062 20.871094 C 11 20.429688 11.070312 19.738281 10.957031 19.34375 C 10.945312 19.304688 10.953125 19.273438 10.898438 19.285156 C 10.488281 20.078125 9.988281 20.832031 9.324219 21.4375 C 9.089844 21.652344 8.660156 21.910156 8.507812 22.164062 C 8.390625 22.359375 8.382812 22.554688 8.300781 22.746094 C 8.222656 22.925781 8.074219 23.09375 7.992188 23.285156 C 7.851562 23.601562 7.890625 23.847656 7.609375 24.085938 C 7.503906 24.175781 7.296875 24.265625 7.238281 24.382812 C 7.125 24.632812 7.273438 24.976562 7.429688 25.175781 C 7.601562 25.394531 8.015625 25.574219 7.761719 25.875 C 7.523438 26.15625 6.992188 25.941406 6.722656 25.792969 C 6.160156 25.480469 5.851562 24.96875 5.445312 24.496094 C 5.25 24.269531 4.839844 24.011719 4.921875 23.667969 C 4.957031 23.503906 5.128906 23.539062 5.253906 23.488281 C 5.304688 23.46875 5.558594 23.351562 5.582031 23.328125 C 5.636719 23.265625 5.597656 23.152344 5.617188 23.0625 C 5.660156 22.859375 6.058594 22.855469 6.199219 22.738281 C 6.847656 21.835938 7.367188 20.746094 8.109375 19.921875 C 8.25 19.761719 8.667969 19.441406 8.742188 19.3125 C 8.789062 19.234375 8.792969 19.128906 8.835938 19.039062 C 8.890625 18.929688 9.007812 18.820312 9.078125 18.707031 C 9.476562 18.039062 9.34375 16.746094 9.519531 15.964844 C 9.460938 15.664062 9.121094 15.339844 9.070312 15.050781 C 9.023438 14.75 9.050781 14.394531 9.035156 14.085938 C 9.03125 13.992188 9.082031 13.679688 8.957031 13.679688 L 8.429688 13.679688 L 8.457031 14.4375 L 8.214844 14.4375 C 8.183594 14.214844 8.261719 13.867188 8.214844 13.664062 Z M 13.773438 14.1875 C 13.742188 14.164062 13.722656 14.078125 13.671875 14.058594 L 13.128906 13.769531 C 13.144531 14.113281 13.105469 14.476562 13.125 14.816406 C 13.132812 14.917969 13.238281 15.125 13.121094 15.128906 C 12.996094 15.132812 12.566406 14.992188 12.46875 15.113281 C 12.445312 15.140625 12.316406 15.769531 12.308594 15.847656 C 12.265625 16.445312 12.46875 16.964844 12.609375 17.515625 C 12.78125 18.191406 13.050781 19.070312 12.9375 19.746094 C 12.894531 19.992188 12.691406 20.519531 12.703125 20.722656 C 12.710938 20.816406 12.867188 21.007812 12.910156 21.125 C 13.011719 21.414062 12.976562 21.730469 13.007812 22.027344 C 13.035156 22.285156 13.109375 22.542969 13.097656 22.800781 C 13.152344 22.816406 13.15625 22.78125 13.1875 22.757812 C 13.367188 22.621094 13.941406 22.035156 14.042969 21.851562 C 14.144531 21.671875 14.351562 21.027344 14.414062 20.800781 C 14.53125 20.410156 14.484375 20.007812 14.710938 19.640625 C 14.90625 19.316406 15.304688 19.160156 15.132812 18.6875 L 14.28125 17.695312 L 14.429688 17.695312 C 14.429688 17.695312 14.1875 17.453125 14.1875 17.453125 L 14.277344 17.421875 L 14.097656 17.242188 L 14.308594 17.253906 C 14.261719 17.167969 14.167969 16.964844 14.15625 16.875 C 14.152344 16.820312 14.214844 16.839844 14.21875 16.8125 C 14.230469 16.734375 14.183594 16.554688 14.1875 16.453125 C 14.191406 16.277344 14.25 16.070312 14.25 15.90625 C 14.253906 15.785156 14.195312 15.660156 14.21875 15.527344 C 14.296875 15.542969 14.269531 15.707031 14.371094 15.679688 L 14.429688 15.253906 C 14.703125 15.527344 14.933594 15.824219 15.054688 16.195312 C 15.210938 16.679688 15.28125 17.71875 15.613281 18.058594 C 15.863281 18.3125 16.277344 18.113281 16.601562 18.078125 C 17.664062 17.960938 18.542969 18.414062 19.589844 18.21875 C 19.894531 18.160156 20.179688 18.023438 20.492188 18.011719 C 20.503906 17.960938 20.480469 17.949219 20.441406 17.929688 C 19.507812 17.484375 18.539062 17.058594 17.625 16.5625 C 16.769531 16.101562 15.945312 15.589844 15.144531 15.042969 C 15.082031 15.070312 15.117188 15.191406 15.082031 15.195312 C 14.941406 15.21875 14.550781 15.207031 14.429688 15.148438 C 14.382812 15.125 14.21875 14.902344 14.28125 14.832031 C 14.105469 14.863281 14.222656 14.707031 14.21875 14.605469 C 14.214844 14.566406 14.023438 14.273438 13.992188 14.253906 C 13.929688 14.207031 13.835938 14.238281 13.773438 14.1875 Z M 20.945312 17.863281 C 20.9375 17.851562 20.703125 17.742188 20.683594 17.742188 C 20.519531 17.722656 20.433594 17.839844 20.550781 17.96875 C 20.652344 18.085938 20.738281 17.960938 20.808594 17.957031 C 20.839844 17.953125 20.898438 17.992188 20.914062 17.984375 C 20.917969 17.980469 20.949219 17.871094 20.945312 17.863281 Z M 20.945312 17.863281 " fill-opacity="1" fill-rule="nonzero"/></g></svg>