<svg xmlns="http://www.w3.org/2000/svg" xmlns:xlink="http://www.w3.org/1999/xlink" width="40" zoomAndPan="magnify" viewBox="0 0 30 30.000001" height="40" preserveAspectRatio="xMidYMid meet" version="1.0"><defs><clipPath id="54aa2e926b"><path d="M 3.386719 3.878906 L 26.613281 3.878906 L 26.613281 24.929688 L 3.386719 24.929688 Z M 3.386719 3.878906 " clip-rule="nonzero"/></clipPath></defs><g clip-path="url(#54aa2e926b)"><path fill="#940012" d="M 11.765625 10.839844 C 12.054688 10.761719 12.324219 10.640625 12.578125 10.484375 C 13.082031 10.167969 13.371094 9.789062 13.550781 9.527344 C 13.867188 9.066406 14.078125 8.542969 14.078125 8.542969 C 14.160156 8.34375 14.234375 8.121094 14.421875 7.855469 C 14.570312 7.648438 14.703125 7.628906 14.75 7.484375 C 14.789062 7.367188 14.796875 7.125 14.320312 6.613281 C 13.832031 6.089844 13.617188 6.121094 12.835938 5.515625 C 12.464844 5.226562 12.074219 4.953125 11.707031 4.65625 C 11.53125 4.515625 11.34375 4.355469 11.066406 4.328125 C 10.886719 4.3125 10.792969 4.359375 10.59375 4.316406 C 10.359375 4.261719 10.214844 4.132812 10.136719 4.074219 C 9.886719 3.882812 9.425781 3.890625 8.511719 3.910156 C 7.695312 3.929688 7.96875 4.003906 7.039062 4.042969 C 6.667969 4.058594 6.4375 4.058594 6.253906 4.230469 C 6.097656 4.375 6.144531 4.484375 5.96875 4.914062 C 5.867188 5.15625 5.832031 5.175781 5.511719 5.757812 C 5.421875 5.921875 5.289062 6.160156 5.140625 6.457031 C 4.761719 6.597656 4.433594 6.8125 4.152344 7.101562 C 3.960938 7.304688 3.800781 7.53125 3.683594 7.785156 C 3.550781 8.074219 3.390625 8.40625 3.484375 8.796875 C 3.539062 9.03125 3.660156 9.1875 3.753906 9.3125 C 3.925781 9.53125 4.136719 9.703125 4.382812 9.828125 C 4.46875 9.875 4.804688 10.042969 5.4375 10.085938 C 6.285156 10.144531 6.511719 9.902344 6.765625 10.085938 C 7.015625 10.261719 7.011719 10.648438 6.96875 11.457031 C 6.894531 12.742188 6.855469 13.382812 6.765625 13.898438 C 6.503906 15.398438 6.300781 15.472656 6.265625 16.46875 C 6.222656 17.769531 6.546875 18.203125 6.679688 18.351562 C 6.898438 18.597656 7.050781 18.605469 7.253906 18.925781 C 7.523438 19.355469 7.390625 19.566406 7.652344 20.125 C 7.835938 20.511719 7.902344 20.410156 8.179688 20.921875 C 8.308594 21.160156 8.410156 21.4375 8.609375 21.992188 C 8.757812 22.410156 8.785156 22.519531 8.765625 22.664062 C 8.726562 23.011719 8.488281 23.242188 8.421875 23.308594 C 8.148438 23.570312 7.964844 23.496094 7.496094 23.75 C 7.289062 23.863281 6.761719 24.148438 6.796875 24.394531 C 6.835938 24.667969 7.5625 24.765625 7.882812 24.808594 C 8.382812 24.878906 8.976562 24.957031 9.539062 24.609375 C 9.707031 24.503906 10.011719 24.316406 10.125 23.96875 C 10.21875 23.660156 10.066406 23.546875 10.152344 23.125 C 10.21875 22.792969 10.335938 22.746094 10.4375 22.382812 C 10.507812 22.132812 10.53125 21.882812 10.507812 21.625 C 11.144531 21.878906 11.796875 21.929688 12.464844 21.78125 C 12.558594 22.027344 12.625 22.28125 12.664062 22.539062 C 12.722656 22.910156 12.699219 23.136719 12.695312 23.980469 C 12.691406 24.777344 12.707031 24.890625 12.808594 24.980469 C 12.996094 25.144531 13.210938 24.992188 13.949219 24.953125 C 14.71875 24.914062 14.925781 25.054688 15.09375 24.882812 C 15.175781 24.796875 15.242188 24.636719 15.007812 23.609375 C 14.796875 22.699219 14.683594 22.5625 14.652344 22.152344 C 14.625 21.8125 14.65625 21.308594 14.964844 20.667969 C 15.894531 20.414062 16.769531 20.03125 17.589844 19.519531 C 17.960938 19.289062 18.316406 19.03125 18.65625 18.753906 C 18.714844 18.941406 18.800781 19.113281 18.921875 19.265625 C 19.050781 19.433594 19.203125 19.566406 19.386719 19.671875 C 19.75 19.878906 19.910156 19.769531 20.097656 19.953125 C 20.308594 20.160156 20.296875 20.484375 20.292969 20.613281 C 20.285156 20.828125 20.160156 21.066406 19.90625 21.53125 C 19.664062 21.984375 19.585938 22.050781 19.496094 22.097656 C 19.292969 22.199219 19.210938 22.09375 18.886719 22.140625 C 18.5625 22.191406 18.15625 22.371094 18.042969 22.695312 C 18.027344 22.734375 17.96875 22.898438 18.046875 23.023438 C 18.089844 23.089844 18.175781 23.148438 18.46875 23.171875 C 18.761719 23.191406 18.871094 23.148438 19.121094 23.136719 C 19.632812 23.117188 19.695312 23.277344 19.976562 23.175781 C 20.25 23.078125 20.40625 22.847656 20.441406 22.796875 C 20.542969 22.648438 20.5625 22.535156 20.605469 22.410156 C 20.699219 22.144531 20.800781 22.078125 21.15625 21.621094 C 21.660156 20.976562 21.5 21.046875 21.882812 20.589844 C 22.109375 20.3125 22.265625 20.167969 22.230469 19.984375 C 22.214844 19.898438 22.167969 19.878906 21.925781 19.636719 C 21.59375 19.304688 21.488281 19.15625 21.449219 19.101562 C 21.316406 18.910156 21.25 18.816406 21.246094 18.691406 C 21.238281 18.417969 21.5 18.148438 21.773438 18.054688 C 22.230469 17.902344 22.660156 18.257812 22.730469 18.316406 C 22.785156 18.359375 22.902344 18.515625 23.132812 18.824219 C 23.503906 19.324219 23.53125 19.375 23.65625 19.472656 C 23.773438 19.558594 23.976562 19.707031 24.261719 19.746094 C 24.4375 19.765625 24.5 19.730469 24.597656 19.789062 C 24.746094 19.878906 24.769531 20.078125 24.808594 20.371094 C 24.871094 20.90625 24.902344 21.171875 24.910156 21.3125 C 24.933594 21.9375 24.945312 22.253906 24.8125 22.449219 C 24.703125 22.613281 24.644531 22.574219 24.414062 22.847656 C 24.25 23.046875 24.027344 23.316406 24.105469 23.496094 C 24.148438 23.601562 24.285156 23.628906 24.515625 23.679688 C 24.730469 23.722656 24.898438 23.726562 25.640625 23.660156 C 25.957031 23.632812 26.039062 23.621094 26.101562 23.546875 C 26.207031 23.425781 26.15625 23.257812 26.132812 22.941406 C 26.128906 22.875 26.132812 22.644531 26.140625 22.179688 C 26.152344 21.777344 26.183594 21.382812 26.246094 20.984375 C 26.335938 20.433594 26.378906 20.15625 26.445312 19.992188 C 26.519531 19.816406 26.609375 19.660156 26.554688 19.472656 C 26.519531 19.335938 26.425781 19.234375 26.292969 19.101562 C 26.148438 18.949219 26.074219 18.914062 25.964844 18.816406 C 25.796875 18.65625 25.671875 18.464844 25.59375 18.242188 C 25.507812 17.984375 25.589844 17.878906 25.660156 17.191406 C 25.703125 16.804688 25.722656 16.613281 25.707031 16.390625 C 25.679688 15.941406 25.535156 15.617188 25.40625 15.335938 C 25.148438 14.785156 24.800781 14.300781 24.355469 13.882812 C 24.613281 13.730469 24.847656 13.542969 25.050781 13.324219 C 25.234375 13.128906 25.722656 12.609375 25.84375 11.867188 C 25.976562 11.046875 25.644531 10.054688 24.910156 9.542969 C 23.734375 8.730469 22.15625 9.59375 21.625 9.882812 C 20.65625 10.398438 19.960938 11.238281 20.023438 11.316406 C 20.035156 11.335938 20.101562 11.316406 20.679688 11.003906 C 21.539062 10.535156 21.648438 10.4375 21.925781 10.296875 C 22.40625 10.058594 23.203125 9.65625 23.984375 9.9375 C 24.070312 9.96875 24.726562 10.214844 24.980469 10.890625 C 25.023438 10.996094 25.164062 11.378906 25.03125 11.824219 C 24.875 12.34375 24.445312 12.601562 24.152344 12.777344 C 23.769531 13.003906 23.355469 13.125 22.90625 13.136719 C 21.394531 12.601562 20.175781 12.542969 19.382812 12.578125 C 18.378906 12.621094 17.332031 12.664062 16.128906 13.101562 C 15.769531 13.230469 15.292969 13.433594 14.605469 13.441406 C 14.296875 13.445312 13.6875 13.449219 13.042969 13.089844 C 12.792969 12.953125 12.238281 12.632812 11.941406 11.949219 C 11.789062 11.59375 11.730469 11.222656 11.765625 10.839844 Z M 11.765625 10.839844 " fill-opacity="1" fill-rule="nonzero"/></g></svg>