<svg xmlns="http://www.w3.org/2000/svg" xmlns:xlink="http://www.w3.org/1999/xlink" width="40" zoomAndPan="magnify" viewBox="0 0 30 30.000001" height="40" preserveAspectRatio="xMidYMid meet" version="1.0"><defs><clipPath id="48364bab53"><path d="M 3.386719 6 L 26.613281 6 L 26.613281 23 L 3.386719 23 Z M 3.386719 6 " clip-rule="nonzero"/></clipPath></defs><g clip-path="url(#48364bab53)"><path fill="#940012" d="M 12.835938 9.242188 C 12.949219 9.296875 13.03125 9.378906 13.144531 9.417969 C 13.792969 9.660156 14.292969 10.058594 14.582031 10.707031 C 14.582031 10.714844 14.589844 10.714844 14.589844 10.707031 C 14.589844 10.699219 14.589844 10.699219 14.589844 10.6875 C 14.378906 10.121094 13.867188 9.519531 13.253906 9.34375 C 13.070312 9.289062 12.929688 9.242188 12.828125 9.195312 C 12.484375 8.453125 11.964844 7.859375 11.277344 7.414062 C 10.292969 6.773438 9.21875 6.613281 8.078125 6.9375 C 7.824219 7.011719 7.574219 7.085938 7.324219 7.179688 C 7.316406 7.179688 7.304688 7.179688 7.296875 7.171875 C 7.296875 7.160156 7.296875 7.160156 7.296875 7.152344 C 7.519531 6.835938 8.179688 6.632812 8.53125 6.53125 C 10.777344 5.925781 13.253906 6.464844 15.277344 7.5625 C 16.875 8.425781 17.953125 9.640625 19.019531 11.070312 C 19.027344 11.078125 19.039062 11.085938 19.046875 11.085938 C 20.003906 11.191406 20.921875 11.46875 21.792969 11.921875 C 22.878906 12.488281 23.855469 13.167969 24.644531 14.085938 C 24.902344 14.382812 25.191406 14.78125 25.460938 15.132812 C 25.636719 15.355469 25.90625 15.726562 26.175781 15.757812 C 26.183594 15.757812 26.191406 15.765625 26.203125 15.773438 C 26.222656 15.847656 26.203125 15.894531 26.136719 15.941406 C 25.867188 16.109375 25.582031 16.277344 25.339844 16.46875 C 25.136719 16.636719 24.941406 16.824219 24.753906 17.019531 C 24.753906 17.019531 24.753906 17.019531 24.753906 17.027344 C 24.753906 17.027344 24.753906 17.027344 24.761719 17.027344 C 25.136719 16.824219 25.460938 16.5625 25.820312 16.351562 C 25.847656 16.332031 25.878906 16.320312 25.933594 16.3125 C 25.941406 16.3125 25.953125 16.3125 25.933594 16.320312 C 25.609375 16.5625 25.433594 16.824219 25.125 17.222656 C 24.578125 17.917969 23.753906 18.558594 22.804688 18.457031 C 21.996094 18.375 21.171875 17.851562 20.976562 17.007812 C 20.773438 16.117188 21.089844 15.144531 21.644531 14.449219 C 21.644531 14.4375 21.644531 14.4375 21.644531 14.4375 C 21.644531 14.4375 21.636719 14.4375 21.636719 14.4375 C 20.78125 15.226562 20.160156 16.441406 20.449219 17.613281 C 20.605469 18.234375 21.078125 18.640625 21.683594 18.820312 C 22.582031 19.085938 23.511719 18.734375 24.253906 18.1875 C 24.761719 17.816406 25.144531 17.390625 25.550781 16.933594 C 25.820312 16.648438 26.0625 16.453125 26.414062 16.367188 C 26.488281 16.351562 26.546875 16.359375 26.582031 16.386719 C 26.609375 16.414062 26.609375 16.433594 26.582031 16.460938 C 26.0625 16.90625 25.550781 17.332031 25.0625 17.742188 C 23.558594 18.96875 21.878906 19.578125 19.964844 19.738281 C 19.769531 19.757812 19.464844 20.0625 19.34375 20.191406 C 18.953125 20.609375 18.480469 21.203125 17.953125 21.667969 C 17.03125 22.476562 15.648438 23.097656 14.398438 22.808594 C 14.386719 22.808594 14.386719 22.800781 14.386719 22.800781 C 14.386719 22.800781 14.386719 22.789062 14.398438 22.789062 C 14.582031 22.78125 14.785156 22.78125 14.960938 22.753906 C 15.871094 22.613281 16.550781 22.152344 16.996094 21.34375 C 17.320312 20.757812 17.421875 19.671875 16.585938 19.421875 C 16.300781 19.339844 16.003906 19.246094 15.722656 19.144531 C 15.714844 19.132812 15.695312 19.144531 15.6875 19.152344 C 14.054688 20.378906 12.214844 21.296875 10.136719 21.109375 C 8.875 21 7.75 20.320312 7.25 19.132812 C 7.25 19.125 7.25 19.117188 7.257812 19.117188 C 7.269531 19.117188 7.277344 19.117188 7.277344 19.125 C 7.964844 20.089844 9.058594 20.554688 10.203125 20.15625 C 10.84375 19.933594 11.34375 19.542969 11.695312 18.96875 C 12.78125 17.222656 11.167969 15.652344 9.515625 15.402344 C 9.503906 15.402344 9.488281 15.402344 9.476562 15.414062 C 8.679688 16.035156 8.039062 16.722656 7.332031 17.453125 C 6.171875 18.679688 4.9375 19.785156 3.398438 20.480469 C 3.398438 20.480469 3.390625 20.480469 3.390625 20.480469 C 3.390625 20.480469 3.390625 20.472656 3.390625 20.472656 C 4.484375 19.644531 5.292969 18.585938 5.8125 17.304688 C 5.859375 17.195312 5.960938 16.933594 6.117188 16.535156 C 6.398438 15.832031 7.289062 15.347656 7.929688 15.023438 C 7.9375 15.023438 7.9375 15.011719 7.929688 15.003906 C 7.929688 15.003906 7.917969 14.996094 7.917969 14.996094 C 7.34375 15.160156 6.785156 15.382812 6.257812 15.644531 C 6.191406 15.671875 6.136719 15.671875 6.082031 15.644531 C 5.894531 15.535156 5.683594 14.863281 5.636719 14.660156 C 5.625 14.613281 5.644531 14.558594 5.691406 14.539062 C 5.746094 14.511719 5.8125 14.503906 5.894531 14.503906 C 6.738281 14.539062 7.566406 14.523438 8.375 14.4375 C 8.492188 14.429688 8.492188 14.417969 8.375 14.410156 C 7.546875 14.382812 6.730469 14.269531 5.894531 14.039062 C 5.726562 13.992188 5.671875 13.890625 5.746094 13.722656 C 5.820312 13.546875 6.191406 12.777344 6.425781 12.785156 C 6.480469 12.785156 6.515625 12.796875 6.546875 12.8125 C 7.027344 13.148438 7.492188 13.4375 7.964844 13.6875 C 8.132812 13.769531 8.140625 13.761719 7.992188 13.648438 C 7.527344 13.296875 7.074219 12.871094 6.648438 12.359375 C 6.398438 12.070312 6.265625 11.496094 6.128906 11.117188 C 5.589844 9.675781 4.734375 8.453125 3.554688 7.46875 C 3.554688 7.46875 3.554688 7.457031 3.554688 7.457031 C 3.554688 7.457031 3.566406 7.457031 3.566406 7.457031 C 5.691406 8.351562 7.390625 10.261719 8.585938 12.171875 C 8.921875 12.703125 9.238281 13.25 9.636719 13.722656 C 9.664062 13.75 9.691406 13.769531 9.738281 13.761719 C 11.957031 13.5 13.664062 11.515625 12.835938 9.242188 Z M 11.972656 7.488281 L 11.816406 7.449219 C 11.808594 7.449219 11.808594 7.449219 11.808594 7.457031 C 11.808594 7.46875 11.816406 7.476562 11.824219 7.476562 C 11.871094 7.476562 11.917969 7.496094 11.964844 7.503906 C 13.023438 7.820312 14.089844 8.332031 14.925781 9.0625 C 15.527344 9.59375 16.046875 10.53125 15.539062 11.308594 C 15.527344 11.320312 15.527344 11.320312 15.519531 11.308594 C 15.289062 9.675781 13.894531 8.832031 12.492188 8.257812 C 12.484375 8.257812 12.476562 8.246094 12.464844 8.257812 C 12.457031 8.257812 12.457031 8.265625 12.464844 8.265625 C 13.542969 8.730469 15.261719 9.808594 14.953125 11.234375 C 14.90625 11.441406 14.8125 11.605469 14.675781 11.746094 C 14.664062 11.757812 14.664062 11.746094 14.65625 11.746094 C 14.65625 11.746094 14.65625 11.738281 14.65625 11.738281 C 14.664062 10.820312 14.035156 10.113281 13.238281 9.761719 C 13.226562 9.761719 13.21875 9.761719 13.21875 9.761719 C 13.207031 9.761719 13.207031 9.769531 13.21875 9.769531 C 13.96875 10.140625 14.738281 11.058594 14.183594 11.921875 C 14.175781 11.941406 14.164062 11.941406 14.164062 11.914062 C 14.15625 11.207031 13.738281 10.753906 13.125 10.484375 C 13.117188 10.484375 13.105469 10.484375 13.105469 10.484375 C 13.089844 10.484375 13.089844 10.492188 13.105469 10.503906 C 13.710938 10.875 14.175781 11.503906 13.664062 12.191406 C 13.652344 12.203125 13.652344 12.203125 13.652344 12.191406 C 13.625 11.914062 13.402344 11.710938 13.144531 11.625 C 13.117188 11.617188 13.117188 11.625 13.132812 11.644531 C 13.386719 11.875 13.535156 12.097656 13.253906 12.40625 C 13.179688 12.488281 13.125 12.542969 13.089844 12.5625 C 12.570312 12.917969 12.019531 13.242188 11.453125 13.519531 C 11.445312 13.519531 11.445312 13.527344 11.453125 13.527344 C 11.464844 13.527344 11.464844 13.527344 11.472656 13.527344 C 12.792969 12.945312 13.996094 12.136719 15.34375 11.597656 C 16.1875 11.265625 17.058594 11.097656 17.960938 11.097656 C 17.960938 11.097656 17.96875 11.097656 17.96875 11.085938 C 17.96875 11.085938 17.96875 11.078125 17.960938 11.078125 C 17.542969 10.976562 17.273438 10.605469 17.199219 10.195312 L 17.179688 10.105469 C 17.171875 10.085938 17.171875 10.085938 17.164062 10.105469 C 17.152344 10.132812 17.164062 10.167969 17.179688 10.195312 C 17.21875 10.503906 17.339844 10.761719 17.542969 10.976562 C 17.550781 10.984375 17.550781 10.996094 17.535156 10.984375 C 17.015625 10.828125 16.894531 10.371094 16.679688 9.871094 C 16.214844 8.8125 15.128906 8.191406 14.089844 7.773438 C 13.125 7.382812 12.167969 7.070312 11.214844 6.835938 C 11.203125 6.828125 11.203125 6.828125 11.195312 6.835938 C 11.183594 6.847656 11.183594 6.847656 11.195312 6.855469 C 12.242188 7.160156 13.253906 7.578125 14.210938 8.097656 C 14.925781 8.480469 15.714844 9 16.179688 9.6875 C 16.511719 10.179688 16.503906 10.660156 16.160156 11.125 C 16.140625 11.144531 16.140625 11.144531 16.140625 11.117188 C 16.140625 11.085938 16.152344 11.070312 16.160156 11.042969 C 16.167969 11.03125 16.167969 11.011719 16.167969 11.003906 C 16.160156 10.207031 15.707031 9.5 15.121094 8.980469 C 14.257812 8.21875 13.125 7.738281 11.972656 7.488281 Z M 9.523438 14.058594 C 10.5625 14.53125 11.824219 14.300781 12.855469 13.972656 C 14.945312 13.324219 16.976562 12.617188 19.195312 12.628906 C 20.605469 12.628906 21.921875 12.972656 23.140625 13.6875 C 23.140625 13.6875 23.148438 13.6875 23.148438 13.6875 C 23.148438 13.6875 23.148438 13.675781 23.148438 13.675781 C 22.082031 12.648438 20.539062 11.746094 19.082031 11.457031 C 17.625 11.171875 16.09375 11.515625 14.777344 12.191406 C 13.207031 12.992188 11.808594 13.890625 9.988281 14.046875 C 9.859375 14.058594 9.683594 14.039062 9.523438 14.046875 C 9.496094 14.03125 9.496094 14.039062 9.523438 14.058594 Z M 19.640625 13.546875 C 19.640625 13.492188 19.59375 13.445312 19.539062 13.445312 C 19.484375 13.445312 19.4375 13.492188 19.4375 13.546875 C 19.4375 13.601562 19.484375 13.648438 19.539062 13.648438 C 19.59375 13.660156 19.640625 13.613281 19.640625 13.546875 Z M 19.195312 13.796875 C 19.195312 13.734375 19.140625 13.675781 19.074219 13.675781 C 19.007812 13.675781 18.953125 13.734375 18.953125 13.796875 C 18.953125 13.863281 19.007812 13.917969 19.074219 13.917969 C 19.140625 13.917969 19.195312 13.863281 19.195312 13.796875 Z M 18.136719 13.925781 C 18.136719 13.863281 18.082031 13.808594 18.015625 13.808594 C 17.953125 13.808594 17.894531 13.863281 17.894531 13.925781 C 17.894531 13.992188 17.953125 14.046875 18.015625 14.046875 C 18.089844 14.046875 18.136719 13.992188 18.136719 13.925781 Z M 17.3125 14.066406 C 17.3125 13.972656 17.238281 13.898438 17.144531 13.898438 C 17.050781 13.898438 16.976562 13.972656 16.976562 14.066406 C 16.976562 14.160156 17.050781 14.234375 17.144531 14.234375 C 17.246094 14.234375 17.3125 14.160156 17.3125 14.066406 Z M 19.546875 14.195312 C 19.546875 14.132812 19.492188 14.074219 19.425781 14.074219 C 19.363281 14.074219 19.304688 14.132812 19.304688 14.195312 C 19.304688 14.261719 19.363281 14.316406 19.425781 14.316406 C 19.492188 14.316406 19.546875 14.261719 19.546875 14.195312 Z M 16.382812 14.539062 C 16.382812 14.4375 16.300781 14.34375 16.1875 14.34375 C 16.085938 14.34375 15.992188 14.429688 15.992188 14.539062 C 15.992188 14.640625 16.078125 14.734375 16.1875 14.734375 C 16.300781 14.734375 16.382812 14.652344 16.382812 14.539062 Z M 18.683594 14.550781 C 18.683594 14.457031 18.609375 14.382812 18.515625 14.382812 C 18.425781 14.382812 18.351562 14.457031 18.351562 14.550781 C 18.351562 14.640625 18.425781 14.714844 18.515625 14.714844 C 18.609375 14.714844 18.683594 14.640625 18.683594 14.550781 Z M 17.953125 14.808594 C 17.953125 14.699219 17.867188 14.613281 17.757812 14.613281 C 17.644531 14.613281 17.5625 14.699219 17.5625 14.808594 C 17.5625 14.921875 17.644531 15.003906 17.757812 15.003906 C 17.867188 15.003906 17.953125 14.910156 17.953125 14.808594 Z M 15.539062 14.820312 C 15.539062 14.726562 15.464844 14.640625 15.363281 14.640625 C 15.261719 14.640625 15.1875 14.714844 15.1875 14.820312 C 15.1875 14.921875 15.261719 14.996094 15.363281 14.996094 C 15.464844 14.996094 15.539062 14.921875 15.539062 14.820312 Z M 24.707031 15.523438 C 24.707031 15.058594 24.328125 14.679688 23.863281 14.679688 C 23.398438 14.679688 23.019531 15.058594 23.019531 15.523438 C 23.019531 15.988281 23.398438 16.367188 23.863281 16.367188 C 24.335938 16.367188 24.707031 15.988281 24.707031 15.523438 Z M 14.90625 14.96875 C 14.90625 14.902344 14.859375 14.855469 14.796875 14.855469 C 14.730469 14.855469 14.683594 14.902344 14.683594 14.96875 C 14.683594 15.03125 14.730469 15.078125 14.796875 15.078125 C 14.859375 15.078125 14.90625 15.03125 14.90625 14.96875 Z M 17.253906 15.234375 C 17.253906 15.144531 17.179688 15.070312 17.089844 15.070312 C 16.996094 15.070312 16.921875 15.144531 16.921875 15.234375 C 16.921875 15.328125 16.996094 15.402344 17.089844 15.402344 C 17.179688 15.402344 17.253906 15.328125 17.253906 15.234375 Z M 14.546875 15.320312 C 14.546875 15.226562 14.472656 15.152344 14.378906 15.152344 C 14.285156 15.152344 14.210938 15.226562 14.210938 15.320312 C 14.210938 15.414062 14.285156 15.488281 14.378906 15.488281 C 14.472656 15.488281 14.546875 15.414062 14.546875 15.320312 Z M 9.710938 15.207031 C 10.453125 15.253906 11.109375 15.5625 11.722656 15.960938 C 13.421875 17.082031 15.027344 18.234375 17.105469 18.558594 C 17.144531 18.566406 17.164062 18.550781 17.152344 18.511719 C 17.132812 18.375 17.03125 18.308594 16.894531 18.261719 C 15.074219 17.621094 13.386719 16.65625 11.660156 15.726562 C 11.054688 15.414062 10.40625 15.160156 9.710938 15.191406 C 9.699219 15.207031 9.699219 15.207031 9.710938 15.207031 C 9.699219 15.207031 9.699219 15.207031 9.710938 15.207031 Z M 16.578125 15.523438 C 16.578125 15.460938 16.523438 15.402344 16.457031 15.402344 C 16.390625 15.402344 16.335938 15.460938 16.335938 15.523438 C 16.335938 15.589844 16.390625 15.644531 16.457031 15.644531 C 16.523438 15.644531 16.578125 15.589844 16.578125 15.523438 Z M 16.679688 16.554688 C 16.28125 16.542969 16.457031 17.101562 16.855469 17.046875 C 17.636719 16.925781 18.386719 16.960938 19.09375 17.167969 C 19.242188 17.203125 19.25 17.195312 19.113281 17.128906 C 18.367188 16.777344 17.5625 16.582031 16.679688 16.554688 Z M 12.746094 17.554688 C 12.71875 17.945312 12.375 18.363281 12.058594 18.578125 C 11.984375 18.632812 11.984375 18.632812 12.066406 18.597656 C 12.390625 18.429688 12.808594 18.078125 12.894531 17.6875 C 12.894531 17.6875 12.894531 17.6875 12.902344 17.6875 C 12.910156 17.6875 12.910156 17.695312 12.910156 17.695312 C 12.882812 18.449219 12.152344 19.042969 11.558594 19.347656 C 11.464844 19.394531 11.472656 19.394531 11.566406 19.355469 C 12.140625 19.132812 12.941406 18.578125 13.164062 17.957031 C 13.179688 17.917969 13.179688 17.917969 13.179688 17.957031 C 13.152344 19.085938 11.707031 19.894531 10.738281 20.097656 C 10.730469 20.097656 10.730469 20.097656 10.738281 20.109375 C 10.738281 20.109375 10.75 20.109375 10.75 20.109375 C 11.742188 19.921875 12.921875 19.386719 13.394531 18.429688 C 13.441406 18.335938 13.449219 18.335938 13.429688 18.4375 C 13.28125 19.144531 12.613281 19.597656 11.992188 19.894531 C 11.601562 20.082031 11.183594 20.246094 10.757812 20.332031 C 10.757812 20.332031 10.75 20.332031 10.75 20.339844 C 10.75 20.339844 10.75 20.351562 10.757812 20.351562 C 10.824219 20.351562 10.898438 20.351562 10.972656 20.332031 C 12.039062 20.128906 13.496094 19.523438 13.792969 18.328125 C 13.804688 18.28125 13.8125 18.28125 13.832031 18.328125 C 14.042969 19.070312 13.429688 19.578125 12.828125 19.859375 C 11.835938 20.3125 10.785156 20.515625 9.710938 20.5625 C 11.074219 20.621094 12.792969 20.472656 13.839844 19.441406 C 14.128906 19.164062 14.230469 18.761719 14.703125 18.734375 C 14.703125 18.734375 14.710938 18.734375 14.710938 18.746094 C 14.710938 18.746094 14.710938 18.746094 14.710938 18.753906 C 14.527344 18.828125 14.398438 18.96875 14.3125 19.152344 C 14.3125 19.164062 14.3125 19.164062 14.324219 19.164062 C 14.324219 19.164062 14.332031 19.164062 14.332031 19.164062 C 14.507812 18.910156 14.710938 18.78125 15.039062 18.820312 C 15.046875 18.820312 15.054688 18.820312 15.054688 18.808594 C 15.054688 18.800781 15.054688 18.789062 15.046875 18.789062 C 14.980469 18.773438 14.925781 18.734375 14.859375 18.699219 C 13.894531 18.105469 12.976562 17.398438 12.03125 16.722656 C 12.019531 16.710938 12.019531 16.710938 12.011719 16.722656 C 12.003906 16.730469 12.003906 16.730469 12.011719 16.738281 C 12.195312 16.90625 12.578125 17.203125 12.671875 17.417969 C 12.671875 17.425781 12.679688 17.4375 12.671875 17.453125 C 12.605469 17.667969 12.476562 17.824219 12.269531 17.917969 C 12.160156 17.972656 12.167969 17.984375 12.28125 17.957031 C 12.503906 17.890625 12.652344 17.75 12.726562 17.539062 C 12.726562 17.527344 12.734375 17.527344 12.746094 17.527344 C 12.746094 17.539062 12.746094 17.546875 12.746094 17.554688 Z M 17.050781 17.761719 C 16.792969 17.816406 17.023438 18.179688 17.207031 18.105469 C 17.921875 17.835938 18.65625 17.621094 19.398438 17.453125 C 19.398438 17.453125 19.398438 17.445312 19.398438 17.445312 C 19.398438 17.4375 19.398438 17.4375 19.390625 17.4375 C 18.609375 17.480469 17.820312 17.59375 17.050781 17.761719 Z M 17.523438 18.671875 C 17.265625 18.835938 17.535156 19.117188 17.738281 18.9375 C 18.285156 18.476562 18.878906 18.085938 19.492188 17.734375 C 19.492188 17.734375 19.5 17.722656 19.492188 17.722656 C 19.492188 17.722656 19.484375 17.714844 19.484375 17.722656 C 18.796875 17.964844 18.136719 18.28125 17.523438 18.671875 Z M 17.636719 19.800781 C 17.636719 19.800781 17.636719 19.8125 17.644531 19.8125 C 17.644531 19.820312 17.644531 19.820312 17.644531 19.832031 C 17.625 20.277344 17.488281 20.683594 17.226562 21.046875 C 17.226562 21.046875 17.226562 21.054688 17.226562 21.054688 C 17.226562 21.054688 17.238281 21.054688 17.238281 21.054688 C 17.515625 20.703125 17.683594 20.3125 17.746094 19.867188 C 17.785156 20.480469 17.449219 21.15625 17.070312 21.601562 C 17.042969 21.640625 17.042969 21.640625 17.078125 21.613281 C 17.582031 21.148438 17.847656 20.574219 17.914062 19.886719 C 17.914062 19.859375 17.921875 19.859375 17.921875 19.886719 C 17.941406 19.96875 17.941406 20.042969 17.941406 20.128906 C 17.941406 20.136719 17.953125 20.136719 17.953125 20.136719 C 17.953125 20.136719 17.960938 20.136719 17.960938 20.136719 C 17.980469 20.109375 17.980469 20.082031 17.960938 20.0625 C 17.953125 20.054688 17.953125 20.042969 17.953125 20.035156 L 17.980469 19.894531 C 17.980469 19.875 17.988281 19.875 17.996094 19.894531 C 18.238281 20.5 17.347656 21.464844 16.949219 21.84375 C 16.910156 21.882812 16.910156 21.882812 16.957031 21.855469 C 17.347656 21.546875 17.683594 21.195312 17.96875 20.796875 C 18.164062 20.515625 18.238281 20.136719 18.5 19.914062 C 18.5 19.914062 18.507812 19.914062 18.507812 19.914062 C 18.507812 19.914062 18.507812 19.921875 18.507812 19.921875 C 18.441406 20.015625 18.398438 20.117188 18.386719 20.230469 C 18.386719 20.238281 18.386719 20.238281 18.398438 20.238281 C 18.40625 20.238281 18.40625 20.238281 18.40625 20.230469 C 18.480469 19.960938 18.65625 19.792969 18.925781 19.738281 C 18.925781 19.738281 18.933594 19.738281 18.933594 19.726562 C 18.933594 19.726562 18.933594 19.71875 18.925781 19.71875 C 18.339844 19.691406 17.757812 19.617188 17.179688 19.503906 C 17.179688 19.503906 17.179688 19.503906 17.171875 19.503906 C 17.171875 19.503906 17.171875 19.515625 17.171875 19.515625 C 17.171875 19.523438 17.171875 19.523438 17.179688 19.523438 C 17.273438 19.550781 17.367188 19.589844 17.460938 19.636719 C 17.699219 19.746094 17.476562 20.171875 17.367188 20.285156 C 17.355469 20.292969 17.355469 20.292969 17.367188 20.304688 C 17.375 20.3125 17.394531 20.304688 17.402344 20.292969 C 17.550781 20.164062 17.625 19.988281 17.625 19.773438 C 17.625 19.785156 17.625 19.785156 17.636719 19.800781 Z M 17.636719 19.800781 " fill-opacity="1" fill-rule="nonzero"/></g><path fill="#940012" d="M 24.570312 15.523438 C 24.570312 15.90625 24.261719 16.21875 23.871094 16.21875 C 23.492188 16.21875 23.175781 15.914062 23.175781 15.523438 C 23.175781 15.144531 23.484375 14.828125 23.871094 14.828125 C 24.253906 14.828125 24.570312 15.144531 24.570312 15.523438 Z M 24.234375 15.765625 C 23.835938 16.042969 23.511719 15.308594 24.132812 15.246094 C 24.140625 15.246094 24.152344 15.234375 24.140625 15.226562 C 24.140625 15.226562 24.140625 15.21875 24.140625 15.21875 C 24.085938 15.152344 24.019531 15.105469 23.929688 15.097656 C 23.527344 15.042969 23.289062 15.449219 23.511719 15.785156 C 23.6875 16.042969 24.078125 16.015625 24.242188 15.765625 C 24.242188 15.765625 24.242188 15.765625 24.234375 15.765625 C 24.242188 15.765625 24.234375 15.765625 24.234375 15.765625 Z M 24.234375 15.765625 " fill-opacity="1" fill-rule="nonzero"/></svg>