<svg xmlns="http://www.w3.org/2000/svg" xmlns:xlink="http://www.w3.org/1999/xlink" width="40" zoomAndPan="magnify" viewBox="0 0 30 30.000001" height="40" preserveAspectRatio="xMidYMid meet" version="1.0"><defs><clipPath id="295af6555e"><path d="M 4.789062 2.902344 L 23.660156 2.902344 L 23.660156 26.128906 L 4.789062 26.128906 Z M 4.789062 2.902344 " clip-rule="nonzero"/></clipPath></defs><g clip-path="url(#295af6555e)"><path fill="#940012" d="M 14.402344 2.902344 C 14.511719 2.902344 14.605469 2.925781 14.683594 2.972656 C 17.472656 4.570312 20.429688 5.703125 23.558594 6.367188 C 23.832031 6.425781 23.96875 6.609375 23.972656 6.921875 C 24.011719 9.523438 24.007812 12.613281 23.960938 16.1875 C 23.957031 16.582031 23.851562 17.109375 23.648438 17.769531 C 22.976562 19.945312 21.34375 21.832031 19.554688 23.21875 C 18.019531 24.410156 16.359375 25.371094 14.570312 26.105469 C 14.527344 26.121094 14.464844 26.128906 14.378906 26.128906 C 14.289062 26.128906 14.226562 26.121094 14.1875 26.105469 C 12.398438 25.367188 10.738281 24.402344 9.207031 23.210938 C 7.417969 21.820312 5.789062 19.925781 5.125 17.75 C 4.921875 17.089844 4.820312 16.5625 4.816406 16.167969 C 4.777344 12.589844 4.777344 9.503906 4.824219 6.902344 C 4.828125 6.589844 4.964844 6.40625 5.238281 6.347656 C 8.367188 5.6875 11.328125 4.5625 14.121094 2.972656 C 14.199219 2.925781 14.292969 2.902344 14.402344 2.902344 Z M 14.382812 24.777344 C 14.394531 24.777344 14.40625 24.777344 14.414062 24.773438 C 15.730469 24.1875 16.941406 23.503906 18.050781 22.730469 C 19.234375 21.902344 20.390625 20.847656 21.238281 19.65625 C 22.167969 18.355469 22.691406 17.023438 22.691406 15.4375 C 22.6875 15.085938 22.691406 12.453125 22.695312 7.53125 C 22.695312 7.503906 22.675781 7.480469 22.648438 7.472656 C 19.765625 6.796875 17.035156 5.75 14.453125 4.324219 C 14.433594 4.3125 14.414062 4.308594 14.394531 4.308594 C 14.390625 4.308594 14.390625 4.308594 14.386719 4.308594 C 14.382812 4.308594 14.378906 4.308594 14.378906 4.308594 C 14.359375 4.308594 14.335938 4.3125 14.320312 4.324219 C 11.738281 5.746094 9.003906 6.796875 6.121094 7.46875 C 6.09375 7.476562 6.078125 7.5 6.078125 7.527344 C 6.078125 12.449219 6.078125 15.082031 6.078125 15.433594 C 6.074219 17.019531 6.597656 18.351562 7.527344 19.65625 C 8.375 20.84375 9.527344 21.902344 10.710938 22.730469 C 11.820312 23.503906 13.035156 24.183594 14.347656 24.773438 C 14.355469 24.777344 14.367188 24.777344 14.382812 24.777344 Z M 14.382812 24.777344 " fill-opacity="1" fill-rule="nonzero"/></g><path fill="#940012" d="M 16.554688 10.003906 C 16.570312 9.914062 16.578125 9.808594 16.574219 9.691406 C 16.574219 9.496094 16.640625 9.308594 16.828125 9.304688 C 17.125 9.296875 17.515625 9.289062 18 9.289062 C 18.101562 9.285156 18.175781 9.347656 18.222656 9.472656 C 18.226562 9.484375 18.230469 9.5 18.230469 9.511719 L 18.214844 11.148438 C 18.214844 11.199219 18.238281 11.25 18.28125 11.277344 C 18.828125 11.660156 19.425781 12.078125 20.082031 12.523438 C 20.210938 12.613281 20.167969 12.777344 20.070312 12.898438 C 19.925781 13.078125 19.800781 13.25 19.683594 13.363281 C 19.5625 13.476562 19.414062 13.472656 19.238281 13.351562 C 17.21875 11.960938 16.136719 11.230469 14.421875 10.105469 C 14.402344 10.09375 14.382812 10.089844 14.363281 10.09375 C 14.296875 10.105469 14.21875 10.140625 14.128906 10.199219 C 13.609375 10.539062 12.789062 11.089844 11.671875 11.84375 C 10.449219 12.671875 9.683594 13.179688 9.378906 13.367188 C 9.214844 13.46875 9.050781 13.371094 8.9375 13.214844 C 8.851562 13.09375 8.730469 12.953125 8.578125 12.792969 C 8.558594 12.769531 8.542969 12.742188 8.535156 12.710938 C 8.507812 12.601562 8.550781 12.511719 8.660156 12.433594 C 11.058594 10.78125 12.851562 9.554688 14.035156 8.753906 C 14.277344 8.589844 14.441406 8.597656 14.675781 8.769531 C 14.835938 8.886719 15.449219 9.304688 16.515625 10.019531 C 16.527344 10.027344 16.542969 10.023438 16.550781 10.011719 C 16.550781 10.007812 16.550781 10.007812 16.554688 10.003906 Z M 16.554688 10.003906 " fill-opacity="1" fill-rule="nonzero"/><path fill="#940012" d="M 9.976562 18.539062 C 9.964844 18.539062 9.957031 18.53125 9.957031 18.515625 L 9.957031 13.734375 C 9.957031 13.675781 9.984375 13.621094 10.035156 13.585938 L 14.222656 10.789062 C 14.289062 10.742188 14.375 10.742188 14.441406 10.789062 C 16.796875 12.359375 18.203125 13.300781 18.664062 13.613281 C 18.738281 13.664062 18.800781 13.726562 18.851562 13.800781 C 18.863281 13.820312 18.871094 13.839844 18.871094 13.863281 L 18.871094 18.484375 C 18.871094 18.515625 18.847656 18.539062 18.816406 18.539062 Z M 17.285156 14.464844 C 17.285156 14.355469 17.195312 14.269531 17.089844 14.269531 L 15.660156 14.273438 C 15.554688 14.277344 15.464844 14.363281 15.464844 14.472656 L 15.472656 15.898438 C 15.472656 16.007812 15.558594 16.09375 15.667969 16.09375 L 17.09375 16.089844 C 17.203125 16.089844 17.289062 16 17.289062 15.890625 Z M 13.96875 14.726562 C 13.96875 14.652344 13.90625 14.589844 13.832031 14.589844 L 11.988281 14.59375 C 11.914062 14.59375 11.851562 14.65625 11.851562 14.730469 L 11.855469 17.730469 C 11.855469 17.808594 11.917969 17.871094 11.996094 17.871094 L 13.835938 17.867188 C 13.914062 17.867188 13.976562 17.804688 13.972656 17.730469 Z M 13.96875 14.726562 " fill-opacity="1" fill-rule="nonzero"/></svg>