<svg xmlns="http://www.w3.org/2000/svg" xmlns:xlink="http://www.w3.org/1999/xlink" width="40" zoomAndPan="magnify" viewBox="0 0 30 30.000001" height="40" preserveAspectRatio="xMidYMid meet" version="1.0"><defs><clipPath id="734159e337"><path d="M 3.386719 2.902344 L 26.613281 2.902344 L 26.613281 13 L 3.386719 13 Z M 3.386719 2.902344 " clip-rule="nonzero"/></clipPath><clipPath id="82c12bf611"><path d="M 3.386719 23 L 26.613281 23 L 26.613281 24.675781 L 3.386719 24.675781 Z M 3.386719 23 " clip-rule="nonzero"/></clipPath><clipPath id="916869e42d"><path d="M 7 23 L 16 23 L 16 24.675781 L 7 24.675781 Z M 7 23 " clip-rule="nonzero"/></clipPath></defs><path fill="#940012" d="M 12.34375 9.890625 C 12.554688 9.707031 12.972656 9.839844 13.273438 10.1875 C 13.578125 10.535156 13.652344 10.964844 13.441406 11.148438 C 13.230469 11.332031 12.8125 11.199219 12.507812 10.855469 C 12.207031 10.507812 12.132812 10.074219 12.34375 9.890625 Z M 13.609375 8.074219 C 13.945312 7.972656 14.351562 8.332031 14.519531 8.882812 C 14.691406 9.429688 14.554688 9.960938 14.21875 10.0625 C 13.886719 10.164062 13.480469 9.800781 13.308594 9.253906 C 13.140625 8.703125 13.277344 8.175781 13.609375 8.074219 Z M 15.878906 11.367188 C 15.878906 11.402344 15.898438 11.4375 15.933594 11.453125 C 16.21875 11.59375 16.417969 11.886719 16.417969 12.226562 C 16.417969 12.703125 16.03125 13.085938 15.558594 13.085938 C 15.316406 13.085938 15.101562 12.988281 14.945312 12.832031 C 14.910156 12.792969 14.851562 12.792969 14.8125 12.832031 C 14.65625 12.988281 14.441406 13.085938 14.203125 13.085938 C 13.726562 13.085938 13.34375 12.703125 13.34375 12.226562 C 13.34375 11.886719 13.539062 11.59375 13.828125 11.453125 C 13.859375 11.4375 13.878906 11.402344 13.878906 11.367188 C 13.878906 10.816406 14.328125 10.367188 14.878906 10.367188 C 15.429688 10.367188 15.878906 10.816406 15.878906 11.367188 Z M 15.238281 8.882812 C 15.40625 8.332031 15.8125 7.972656 16.148438 8.074219 C 16.484375 8.175781 16.617188 8.703125 16.449219 9.253906 C 16.28125 9.800781 15.875 10.164062 15.539062 10.0625 C 15.203125 9.960938 15.070312 9.429688 15.238281 8.882812 Z M 17.417969 9.890625 C 17.628906 10.074219 17.554688 10.507812 17.25 10.855469 C 16.949219 11.199219 16.53125 11.332031 16.320312 11.148438 C 16.109375 10.964844 16.183594 10.535156 16.484375 10.1875 C 16.789062 9.839844 17.203125 9.707031 17.417969 9.890625 Z M 14.902344 14.566406 C 17.160156 14.566406 18.988281 16.394531 18.988281 18.648438 L 18.988281 23.574219 L 22.226562 23.550781 L 23.476562 11.507812 L 22.320312 10.699219 L 14.878906 5.511719 L 8.15625 10.199219 L 6.179688 11.578125 L 7.65625 23.660156 L 10.820312 23.636719 L 10.820312 18.648438 C 10.820312 16.394531 12.648438 14.566406 14.902344 14.566406 " fill-opacity="1" fill-rule="nonzero"/><g clip-path="url(#734159e337)"><path fill="#940012" d="M 26.375 10.917969 L 14.878906 2.902344 L 3.386719 10.917969 L 4.515625 12.289062 L 14.878906 5.0625 L 25.242188 12.289062 L 26.375 10.917969 " fill-opacity="1" fill-rule="nonzero"/></g><g clip-path="url(#82c12bf611)"><path fill="#940012" d="M 3.71875 24.6875 L 26.039062 24.6875 L 26.039062 23.96875 L 15.554688 23.96875 L 7.328125 24.03125 L 7.324219 23.96875 L 3.71875 23.96875 L 3.71875 24.6875 " fill-opacity="1" fill-rule="nonzero"/></g><g clip-path="url(#916869e42d)"><path fill="#940012" d="M 15.554688 23.96875 L 7.324219 23.96875 L 7.328125 24.03125 Z M 15.554688 23.96875 " fill-opacity="1" fill-rule="nonzero"/></g></svg>