<svg xmlns="http://www.w3.org/2000/svg" xmlns:xlink="http://www.w3.org/1999/xlink" width="40" zoomAndPan="magnify" viewBox="0 0 30 30.000001" height="40" preserveAspectRatio="xMidYMid meet" version="1.0"><defs><clipPath id="3021ad930f"><path d="M 11.15625 8.855469 L 19 8.855469 L 19 16 L 11.15625 16 Z M 11.15625 8.855469 " clip-rule="nonzero"/></clipPath><clipPath id="76316cd1e9"><path d="M 3.386719 9 L 14 9 L 14 20 L 3.386719 20 Z M 3.386719 9 " clip-rule="nonzero"/></clipPath><clipPath id="2cad9a71dd"><path d="M 7 14 L 14 14 L 14 22.628906 L 7 22.628906 Z M 7 14 " clip-rule="nonzero"/></clipPath><clipPath id="f85a360171"><path d="M 14 6.664062 L 26.613281 6.664062 L 26.613281 22 L 14 22 Z M 14 6.664062 " clip-rule="nonzero"/></clipPath></defs><g clip-path="url(#3021ad930f)"><path fill="#ffffff" d="M 18.378906 14.625 L 16.261719 13.53125 C 16.261719 13.453125 16.230469 13.378906 16.171875 13.320312 L 16.121094 13.269531 L 16.105469 13.070312 C 16.101562 13.023438 16.097656 12.976562 16.097656 12.929688 C 16.097656 12.632812 16.144531 12.425781 16.292969 12.164062 C 16.292969 12.164062 16.582031 12.121094 16.582031 11.5 C 16.582031 11.078125 16.515625 11.03125 16.472656 11.046875 C 16.589844 10.6875 16.863281 9.582031 16.019531 9.367188 C 16.011719 9.363281 16.003906 9.359375 16 9.351562 C 15.972656 9.300781 15.917969 9.164062 15.71875 9.023438 C 15.472656 8.851562 15.152344 8.8125 14.875 8.925781 C 14.796875 8.957031 14.757812 8.988281 14.757812 8.988281 C 14.757812 8.988281 14.351562 8.929688 14.132812 9.035156 C 14.109375 9.046875 14.109375 9.082031 14.136719 9.09375 C 14.167969 9.105469 14.164062 9.148438 14.132812 9.152344 C 14.097656 9.160156 14.054688 9.167969 14.003906 9.183594 C 13.601562 9.316406 13.339844 9.707031 13.351562 10.136719 C 13.355469 10.390625 13.398438 10.78125 13.503906 11.058594 C 13.464844 11.027344 13.375 11.011719 13.375 11.5 C 13.375 12.121094 13.667969 12.164062 13.667969 12.164062 C 13.816406 12.425781 13.890625 12.632812 13.890625 12.929688 C 13.890625 12.976562 13.890625 13.023438 13.886719 13.070312 L 13.871094 13.269531 L 13.816406 13.320312 C 13.761719 13.378906 13.730469 13.453125 13.730469 13.53125 L 11.613281 14.625 C 11.332031 14.769531 11.15625 15.058594 11.15625 15.375 L 11.15625 15.9375 L 18.835938 15.9375 L 18.835938 15.375 C 18.835938 15.058594 18.65625 14.769531 18.378906 14.625 Z M 18.378906 14.625 " fill-opacity="1" fill-rule="nonzero"/></g><path fill="#940012" d="M 16.839844 12.582031 C 17.375 12.355469 17.835938 12.050781 18.1875 11.675781 L 17.710938 11.230469 C 17.074219 11.914062 15.957031 12.332031 14.726562 12.351562 C 13.601562 12.371094 12.527344 12.035156 11.855469 11.460938 L 11.433594 11.957031 C 11.820312 12.289062 12.320312 12.558594 12.882812 12.738281 C 13.460938 12.925781 14.085938 13.011719 14.734375 13.003906 C 15.492188 12.992188 16.214844 12.84375 16.839844 12.582031 Z M 16.839844 12.582031 " fill-opacity="1" fill-rule="nonzero"/><path fill="#940012" d="M 14.628906 7.933594 C 15.835938 7.863281 16.96875 8.191406 17.65625 8.804688 L 18.089844 8.320312 C 17.277344 7.589844 15.96875 7.203125 14.59375 7.28125 C 13.917969 7.320312 13.253906 7.46875 12.675781 7.714844 C 12.101562 7.957031 11.613281 8.292969 11.257812 8.683594 L 11.738281 9.125 C 12.355469 8.445312 13.4375 8 14.628906 7.933594 Z M 14.628906 7.933594 " fill-opacity="1" fill-rule="nonzero"/><g clip-path="url(#76316cd1e9)"><path fill="#940012" d="M 7.238281 16.304688 C 7.246094 16.207031 7.324219 16.132812 7.425781 16.125 L 8.332031 16.058594 L 9.503906 14.957031 C 9.5625 14.90625 9.648438 14.890625 9.71875 14.921875 C 10.71875 15.347656 11.875 15.144531 12.664062 14.40625 C 13.011719 14.082031 13.253906 13.691406 13.390625 13.273438 C 13.179688 13.230469 12.96875 13.175781 12.765625 13.109375 C 12.375 12.984375 12.011719 12.820312 11.6875 12.621094 C 11.40625 12.667969 11.105469 12.578125 10.894531 12.355469 C 10.566406 12 10.582031 11.441406 10.9375 11.113281 C 11.292969 10.78125 11.851562 10.800781 12.179688 11.152344 C 12.226562 11.203125 12.265625 11.257812 12.300781 11.3125 C 12.621094 11.539062 13.023438 11.710938 13.46875 11.824219 C 13.367188 11.355469 13.144531 10.910156 12.792969 10.535156 C 11.765625 9.433594 10.027344 9.375 8.925781 10.40625 C 8.132812 11.148438 7.851562 12.292969 8.214844 13.316406 C 8.238281 13.390625 8.222656 13.472656 8.167969 13.527344 L 3.503906 17.890625 L 3.40625 18.664062 L 3.726562 19.011719 L 5.050781 19.019531 L 5.167969 18.21875 C 5.179688 18.125 5.257812 18.054688 5.351562 18.046875 L 6.132812 17.988281 L 6.203125 17.269531 C 6.210938 17.171875 6.289062 17.09375 6.386719 17.085938 L 7.171875 17.027344 Z M 6.695312 16.097656 C 6.695312 16.101562 6.695312 16.101562 6.695312 16.101562 L 4.410156 18.222656 C 4.371094 18.257812 4.320312 18.277344 4.265625 18.273438 C 4.210938 18.273438 4.164062 18.25 4.125 18.210938 C 4.113281 18.195312 4.101562 18.179688 4.09375 18.164062 C 4.054688 18.085938 4.070312 17.988281 4.136719 17.925781 L 6.421875 15.804688 C 6.460938 15.769531 6.511719 15.75 6.566406 15.75 C 6.621094 15.753906 6.671875 15.777344 6.707031 15.816406 C 6.71875 15.828125 6.730469 15.84375 6.738281 15.859375 C 6.777344 15.941406 6.761719 16.039062 6.695312 16.097656 Z M 6.917969 15.617188 C 6.90625 15.605469 6.894531 15.589844 6.886719 15.574219 C 6.847656 15.492188 6.863281 15.394531 6.929688 15.332031 L 7.03125 15.238281 C 7.113281 15.164062 7.238281 15.167969 7.316406 15.25 C 7.328125 15.261719 7.339844 15.277344 7.347656 15.292969 C 7.386719 15.375 7.371094 15.472656 7.304688 15.535156 L 7.203125 15.628906 C 7.121094 15.703125 6.996094 15.699219 6.917969 15.617188 Z M 6.917969 15.617188 " fill-opacity="1" fill-rule="nonzero"/></g><g clip-path="url(#2cad9a71dd)"><path fill="#940012" d="M 13.003906 14.765625 C 12.394531 15.339844 11.601562 15.640625 10.792969 15.640625 C 10.429688 15.640625 10.058594 15.578125 9.707031 15.449219 L 9.015625 16.097656 L 7.019531 22.089844 L 7.300781 22.816406 L 7.753906 22.96875 L 8.917969 22.347656 L 8.640625 21.585938 C 8.605469 21.5 8.640625 21.398438 8.71875 21.347656 L 9.378906 20.921875 L 9.09375 20.257812 C 9.054688 20.167969 9.089844 20.0625 9.171875 20.007812 L 9.832031 19.582031 L 9.546875 18.917969 C 9.507812 18.828125 9.539062 18.722656 9.625 18.667969 L 10.390625 18.179688 L 10.898438 16.652344 C 10.925781 16.578125 10.992188 16.527344 11.070312 16.519531 C 12.148438 16.417969 13.070312 15.6875 13.410156 14.65625 C 13.46875 14.484375 13.511719 14.304688 13.53125 14.128906 C 13.382812 14.363281 13.207031 14.578125 13.003906 14.765625 Z M 8.972656 18.996094 L 7.976562 21.949219 C 7.957031 22 7.921875 22.039062 7.875 22.066406 C 7.824219 22.089844 7.769531 22.09375 7.71875 22.074219 C 7.703125 22.070312 7.683594 22.0625 7.671875 22.050781 C 7.597656 22 7.566406 21.90625 7.59375 21.820312 L 8.589844 18.867188 C 8.609375 18.816406 8.644531 18.773438 8.691406 18.75 C 8.742188 18.726562 8.796875 18.722656 8.847656 18.738281 C 8.863281 18.746094 8.878906 18.753906 8.894531 18.765625 C 8.96875 18.816406 9 18.910156 8.972656 18.996094 Z M 9.238281 18.207031 L 9.195312 18.339844 C 9.160156 18.445312 9.042969 18.5 8.9375 18.464844 C 8.921875 18.460938 8.90625 18.449219 8.890625 18.441406 C 8.816406 18.390625 8.785156 18.296875 8.8125 18.210938 L 8.855469 18.078125 C 8.890625 17.972656 9.007812 17.917969 9.113281 17.953125 C 9.128906 17.957031 9.144531 17.964844 9.160156 17.976562 C 9.234375 18.027344 9.265625 18.121094 9.238281 18.207031 Z M 9.238281 18.207031 " fill-opacity="1" fill-rule="nonzero"/></g><path fill="#940012" d="M 19.648438 16.453125 L 20.335938 17.453125 C 20.339844 17.460938 20.347656 17.464844 20.351562 17.464844 C 20.355469 17.464844 20.363281 17.464844 20.371094 17.460938 L 21.28125 16.832031 L 20.578125 15.8125 Z M 19.648438 16.453125 " fill-opacity="1" fill-rule="nonzero"/><path fill="#940012" d="M 21.625 14.535156 L 20.9375 13.535156 C 20.929688 13.523438 20.914062 13.519531 20.902344 13.527344 L 19.992188 14.15625 L 20.695312 15.175781 Z M 21.625 14.535156 " fill-opacity="1" fill-rule="nonzero"/><path fill="#940012" d="M 21.886719 14.910156 L 20.953125 15.550781 L 21.65625 16.570312 L 22.570312 15.941406 C 22.578125 15.9375 22.578125 15.929688 22.578125 15.925781 C 22.582031 15.921875 22.582031 15.914062 22.574219 15.910156 Z M 21.886719 14.910156 " fill-opacity="1" fill-rule="nonzero"/><path fill="#940012" d="M 19.617188 14.417969 L 18.703125 15.046875 C 18.695312 15.050781 18.695312 15.058594 18.695312 15.0625 C 18.691406 15.066406 18.691406 15.074219 18.699219 15.078125 L 19.386719 16.078125 L 20.320312 15.4375 Z M 19.617188 14.417969 " fill-opacity="1" fill-rule="nonzero"/><g clip-path="url(#f85a360171)"><path fill="#940012" d="M 25.035156 13.816406 L 23.316406 11.324219 L 24.429688 10.5625 L 24.414062 10.542969 L 22 10.144531 C 21.925781 10.117188 21.859375 10.0625 21.816406 9.996094 L 20.121094 7.539062 C 20.027344 7.578125 19.914062 7.546875 19.855469 7.457031 C 19.785156 7.355469 19.8125 7.21875 19.914062 7.148438 L 20.121094 7.003906 L 19.886719 6.664062 L 18.175781 7.84375 L 18.410156 8.183594 L 19.214844 7.628906 C 19.316406 7.558594 19.453125 7.585938 19.523438 7.6875 C 19.589844 7.785156 19.570312 7.917969 19.476562 7.988281 C 19.472656 7.992188 19.472656 7.996094 19.46875 7.996094 L 18.917969 8.378906 L 19.554688 9.304688 L 20.667969 9.484375 C 20.738281 9.496094 20.796875 9.539062 20.832031 9.601562 C 20.851562 9.636719 20.859375 9.675781 20.855469 9.714844 C 20.851562 9.785156 20.816406 9.847656 20.761719 9.890625 C 20.710938 9.921875 20.65625 9.933594 20.597656 9.925781 L 16.316406 9.230469 L 15.78125 11.832031 C 16.167969 11.738281 16.527344 11.601562 16.832031 11.425781 C 16.855469 11.050781 17.085938 10.707031 17.457031 10.550781 C 17.976562 10.332031 18.578125 10.578125 18.796875 11.097656 C 19.015625 11.621094 18.769531 12.21875 18.246094 12.4375 C 18.097656 12.5 17.941406 12.527344 17.789062 12.515625 C 17.542969 12.675781 17.273438 12.820312 16.984375 12.941406 C 16.945312 12.960938 16.902344 12.976562 16.859375 12.992188 C 16.425781 13.160156 15.957031 13.277344 15.472656 13.339844 L 15.285156 14.257812 L 15.277344 14.246094 L 14.675781 17.191406 L 14.6875 17.210938 L 15.753906 16.472656 L 19.0625 21.269531 L 26.59375 16.074219 Z M 22.851562 16.300781 C 22.84375 16.308594 22.835938 16.3125 22.828125 16.316406 L 20.628906 17.835938 C 20.523438 17.910156 20.394531 17.9375 20.269531 17.914062 C 20.144531 17.890625 20.035156 17.820312 19.960938 17.714844 L 18.320312 15.339844 C 18.171875 15.121094 18.226562 14.820312 18.445312 14.671875 L 20.644531 13.152344 C 20.75 13.078125 20.878906 13.050781 21.003906 13.074219 C 21.128906 13.097656 21.238281 13.167969 21.3125 13.273438 L 22.953125 15.648438 C 23.097656 15.859375 23.050781 16.144531 22.851562 16.300781 Z M 22.851562 16.300781 " fill-opacity="1" fill-rule="nonzero"/></g></svg>