<svg xmlns="http://www.w3.org/2000/svg" xmlns:xlink="http://www.w3.org/1999/xlink" width="40" zoomAndPan="magnify" viewBox="0 0 30 30.000001" height="40" preserveAspectRatio="xMidYMid meet" version="1.0"><defs><clipPath id="37f4f960ce"><path d="M 11.15625 8.855469 L 19 8.855469 L 19 16 L 11.15625 16 Z M 11.15625 8.855469 " clip-rule="nonzero"/></clipPath><clipPath id="d0d522c264"><path d="M 6 11 L 21 11 L 21 24.96875 L 6 24.96875 Z M 6 11 " clip-rule="nonzero"/></clipPath><clipPath id="af59078dab"><path d="M 15 1.742188 L 24.085938 1.742188 L 24.085938 11 L 15 11 Z M 15 1.742188 " clip-rule="nonzero"/></clipPath></defs><g clip-path="url(#37f4f960ce)"><path fill="#ffffff" d="M 18.378906 14.625 L 16.261719 13.53125 C 16.261719 13.453125 16.230469 13.378906 16.171875 13.320312 L 16.121094 13.269531 L 16.105469 13.070312 C 16.101562 13.023438 16.097656 12.976562 16.097656 12.929688 C 16.097656 12.632812 16.144531 12.425781 16.292969 12.164062 C 16.292969 12.164062 16.582031 12.121094 16.582031 11.5 C 16.582031 11.078125 16.515625 11.03125 16.472656 11.046875 C 16.589844 10.6875 16.863281 9.582031 16.019531 9.367188 C 16.011719 9.363281 16.003906 9.359375 16 9.351562 C 15.972656 9.300781 15.917969 9.164062 15.71875 9.023438 C 15.472656 8.851562 15.152344 8.8125 14.875 8.925781 C 14.796875 8.957031 14.757812 8.988281 14.757812 8.988281 C 14.757812 8.988281 14.351562 8.929688 14.132812 9.035156 C 14.109375 9.046875 14.109375 9.082031 14.136719 9.09375 C 14.167969 9.105469 14.164062 9.148438 14.132812 9.152344 C 14.097656 9.160156 14.054688 9.167969 14.003906 9.183594 C 13.601562 9.316406 13.339844 9.707031 13.351562 10.136719 C 13.355469 10.390625 13.398438 10.78125 13.503906 11.058594 C 13.464844 11.027344 13.375 11.011719 13.375 11.5 C 13.375 12.121094 13.667969 12.164062 13.667969 12.164062 C 13.816406 12.425781 13.890625 12.632812 13.890625 12.929688 C 13.890625 12.976562 13.890625 13.023438 13.886719 13.070312 L 13.871094 13.269531 L 13.816406 13.320312 C 13.761719 13.378906 13.730469 13.453125 13.730469 13.53125 L 11.613281 14.625 C 11.332031 14.769531 11.15625 15.058594 11.15625 15.375 L 11.15625 15.9375 L 18.835938 15.9375 L 18.835938 15.375 C 18.835938 15.058594 18.65625 14.769531 18.378906 14.625 Z M 18.378906 14.625 " fill-opacity="1" fill-rule="nonzero"/></g><g clip-path="url(#d0d522c264)"><path fill="#940012" d="M 19.832031 11.597656 C 19.246094 11.546875 18.730469 11.976562 18.589844 12.542969 L 18.160156 14.261719 C 17.910156 15.25 17.054688 15.972656 16.03125 16.050781 C 15.066406 16.128906 13.992188 16.167969 12.835938 16.167969 C 12.53125 16.167969 12.222656 16.175781 11.917969 16.195312 C 9.507812 16.332031 7.464844 17.976562 6.832031 20.289062 L 6.089844 23.003906 C 5.941406 23.550781 6.160156 24.160156 6.660156 24.421875 C 6.839844 24.515625 7.027344 24.554688 7.207031 24.554688 C 7.722656 24.554688 8.195312 24.210938 8.339844 23.691406 L 9.101562 20.90625 C 9.261719 20.320312 9.585938 19.8125 10.015625 19.414062 L 9.972656 24.425781 C 9.96875 24.71875 10.207031 24.957031 10.5 24.957031 L 15.167969 24.957031 C 15.460938 24.957031 15.699219 24.71875 15.695312 24.425781 L 15.648438 18.433594 C 15.835938 18.421875 16.03125 18.410156 16.214844 18.394531 C 18.246094 18.234375 19.941406 16.800781 20.433594 14.832031 L 20.878906 13.054688 C 21.054688 12.359375 20.578125 11.660156 19.832031 11.597656 Z M 19.832031 11.597656 " fill-opacity="1" fill-rule="nonzero"/></g><path fill="#940012" d="M 15.445312 12.847656 C 15.445312 13.191406 15.378906 13.527344 15.25 13.847656 C 15.117188 14.164062 14.925781 14.449219 14.683594 14.691406 C 14.4375 14.9375 14.15625 15.125 13.835938 15.257812 C 13.515625 15.390625 13.183594 15.457031 12.835938 15.457031 C 12.488281 15.457031 12.15625 15.390625 11.835938 15.257812 C 11.515625 15.125 11.234375 14.9375 10.988281 14.691406 C 10.746094 14.449219 10.554688 14.164062 10.421875 13.847656 C 10.289062 13.527344 10.222656 13.191406 10.222656 12.847656 C 10.222656 12.5 10.289062 12.167969 10.421875 11.847656 C 10.554688 11.527344 10.746094 11.246094 10.988281 11 C 11.234375 10.753906 11.515625 10.566406 11.835938 10.433594 C 12.15625 10.300781 12.488281 10.234375 12.835938 10.234375 C 13.183594 10.234375 13.515625 10.300781 13.835938 10.433594 C 14.15625 10.566406 14.4375 10.753906 14.683594 11 C 14.925781 11.246094 15.117188 11.527344 15.25 11.847656 C 15.378906 12.167969 15.445312 12.5 15.445312 12.847656 Z M 15.445312 12.847656 " fill-opacity="1" fill-rule="nonzero"/><g clip-path="url(#af59078dab)"><path fill="#940012" d="M 19.941406 1.75 C 17.671875 1.75 15.832031 3.589844 15.832031 5.859375 C 15.832031 6.621094 16.042969 7.328125 16.402344 7.9375 L 15.648438 9.585938 C 15.480469 9.949219 15.855469 10.324219 16.21875 10.15625 L 17.867188 9.402344 C 18.476562 9.761719 19.183594 9.972656 19.941406 9.972656 C 22.210938 9.972656 24.050781 8.132812 24.050781 5.863281 C 24.054688 3.589844 22.210938 1.75 19.941406 1.75 Z M 18.035156 4.695312 C 18.035156 4.328125 18.332031 4.03125 18.695312 4.03125 C 19.0625 4.03125 19.359375 4.332031 19.359375 4.695312 C 19.359375 5.0625 19.0625 5.355469 18.695312 5.355469 C 18.328125 5.359375 18.035156 5.0625 18.035156 4.695312 Z M 21.378906 6.664062 C 21.378906 7.402344 20.785156 7.996094 20.046875 7.996094 L 19.859375 7.996094 C 19.125 7.996094 18.527344 7.402344 18.527344 6.664062 L 18.527344 6.496094 C 18.527344 6.355469 18.640625 6.238281 18.785156 6.238281 L 21.121094 6.238281 C 21.261719 6.238281 21.378906 6.355469 21.378906 6.496094 Z M 21.210938 5.359375 C 20.84375 5.359375 20.546875 5.0625 20.546875 4.699219 C 20.546875 4.332031 20.84375 4.035156 21.210938 4.035156 C 21.574219 4.035156 21.871094 4.332031 21.871094 4.699219 C 21.875 5.0625 21.574219 5.359375 21.210938 5.359375 Z M 21.210938 5.359375 " fill-opacity="1" fill-rule="nonzero"/></g><path fill="#940012" d="M 11.132812 8.757812 C 11.203125 9.019531 11.441406 9.191406 11.699219 9.191406 C 11.75 9.191406 11.800781 9.183594 11.851562 9.171875 C 12.164062 9.089844 12.347656 8.765625 12.265625 8.453125 L 11.933594 7.21875 C 11.851562 6.90625 11.527344 6.71875 11.214844 6.804688 C 10.902344 6.886719 10.71875 7.207031 10.800781 7.519531 Z M 11.132812 8.757812 " fill-opacity="1" fill-rule="nonzero"/><path fill="#940012" d="M 9.316406 10.15625 C 9.429688 10.273438 9.578125 10.328125 9.730469 10.328125 C 9.882812 10.328125 10.03125 10.273438 10.144531 10.15625 C 10.375 9.925781 10.375 9.554688 10.144531 9.328125 L 9.242188 8.421875 C 9.011719 8.191406 8.640625 8.191406 8.410156 8.421875 C 8.183594 8.652344 8.183594 9.023438 8.410156 9.253906 Z M 9.316406 10.15625 " fill-opacity="1" fill-rule="nonzero"/><path fill="#940012" d="M 7.207031 11.945312 L 8.445312 12.277344 C 8.496094 12.292969 8.546875 12.296875 8.59375 12.296875 C 8.855469 12.296875 9.089844 12.125 9.160156 11.863281 C 9.246094 11.550781 9.058594 11.226562 8.746094 11.144531 L 7.511719 10.8125 C 7.195312 10.726562 6.875 10.914062 6.792969 11.226562 C 6.707031 11.539062 6.894531 11.863281 7.207031 11.945312 Z M 7.207031 11.945312 " fill-opacity="1" fill-rule="nonzero"/></svg>