<svg xmlns="http://www.w3.org/2000/svg" xmlns:xlink="http://www.w3.org/1999/xlink" width="40" zoomAndPan="magnify" viewBox="0 0 30 30.000001" height="40" preserveAspectRatio="xMidYMid meet" version="1.0"><defs><clipPath id="09ec15c574"><path d="M 11.15625 8.855469 L 19 8.855469 L 19 16 L 11.15625 16 Z M 11.15625 8.855469 " clip-rule="nonzero"/></clipPath><clipPath id="b593dbae2e"><path d="M 3.8125 6.742188 L 26.183594 6.742188 L 26.183594 24.886719 L 3.8125 24.886719 Z M 3.8125 6.742188 " clip-rule="nonzero"/></clipPath></defs><g clip-path="url(#09ec15c574)"><path fill="#ffffff" d="M 18.378906 14.625 L 16.261719 13.53125 C 16.261719 13.453125 16.230469 13.378906 16.171875 13.320312 L 16.121094 13.269531 L 16.105469 13.070312 C 16.101562 13.023438 16.097656 12.976562 16.097656 12.929688 C 16.097656 12.632812 16.144531 12.425781 16.292969 12.164062 C 16.292969 12.164062 16.582031 12.121094 16.582031 11.5 C 16.582031 11.078125 16.515625 11.03125 16.472656 11.046875 C 16.589844 10.6875 16.863281 9.582031 16.019531 9.367188 C 16.011719 9.363281 16.003906 9.359375 16 9.351562 C 15.972656 9.300781 15.917969 9.164062 15.71875 9.023438 C 15.472656 8.851562 15.152344 8.8125 14.875 8.925781 C 14.796875 8.957031 14.757812 8.988281 14.757812 8.988281 C 14.757812 8.988281 14.351562 8.929688 14.132812 9.035156 C 14.109375 9.046875 14.109375 9.082031 14.136719 9.09375 C 14.167969 9.105469 14.164062 9.148438 14.132812 9.152344 C 14.097656 9.160156 14.054688 9.167969 14.003906 9.183594 C 13.601562 9.316406 13.339844 9.707031 13.351562 10.136719 C 13.355469 10.390625 13.398438 10.78125 13.503906 11.058594 C 13.464844 11.027344 13.375 11.011719 13.375 11.5 C 13.375 12.121094 13.667969 12.164062 13.667969 12.164062 C 13.816406 12.425781 13.890625 12.632812 13.890625 12.929688 C 13.890625 12.976562 13.890625 13.023438 13.886719 13.070312 L 13.871094 13.269531 L 13.816406 13.320312 C 13.761719 13.378906 13.730469 13.453125 13.730469 13.53125 L 11.613281 14.625 C 11.332031 14.769531 11.15625 15.058594 11.15625 15.375 L 11.15625 15.9375 L 18.835938 15.9375 L 18.835938 15.375 C 18.835938 15.058594 18.65625 14.769531 18.378906 14.625 Z M 18.378906 14.625 " fill-opacity="1" fill-rule="nonzero"/></g><path fill="#940012" d="M 6.621094 10.40625 C 6.546875 10.339844 6.453125 10.300781 6.367188 10.292969 C 6.324219 10.292969 6.246094 10.296875 6.195312 10.355469 C 6.105469 10.453125 6.152344 10.648438 6.296875 10.773438 C 6.441406 10.902344 6.636719 10.925781 6.726562 10.828125 C 6.777344 10.769531 6.773438 10.691406 6.765625 10.648438 C 6.75 10.5625 6.699219 10.476562 6.621094 10.40625 " fill-opacity="1" fill-rule="nonzero"/><path fill="#940012" d="M 14.277344 21.199219 C 14.367188 21.171875 14.441406 21.097656 14.484375 20.988281 C 14.53125 20.867188 14.53125 20.722656 14.488281 20.578125 C 14.445312 20.4375 14.359375 20.316406 14.25 20.242188 C 14.15625 20.179688 14.054688 20.160156 13.960938 20.1875 C 13.761719 20.25 13.664062 20.535156 13.75 20.808594 C 13.835938 21.082031 14.078125 21.261719 14.277344 21.199219 " fill-opacity="1" fill-rule="nonzero"/><path fill="#940012" d="M 10.746094 10.773438 C 10.890625 10.648438 10.9375 10.453125 10.847656 10.355469 C 10.8125 10.3125 10.757812 10.292969 10.691406 10.292969 C 10.605469 10.292969 10.503906 10.332031 10.421875 10.40625 C 10.277344 10.535156 10.230469 10.726562 10.316406 10.828125 C 10.40625 10.925781 10.601562 10.902344 10.746094 10.773438 " fill-opacity="1" fill-rule="nonzero"/><path fill="#940012" d="M 20.445312 9.984375 C 20.535156 9.957031 20.609375 9.882812 20.652344 9.773438 C 20.699219 9.652344 20.699219 9.507812 20.65625 9.363281 C 20.613281 9.222656 20.527344 9.101562 20.417969 9.027344 C 20.324219 8.964844 20.222656 8.945312 20.128906 8.972656 C 19.929688 9.035156 19.835938 9.320312 19.917969 9.59375 C 20.003906 9.867188 20.246094 10.046875 20.445312 9.984375 " fill-opacity="1" fill-rule="nonzero"/><path fill="#940012" d="M 7.734375 9.984375 C 7.824219 9.957031 7.898438 9.882812 7.941406 9.773438 C 7.988281 9.652344 7.992188 9.507812 7.945312 9.363281 C 7.902344 9.222656 7.816406 9.101562 7.707031 9.027344 C 7.613281 8.964844 7.511719 8.945312 7.417969 8.972656 C 7.21875 9.035156 7.125 9.320312 7.210938 9.59375 C 7.292969 9.867188 7.535156 10.046875 7.734375 9.984375 " fill-opacity="1" fill-rule="nonzero"/><path fill="#940012" d="M 9.210938 9.984375 C 9.410156 10.046875 9.652344 9.867188 9.738281 9.59375 C 9.78125 9.449219 9.78125 9.304688 9.734375 9.183594 C 9.691406 9.074219 9.617188 9 9.527344 8.972656 C 9.5 8.964844 9.472656 8.960938 9.445312 8.960938 C 9.265625 8.960938 9.074219 9.125 9.003906 9.363281 C 8.917969 9.636719 9.011719 9.921875 9.210938 9.984375 " fill-opacity="1" fill-rule="nonzero"/><path fill="#940012" d="M 21.230469 12.699219 C 21.757812 12.699219 22.1875 12.269531 22.1875 11.738281 C 22.1875 11.210938 21.757812 10.78125 21.230469 10.78125 C 20.699219 10.78125 20.269531 11.210938 20.269531 11.738281 C 20.269531 12.269531 20.699219 12.699219 21.230469 12.699219 " fill-opacity="1" fill-rule="nonzero"/><path fill="#940012" d="M 21.921875 9.984375 C 22.121094 10.046875 22.363281 9.867188 22.449219 9.59375 C 22.492188 9.449219 22.492188 9.304688 22.445312 9.183594 C 22.402344 9.074219 22.328125 9 22.238281 8.972656 C 22.210938 8.964844 22.183594 8.960938 22.15625 8.960938 C 21.976562 8.960938 21.785156 9.125 21.710938 9.363281 C 21.625 9.636719 21.722656 9.921875 21.921875 9.984375 " fill-opacity="1" fill-rule="nonzero"/><path fill="#940012" d="M 8.519531 12.699219 C 9.046875 12.699219 9.476562 12.269531 9.476562 11.738281 C 9.476562 11.210938 9.046875 10.78125 8.519531 10.78125 C 7.992188 10.78125 7.558594 11.210938 7.558594 11.738281 C 7.558594 12.269531 7.992188 12.699219 8.519531 12.699219 " fill-opacity="1" fill-rule="nonzero"/><path fill="#940012" d="M 10.601562 16.207031 L 9.683594 16.207031 L 9.683594 17.097656 L 10.601562 17.097656 C 10.847656 17.097656 11.046875 16.898438 11.046875 16.652344 C 11.046875 16.40625 10.847656 16.207031 10.601562 16.207031 " fill-opacity="1" fill-rule="nonzero"/><path fill="#940012" d="M 23.402344 10.292969 C 23.316406 10.292969 23.214844 10.332031 23.128906 10.40625 C 22.988281 10.535156 22.941406 10.726562 23.027344 10.828125 C 23.117188 10.925781 23.3125 10.902344 23.457031 10.773438 C 23.601562 10.648438 23.648438 10.453125 23.558594 10.355469 C 23.523438 10.3125 23.464844 10.292969 23.402344 10.292969 " fill-opacity="1" fill-rule="nonzero"/><g clip-path="url(#b593dbae2e)"><path fill="#940012" d="M 23.707031 11.054688 C 23.550781 11.191406 23.363281 11.261719 23.183594 11.261719 C 23.015625 11.261719 22.859375 11.199219 22.75 11.074219 C 22.523438 10.820312 22.582031 10.394531 22.882812 10.128906 C 23.183594 9.863281 23.609375 9.851562 23.839844 10.105469 C 24.066406 10.363281 24.003906 10.785156 23.707031 11.054688 Z M 22.652344 16.074219 L 22.019531 17.34375 L 22.019531 18.390625 C 22.019531 18.496094 21.9375 18.578125 21.832031 18.578125 C 21.730469 18.578125 21.644531 18.496094 21.644531 18.390625 L 21.644531 17.308594 L 21.027344 16.074219 C 20.980469 15.980469 21.019531 15.867188 21.109375 15.820312 C 21.203125 15.777344 21.316406 15.8125 21.359375 15.90625 L 21.839844 16.863281 L 22.320312 15.90625 C 22.367188 15.8125 22.476562 15.777344 22.570312 15.820312 C 22.664062 15.867188 22.699219 15.980469 22.652344 16.074219 Z M 21.042969 18.578125 L 19.933594 18.578125 C 19.832031 18.578125 19.746094 18.496094 19.746094 18.390625 L 19.746094 16.019531 C 19.746094 15.917969 19.832031 15.832031 19.933594 15.832031 C 20.039062 15.832031 20.121094 15.917969 20.121094 16.019531 L 20.121094 18.207031 L 21.042969 18.207031 C 21.144531 18.207031 21.226562 18.289062 21.226562 18.390625 C 21.226562 18.496094 21.144531 18.578125 21.042969 18.578125 Z M 19.277344 11.261719 C 19.101562 11.261719 18.914062 11.191406 18.757812 11.054688 C 18.457031 10.785156 18.398438 10.363281 18.625 10.105469 C 18.738281 9.980469 18.910156 9.910156 19.097656 9.921875 C 19.269531 9.929688 19.441406 10.003906 19.582031 10.128906 C 19.722656 10.253906 19.8125 10.414062 19.84375 10.585938 C 19.875 10.769531 19.828125 10.949219 19.714844 11.074219 C 19.605469 11.199219 19.445312 11.261719 19.277344 11.261719 Z M 18.984375 18.179688 C 18.710938 18.445312 18.378906 18.578125 17.996094 18.578125 L 17.496094 18.578125 C 17.421875 18.578125 17.355469 18.550781 17.300781 18.5 C 17.246094 18.445312 17.21875 18.375 17.21875 18.300781 L 17.21875 16.113281 C 17.21875 16.035156 17.246094 15.964844 17.300781 15.914062 C 17.355469 15.859375 17.421875 15.832031 17.496094 15.832031 L 17.996094 15.832031 C 18.378906 15.832031 18.710938 15.96875 18.984375 16.234375 C 19.257812 16.5 19.394531 16.828125 19.394531 17.207031 C 19.394531 17.585938 19.257812 17.910156 18.984375 18.179688 Z M 17.539062 22.269531 C 17.382812 22.40625 17.195312 22.476562 17.015625 22.476562 C 16.847656 22.476562 16.691406 22.414062 16.582031 22.289062 C 16.355469 22.035156 16.414062 21.609375 16.714844 21.34375 C 17.011719 21.074219 17.441406 21.066406 17.667969 21.320312 C 17.898438 21.578125 17.835938 22 17.539062 22.269531 Z M 15.835938 21.585938 C 15.769531 21.585938 15.707031 21.574219 15.644531 21.554688 C 15.242188 21.429688 15.039062 20.941406 15.1875 20.46875 C 15.335938 19.992188 15.78125 19.703125 16.179688 19.828125 C 16.382812 19.894531 16.539062 20.046875 16.625 20.261719 C 16.703125 20.460938 16.707031 20.695312 16.636719 20.917969 C 16.511719 21.320312 16.175781 21.585938 15.835938 21.585938 Z M 15.0625 24.285156 C 14.324219 24.285156 13.726562 23.6875 13.726562 22.953125 C 13.726562 22.21875 14.324219 21.621094 15.0625 21.621094 C 15.796875 21.621094 16.394531 22.21875 16.394531 22.953125 C 16.394531 23.6875 15.796875 24.285156 15.0625 24.285156 Z M 13.546875 22.289062 C 13.4375 22.414062 13.277344 22.476562 13.109375 22.476562 C 12.933594 22.476562 12.746094 22.40625 12.589844 22.269531 C 12.289062 22 12.230469 21.578125 12.457031 21.320312 C 12.570312 21.195312 12.742188 21.125 12.929688 21.136719 C 13.101562 21.144531 13.273438 21.21875 13.414062 21.34375 C 13.554688 21.46875 13.644531 21.628906 13.675781 21.800781 C 13.707031 21.984375 13.660156 22.164062 13.546875 22.289062 Z M 12.054688 14.597656 C 12.054688 14.699219 11.972656 14.785156 11.867188 14.785156 C 11.765625 14.785156 11.679688 14.699219 11.679688 14.597656 L 11.679688 12.320312 C 11.679688 12.246094 11.710938 12.171875 11.761719 12.121094 C 11.816406 12.066406 11.886719 12.039062 11.964844 12.039062 L 12.480469 12.039062 C 12.757812 12.039062 12.992188 12.132812 13.183594 12.324219 C 13.378906 12.511719 13.476562 12.742188 13.476562 13.015625 C 13.476562 13.285156 13.378906 13.515625 13.183594 13.707031 C 12.992188 13.898438 12.753906 13.992188 12.480469 13.992188 L 12.054688 13.992188 Z M 12.054688 18.390625 C 12.054688 18.496094 11.972656 18.578125 11.867188 18.578125 C 11.765625 18.578125 11.679688 18.496094 11.679688 18.390625 L 11.679688 16.019531 C 11.679688 15.917969 11.765625 15.832031 11.867188 15.832031 C 11.972656 15.832031 12.054688 15.917969 12.054688 16.019531 Z M 11.304688 18.257812 C 11.351562 18.347656 11.316406 18.460938 11.226562 18.507812 C 11.132812 18.558594 11.019531 18.523438 10.972656 18.433594 L 10.464844 17.472656 L 9.683594 17.472656 L 9.683594 18.390625 C 9.683594 18.496094 9.597656 18.578125 9.496094 18.578125 C 9.394531 18.578125 9.308594 18.496094 9.308594 18.390625 L 9.308594 16.019531 C 9.308594 15.917969 9.394531 15.832031 9.496094 15.832031 L 10.601562 15.832031 C 11.054688 15.832031 11.421875 16.199219 11.421875 16.652344 C 11.421875 17.011719 11.1875 17.320312 10.863281 17.429688 Z M 8.863281 16.207031 L 7.785156 16.207031 L 7.785156 17.097656 L 8.707031 17.097656 C 8.808594 17.097656 8.890625 17.183594 8.890625 17.285156 C 8.890625 17.390625 8.808594 17.472656 8.707031 17.472656 L 7.785156 17.472656 L 7.785156 18.390625 C 7.785156 18.496094 7.703125 18.578125 7.597656 18.578125 C 7.496094 18.578125 7.410156 18.496094 7.410156 18.390625 L 7.410156 16.109375 C 7.410156 16.035156 7.441406 15.964844 7.492188 15.914062 C 7.542969 15.863281 7.613281 15.832031 7.6875 15.832031 L 8.863281 15.832031 C 8.964844 15.832031 9.050781 15.917969 9.050781 16.019531 C 9.050781 16.125 8.964844 16.207031 8.863281 16.207031 Z M 8.519531 10.40625 C 9.253906 10.40625 9.851562 11.003906 9.851562 11.738281 C 9.851562 12.472656 9.253906 13.070312 8.519531 13.070312 C 7.785156 13.070312 7.1875 12.472656 7.1875 11.738281 C 7.1875 11.003906 7.785156 10.40625 8.519531 10.40625 Z M 7.003906 11.074219 C 6.894531 11.199219 6.734375 11.261719 6.570312 11.261719 C 6.390625 11.261719 6.203125 11.191406 6.046875 11.054688 C 5.746094 10.785156 5.6875 10.363281 5.914062 10.105469 C 6.027344 9.980469 6.199219 9.910156 6.386719 9.921875 C 6.558594 9.929688 6.730469 10.003906 6.871094 10.128906 C 7.011719 10.253906 7.105469 10.414062 7.132812 10.585938 C 7.164062 10.769531 7.117188 10.949219 7.003906 11.074219 Z M 7.308594 8.613281 C 7.511719 8.550781 7.726562 8.589844 7.917969 8.71875 C 8.097656 8.839844 8.234375 9.027344 8.304688 9.253906 C 8.371094 9.476562 8.367188 9.707031 8.289062 9.910156 C 8.207031 10.125 8.046875 10.277344 7.847656 10.339844 C 7.78125 10.359375 7.71875 10.371094 7.652344 10.371094 C 7.3125 10.371094 6.976562 10.105469 6.851562 9.703125 C 6.703125 9.226562 6.910156 8.738281 7.308594 8.613281 Z M 8.644531 9.253906 C 8.792969 8.777344 9.238281 8.492188 9.640625 8.613281 C 9.839844 8.679688 9.996094 8.832031 10.082031 9.046875 C 10.160156 9.246094 10.164062 9.480469 10.09375 9.703125 C 9.972656 10.105469 9.636719 10.371094 9.292969 10.371094 C 9.230469 10.371094 9.164062 10.359375 9.101562 10.339844 C 8.703125 10.214844 8.496094 9.726562 8.644531 9.253906 Z M 11.128906 10.105469 C 11.355469 10.363281 11.296875 10.785156 10.996094 11.054688 C 10.839844 11.191406 10.652344 11.261719 10.472656 11.261719 C 10.308594 11.261719 10.148438 11.199219 10.039062 11.074219 C 9.8125 10.820312 9.871094 10.394531 10.171875 10.128906 C 10.472656 9.863281 10.902344 9.851562 11.128906 10.105469 Z M 13.738281 12.316406 C 13.738281 12.242188 13.765625 12.171875 13.820312 12.117188 C 13.871094 12.066406 13.941406 12.039062 14.015625 12.039062 L 15.507812 12.039062 C 15.609375 12.039062 15.691406 12.121094 15.691406 12.222656 C 15.691406 12.328125 15.609375 12.410156 15.507812 12.410156 L 14.113281 12.410156 L 14.113281 13.144531 L 15.191406 13.144531 C 15.292969 13.144531 15.375 13.226562 15.375 13.332031 C 15.375 13.433594 15.292969 13.519531 15.191406 13.519531 L 14.113281 13.519531 L 14.113281 14.410156 L 15.507812 14.410156 C 15.609375 14.410156 15.691406 14.492188 15.691406 14.597656 C 15.691406 14.699219 15.609375 14.785156 15.507812 14.785156 L 14.015625 14.785156 C 13.941406 14.785156 13.871094 14.753906 13.820312 14.703125 C 13.765625 14.648438 13.738281 14.578125 13.738281 14.503906 Z M 14.875 18.578125 C 14.769531 18.578125 14.6875 18.496094 14.6875 18.390625 L 14.6875 16.113281 C 14.6875 16.035156 14.714844 15.964844 14.769531 15.914062 C 14.878906 15.800781 15.082031 15.808594 15.183594 15.933594 L 16.425781 17.765625 L 16.425781 16.019531 C 16.425781 15.917969 16.507812 15.832031 16.613281 15.832031 C 16.714844 15.832031 16.800781 15.917969 16.800781 16.019531 L 16.800781 18.375 C 16.800781 18.457031 16.746094 18.527344 16.667969 18.550781 C 16.589844 18.574219 16.503906 18.546875 16.457031 18.476562 L 15.058594 16.417969 L 15.058594 18.390625 C 15.058594 18.496094 14.976562 18.578125 14.875 18.578125 Z M 13.925781 16.941406 C 14.027344 16.941406 14.113281 17.023438 14.113281 17.128906 C 14.113281 17.230469 14.027344 17.3125 13.925781 17.3125 L 12.847656 17.3125 L 12.847656 18.207031 L 14.242188 18.207031 C 14.34375 18.207031 14.425781 18.289062 14.425781 18.390625 C 14.425781 18.496094 14.34375 18.578125 14.242188 18.578125 L 12.75 18.578125 C 12.675781 18.578125 12.605469 18.550781 12.554688 18.5 C 12.5 18.445312 12.472656 18.375 12.472656 18.300781 L 12.472656 16.113281 C 12.472656 16.039062 12.5 15.96875 12.554688 15.914062 C 12.605469 15.863281 12.675781 15.832031 12.75 15.832031 L 14.242188 15.832031 C 14.34375 15.832031 14.425781 15.917969 14.425781 16.019531 C 14.425781 16.125 14.34375 16.207031 14.242188 16.207031 L 12.847656 16.207031 L 12.847656 16.941406 Z M 13.851562 19.828125 C 14.050781 19.765625 14.269531 19.804688 14.460938 19.933594 C 14.640625 20.054688 14.773438 20.242188 14.84375 20.46875 C 14.914062 20.691406 14.910156 20.921875 14.832031 21.125 C 14.746094 21.339844 14.589844 21.492188 14.386719 21.554688 C 14.324219 21.574219 14.261719 21.585938 14.195312 21.585938 C 13.855469 21.585938 13.519531 21.320312 13.394531 20.917969 C 13.246094 20.441406 13.449219 19.953125 13.851562 19.828125 Z M 16.136719 12.039062 L 18.035156 12.039062 C 18.140625 12.039062 18.222656 12.121094 18.222656 12.222656 C 18.222656 12.328125 18.140625 12.410156 18.035156 12.410156 L 17.273438 12.410156 L 17.273438 14.621094 C 17.273438 14.722656 17.191406 14.804688 17.085938 14.804688 C 16.984375 14.804688 16.902344 14.722656 16.902344 14.621094 L 16.902344 12.410156 L 16.136719 12.410156 C 16.035156 12.410156 15.953125 12.328125 15.953125 12.222656 C 15.953125 12.121094 16.035156 12.039062 16.136719 12.039062 Z M 20.019531 8.613281 C 20.21875 8.550781 20.4375 8.589844 20.628906 8.71875 C 20.808594 8.839844 20.945312 9.027344 21.011719 9.253906 C 21.082031 9.476562 21.078125 9.707031 21 9.910156 C 20.914062 10.125 20.757812 10.277344 20.558594 10.339844 C 20.492188 10.359375 20.429688 10.371094 20.363281 10.371094 C 20.023438 10.371094 19.6875 10.105469 19.5625 9.703125 C 19.414062 9.226562 19.617188 8.738281 20.019531 8.613281 Z M 22.5625 11.738281 C 22.5625 12.472656 21.964844 13.070312 21.230469 13.070312 C 20.492188 13.070312 19.898438 12.472656 19.898438 11.738281 C 19.898438 11.003906 20.492188 10.40625 21.230469 10.40625 C 21.964844 10.40625 22.5625 11.003906 22.5625 11.738281 Z M 21.355469 9.253906 C 21.503906 8.777344 21.949219 8.492188 22.347656 8.613281 C 22.550781 8.679688 22.707031 8.832031 22.792969 9.046875 C 22.871094 9.246094 22.875 9.480469 22.804688 9.703125 C 22.679688 10.105469 22.34375 10.371094 22.003906 10.371094 C 21.941406 10.371094 21.875 10.359375 21.8125 10.339844 C 21.410156 10.214844 21.207031 9.726562 21.355469 9.253906 Z M 20.636719 6.742188 C 18 6.742188 15.707031 8.613281 15.179688 11.191406 C 15.164062 11.28125 15.085938 11.34375 15 11.34375 C 14.910156 11.34375 14.832031 11.28125 14.816406 11.191406 C 14.289062 8.613281 11.996094 6.742188 9.359375 6.742188 C 6.820312 6.742188 4.601562 8.460938 3.96875 10.917969 C 3.777344 11.664062 3.761719 12.484375 3.929688 13.355469 C 4.386719 15.742188 6.378906 21.664062 14.972656 25.136719 C 14.980469 25.140625 14.988281 25.144531 15 25.148438 C 15.007812 25.144531 15.015625 25.140625 15.027344 25.136719 C 23.617188 21.664062 25.609375 15.742188 26.066406 13.355469 C 26.234375 12.484375 26.21875 11.664062 26.027344 10.917969 C 25.394531 8.460938 23.179688 6.742188 20.636719 6.742188 " fill-opacity="1" fill-rule="nonzero"/></g><path fill="#940012" d="M 13.164062 21.621094 C 13.089844 21.554688 12.996094 21.515625 12.910156 21.507812 C 12.867188 21.507812 12.789062 21.511719 12.738281 21.570312 C 12.648438 21.667969 12.695312 21.863281 12.839844 21.988281 C 12.980469 22.117188 13.179688 22.140625 13.265625 22.042969 C 13.320312 21.984375 13.3125 21.90625 13.308594 21.863281 C 13.292969 21.777344 13.242188 21.691406 13.164062 21.621094 " fill-opacity="1" fill-rule="nonzero"/><path fill="#940012" d="M 12.921875 13.441406 C 13.042969 13.320312 13.105469 13.183594 13.105469 13.015625 C 13.105469 12.847656 13.046875 12.707031 12.921875 12.59375 C 12.800781 12.46875 12.65625 12.410156 12.480469 12.410156 L 12.054688 12.410156 L 12.054688 13.617188 L 12.480469 13.617188 C 12.65625 13.617188 12.800781 13.5625 12.921875 13.441406 " fill-opacity="1" fill-rule="nonzero"/><path fill="#940012" d="M 15.0625 21.996094 C 14.53125 21.996094 14.101562 22.425781 14.101562 22.953125 C 14.101562 23.484375 14.53125 23.914062 15.0625 23.914062 C 15.589844 23.914062 16.019531 23.484375 16.019531 22.953125 C 16.019531 22.425781 15.589844 21.996094 15.0625 21.996094 " fill-opacity="1" fill-rule="nonzero"/><path fill="#940012" d="M 19.332031 10.40625 C 19.257812 10.339844 19.164062 10.300781 19.078125 10.292969 C 19.035156 10.292969 18.957031 10.296875 18.90625 10.355469 C 18.816406 10.453125 18.863281 10.648438 19.007812 10.773438 C 19.148438 10.902344 19.347656 10.925781 19.433594 10.828125 C 19.488281 10.769531 19.480469 10.691406 19.476562 10.648438 C 19.460938 10.5625 19.410156 10.476562 19.332031 10.40625 " fill-opacity="1" fill-rule="nonzero"/><path fill="#940012" d="M 17.996094 16.207031 L 17.589844 16.207031 L 17.589844 18.207031 L 17.996094 18.207031 C 18.28125 18.207031 18.519531 18.109375 18.722656 17.910156 C 18.925781 17.714844 19.023438 17.484375 19.023438 17.207031 C 19.023438 16.929688 18.925781 16.699219 18.722656 16.503906 C 18.519531 16.304688 18.28125 16.207031 17.996094 16.207031 " fill-opacity="1" fill-rule="nonzero"/><path fill="#940012" d="M 17.234375 21.507812 C 17.148438 21.507812 17.046875 21.546875 16.960938 21.621094 C 16.820312 21.75 16.773438 21.941406 16.859375 22.042969 C 16.949219 22.140625 17.144531 22.117188 17.289062 21.988281 C 17.433594 21.863281 17.480469 21.667969 17.390625 21.570312 C 17.355469 21.527344 17.296875 21.507812 17.234375 21.507812 " fill-opacity="1" fill-rule="nonzero"/><path fill="#940012" d="M 16.070312 20.1875 C 16.042969 20.179688 16.015625 20.175781 15.988281 20.175781 C 15.808594 20.175781 15.617188 20.339844 15.542969 20.578125 C 15.457031 20.851562 15.554688 21.136719 15.753906 21.199219 C 15.953125 21.261719 16.195312 21.082031 16.28125 20.808594 C 16.324219 20.664062 16.324219 20.519531 16.277344 20.398438 C 16.234375 20.289062 16.160156 20.214844 16.070312 20.1875 " fill-opacity="1" fill-rule="nonzero"/></svg>