<svg xmlns="http://www.w3.org/2000/svg" xmlns:xlink="http://www.w3.org/1999/xlink" width="40" zoomAndPan="magnify" viewBox="0 0 30 30.000001" height="40" preserveAspectRatio="xMidYMid meet" version="1.0"><defs><clipPath id="358f470355"><path d="M 11.15625 8.855469 L 19 8.855469 L 19 16 L 11.15625 16 Z M 11.15625 8.855469 " clip-rule="nonzero"/></clipPath><clipPath id="38a82ed3d9"><path d="M 5.527344 2.902344 L 25.125 2.902344 L 25.125 26.128906 L 5.527344 26.128906 Z M 5.527344 2.902344 " clip-rule="nonzero"/></clipPath><clipPath id="bb410246b6"><path d="M 5.527344 9 L 16 9 L 16 18 L 5.527344 18 Z M 5.527344 9 " clip-rule="nonzero"/></clipPath><clipPath id="81720ecbd2"><path d="M 5.527344 18 L 21 18 L 21 26 L 5.527344 26 Z M 5.527344 18 " clip-rule="nonzero"/></clipPath></defs><g clip-path="url(#358f470355)"><path fill="#ffffff" d="M 18.378906 14.625 L 16.261719 13.53125 C 16.261719 13.453125 16.230469 13.378906 16.171875 13.320312 L 16.121094 13.269531 L 16.105469 13.070312 C 16.101562 13.023438 16.097656 12.976562 16.097656 12.929688 C 16.097656 12.632812 16.144531 12.425781 16.292969 12.164062 C 16.292969 12.164062 16.582031 12.121094 16.582031 11.5 C 16.582031 11.078125 16.515625 11.03125 16.472656 11.046875 C 16.589844 10.6875 16.863281 9.582031 16.019531 9.367188 C 16.011719 9.363281 16.003906 9.359375 16 9.351562 C 15.972656 9.300781 15.917969 9.164062 15.71875 9.023438 C 15.472656 8.851562 15.152344 8.8125 14.875 8.925781 C 14.796875 8.957031 14.757812 8.988281 14.757812 8.988281 C 14.757812 8.988281 14.351562 8.929688 14.132812 9.035156 C 14.109375 9.046875 14.109375 9.082031 14.136719 9.09375 C 14.167969 9.105469 14.164062 9.148438 14.132812 9.152344 C 14.097656 9.160156 14.054688 9.167969 14.003906 9.183594 C 13.601562 9.316406 13.339844 9.707031 13.351562 10.136719 C 13.355469 10.390625 13.398438 10.78125 13.503906 11.058594 C 13.464844 11.027344 13.375 11.011719 13.375 11.5 C 13.375 12.121094 13.667969 12.164062 13.667969 12.164062 C 13.816406 12.425781 13.890625 12.632812 13.890625 12.929688 C 13.890625 12.976562 13.890625 13.023438 13.886719 13.070312 L 13.871094 13.269531 L 13.816406 13.320312 C 13.761719 13.378906 13.730469 13.453125 13.730469 13.53125 L 11.613281 14.625 C 11.332031 14.769531 11.15625 15.058594 11.15625 15.375 L 11.15625 15.9375 L 18.835938 15.9375 L 18.835938 15.375 C 18.835938 15.058594 18.65625 14.769531 18.378906 14.625 Z M 18.378906 14.625 " fill-opacity="1" fill-rule="nonzero"/></g><g clip-path="url(#38a82ed3d9)"><path fill="#940012" d="M 19.753906 25.226562 C 19.742188 25.230469 19.734375 25.246094 19.738281 25.257812 C 20.210938 26.867188 8.660156 26.523438 6.066406 21.679688 C 5.601562 20.8125 5.542969 19.761719 5.988281 18.882812 C 6.210938 18.441406 6.570312 18.121094 6.96875 17.84375 C 7.050781 17.789062 7.011719 17.625 7.300781 17.097656 C 7.589844 16.5625 7.589844 16.566406 7.566406 16.570312 C 7.167969 16.605469 6.742188 16.496094 6.398438 16.308594 C 5.472656 15.8125 5.40625 14.777344 5.644531 13.871094 C 5.933594 12.792969 6.507812 11.578125 7.332031 10.824219 C 7.875 10.328125 8.328125 10.285156 8.449219 10.191406 C 9.246094 9.566406 10.1875 9.28125 11.296875 9.441406 C 11.347656 9.449219 11.320312 9.375 11.394531 9.144531 C 11.667969 8.316406 11.554688 8.199219 11.597656 7.738281 C 11.789062 5.636719 13.824219 3.234375 16.613281 2.941406 C 18.226562 2.773438 19.734375 3.28125 20.800781 4.164062 C 23.289062 6.226562 22.882812 9.84375 22.859375 11.324219 C 22.820312 13.953125 24.765625 13.949219 25.148438 16.726562 C 25.332031 18.046875 25.074219 19.375 24.167969 20.371094 C 24.054688 20.492188 24.089844 21.1875 23.445312 22.046875 C 22.242188 23.648438 20.59375 23.859375 20.640625 23.945312 C 20.824219 24.277344 20.453125 24.507812 20.199219 24.609375 C 20.152344 24.628906 20.53125 24.992188 19.753906 25.226562 Z M 19.753906 25.226562 " fill-opacity="1" fill-rule="nonzero"/></g><path fill="#ffffff" d="M 17.460938 13.796875 C 17.535156 13.289062 17.042969 13.808594 15.839844 13.695312 C 15.019531 13.621094 14.597656 13.214844 14.417969 12.625 C 14.21875 11.972656 13.882812 10.402344 12.109375 9.65625 C 12.097656 9.652344 12.09375 9.640625 12.09375 9.628906 C 12.203125 8.941406 12.375 7.96875 12.597656 7.308594 C 12.640625 7.183594 13.664062 7.605469 15.304688 6.21875 C 15.324219 6.203125 15.316406 6.222656 15.460938 6.457031 C 16.277344 7.789062 17.839844 8.746094 19.34375 8.511719 C 19.394531 8.503906 19.332031 8.664062 19.480469 9.707031 C 19.492188 9.796875 19.570312 10.273438 19.628906 10.328125 C 19.714844 10.40625 19.707031 10.125 20.070312 9.859375 C 20.628906 9.449219 21.175781 9.863281 21.164062 10.492188 C 21.15625 11.046875 20.882812 11.632812 20.339844 11.828125 C 19.835938 12.011719 19.675781 11.628906 19.59375 11.785156 C 19.347656 12.25 19.027344 12.683594 18.589844 12.980469 C 18.496094 13.046875 18.46875 13.113281 18.464844 13.222656 C 18.433594 13.871094 18.625 14.460938 18.71875 14.867188 C 18.730469 14.925781 18.472656 14.859375 17.699219 15.089844 C 17.621094 15.113281 17.601562 14.9375 17.039062 14.515625 C 17.011719 14.496094 17.402344 14.191406 17.460938 13.796875 Z M 17.460938 13.796875 " fill-opacity="1" fill-rule="nonzero"/><g clip-path="url(#bb410246b6)"><path fill="#ffffff" d="M 13.996094 13.390625 C 13.996094 13.398438 13.988281 13.402344 13.980469 13.398438 C 13.679688 13.226562 13.410156 13.058594 13.257812 12.75 C 13.171875 12.578125 12.859375 12.691406 13.066406 13.023438 C 13.394531 13.539062 13.898438 13.652344 15.046875 14.257812 C 15.0625 14.265625 15.050781 14.289062 15.039062 14.285156 C 15.015625 14.277344 14.988281 14.269531 14.949219 14.269531 C 14.339844 14.265625 13.816406 14.273438 13.652344 14.484375 C 13.492188 14.6875 13.65625 14.988281 13.804688 15.152344 C 14.023438 15.398438 14.304688 15.542969 14.597656 15.691406 C 14.675781 15.730469 14.234375 17.789062 11.855469 16.878906 C 10.660156 16.425781 10.53125 15.921875 10.34375 16.148438 C 10.230469 16.285156 10.402344 16.414062 10.515625 16.496094 C 11.609375 17.28125 12.292969 17.285156 12.28125 17.34375 C 12.199219 17.757812 12.238281 17.832031 12.203125 17.839844 C 12.089844 17.878906 11.484375 17.941406 10.832031 17.890625 C 10.289062 17.847656 9.527344 17.679688 9.128906 17.558594 C 8.613281 17.398438 8.175781 17.222656 7.789062 16.890625 C 7.777344 16.878906 7.773438 16.859375 7.78125 16.84375 C 8 16.46875 7.984375 16.480469 8.023438 16.46875 C 9.148438 16.074219 9.296875 14.816406 9.316406 13.339844 C 9.324219 12.894531 9.308594 11.976562 9.269531 11.707031 C 9.226562 11.4375 8.953125 11.511719 8.96875 11.714844 C 9.023438 12.472656 9.03125 13.132812 8.996094 13.890625 C 8.945312 14.910156 8.78125 15.714844 8.167969 16.070312 C 7.46875 16.476562 6.535156 16.207031 6.140625 15.707031 C 5.394531 14.761719 6.222656 12.859375 6.878906 11.847656 C 7.28125 11.234375 7.816406 10.691406 8.53125 10.53125 C 8.664062 10.5 8.738281 10.296875 9.214844 10.066406 C 11.113281 9.144531 13.472656 10.054688 14.035156 12.464844 C 14.113281 12.8125 14.039062 12.761719 13.996094 13.394531 Z M 13.996094 13.390625 " fill-opacity="1" fill-rule="nonzero"/></g><path fill="#ffffff" d="M 16.273438 21.488281 C 16.261719 21.488281 16.25 21.476562 16.253906 21.464844 C 16.386719 20.933594 16.601562 20.445312 16.898438 19.996094 C 17.015625 19.816406 16.800781 19.859375 16.421875 19.433594 C 15.625 18.542969 15.6875 17.414062 16.164062 16.507812 C 16.222656 16.394531 16.15625 16.339844 16.140625 15.800781 C 16.128906 15.40625 16.1875 14.777344 16.296875 14.5 C 16.324219 14.4375 16.40625 14.472656 16.46875 14.507812 C 17.445312 15.066406 17.421875 15.492188 17.707031 15.40625 C 18.886719 15.050781 19.738281 15.160156 20.085938 15.15625 C 20.132812 15.15625 20.164062 15.136719 20.195312 15.09375 C 20.769531 14.265625 21.621094 13.867188 21.703125 14.007812 C 21.859375 14.28125 21.996094 14.996094 21.808594 15.742188 C 21.800781 15.777344 21.792969 15.847656 21.816406 15.875 C 22.273438 16.425781 22.574219 17.265625 22.433594 18.175781 C 22.089844 20.378906 18.863281 21.691406 16.273438 21.488281 Z M 16.273438 21.488281 " fill-opacity="1" fill-rule="nonzero"/><path fill="#ffffff" d="M 13.871094 17.226562 C 13.8125 17.199219 14.691406 16.96875 14.917969 15.742188 C 14.921875 15.730469 14.929688 15.71875 14.941406 15.714844 C 15.160156 15.65625 15.410156 15.515625 15.507812 15.300781 C 15.535156 15.246094 15.65625 15.964844 15.21875 16.566406 C 14.773438 17.171875 13.996094 17.28125 13.871094 17.226562 Z M 13.871094 17.226562 " fill-opacity="1" fill-rule="nonzero"/><path fill="#ffffff" d="M 12.179688 18.152344 C 12.222656 18.144531 12.167969 18.277344 12.261719 18.566406 C 12.292969 18.664062 9.589844 19.101562 7.441406 17.625 C 7.421875 17.613281 7.414062 17.589844 7.425781 17.566406 C 7.632812 17.132812 7.625 17.128906 7.640625 17.144531 C 8.328125 17.769531 10.484375 18.421875 12.179688 18.152344 Z M 12.179688 18.152344 " fill-opacity="1" fill-rule="nonzero"/><path fill="#ffffff" d="M 13.660156 20.449219 C 13.71875 20.550781 13.0625 19.726562 11.769531 19.351562 C 11.554688 19.289062 11.113281 19.199219 11.039062 19.519531 C 10.945312 19.925781 11.6875 20.332031 11.558594 20.304688 C 10.785156 20.117188 10.511719 19.988281 9.980469 19.894531 C 9.085938 19.730469 9.300781 20.226562 9.234375 20.21875 C 8.679688 20.152344 8.570312 20.53125 8.847656 20.796875 C 8.960938 20.90625 8.957031 20.90625 8.953125 20.910156 C 8.933594 20.933594 6.785156 19.78125 7.292969 17.910156 C 7.292969 17.902344 7.304688 17.898438 7.316406 17.902344 C 8.542969 18.75 10.242188 19.121094 11.695312 18.980469 C 12.335938 18.921875 12.464844 18.8125 12.492188 18.855469 C 12.820312 19.304688 13.160156 19.589844 13.660156 20.449219 Z M 13.660156 20.449219 " fill-opacity="1" fill-rule="nonzero"/><path fill="#ffffff" d="M 17.8125 23.3125 C 17.75 23.3125 17.886719 23.269531 18.292969 23.101562 C 18.820312 22.882812 18.8125 22.5625 18.570312 22.40625 C 18.230469 22.1875 16.8125 22.355469 15.71875 23.007812 C 15.300781 23.253906 15.3125 23.277344 15.207031 23.277344 C 10.75 23.25 9.339844 21.863281 9.5 21.878906 C 9.796875 21.910156 9.929688 22.066406 10.675781 22.28125 C 10.761719 22.308594 10.875 22.347656 10.9375 22.292969 C 11.019531 22.222656 11.003906 22.089844 10.894531 22.050781 C 10.617188 21.949219 10.351562 21.902344 9.699219 21.601562 C 9.394531 21.457031 9.109375 21.25 9.191406 21.222656 C 9.445312 21.136719 9.707031 21.351562 10.75 21.695312 C 10.84375 21.722656 10.96875 21.769531 11.039062 21.6875 C 11.125 21.589844 11.066406 21.496094 10.953125 21.457031 C 9.082031 20.855469 8.96875 20.523438 9.027344 20.515625 C 9.558594 20.453125 10.140625 20.917969 11.054688 21.101562 C 11.234375 21.136719 11.34375 20.886719 11.085938 20.820312 C 10.734375 20.730469 9.820312 20.449219 9.566406 20.191406 C 9.492188 20.117188 9.949219 20.167969 10.328125 20.273438 C 10.964844 20.453125 11.460938 20.609375 12.058594 20.667969 C 12.160156 20.675781 12.375 20.707031 12.316406 20.539062 C 12.296875 20.484375 12.238281 20.425781 11.757812 20.074219 C 11.4375 19.839844 11.261719 19.589844 11.339844 19.582031 C 11.667969 19.554688 12.867188 19.914062 13.808594 21.042969 C 14.042969 21.320312 14.054688 21.441406 14.441406 21.527344 C 17.84375 22.28125 20.453125 21.371094 21.96875 19.847656 C 22.992188 18.820312 22.839844 17.871094 22.902344 17.941406 C 23.203125 18.296875 23.414062 18.558594 23.621094 19.042969 C 24.304688 20.625 23.257812 22.285156 21.75 23.121094 C 21.132812 23.464844 20.425781 23.691406 20.429688 23.648438 C 20.453125 23.273438 19.941406 23.238281 19.566406 23.257812 C 18.488281 23.320312 18.839844 23.304688 17.8125 23.3125 Z M 17.8125 23.3125 " fill-opacity="1" fill-rule="nonzero"/><g clip-path="url(#81720ecbd2)"><path fill="#ffffff" d="M 8.410156 20.949219 C 8.757812 21.175781 8.820312 21.160156 8.839844 21.226562 C 8.953125 21.582031 9.214844 21.617188 9.1875 21.671875 C 8.933594 22.140625 10.003906 22.644531 10.496094 22.839844 C 11.941406 23.417969 13.652344 23.558594 15.207031 23.570312 C 15.515625 23.570312 15.472656 23.441406 16.199219 23.082031 C 17.328125 22.515625 19.183594 22.441406 18.097656 22.871094 C 17.597656 23.070312 17.632812 23.042969 17.308594 23.238281 C 17.238281 23.28125 17.15625 23.3125 17.132812 23.390625 C 17.105469 23.46875 17.136719 23.511719 17.214844 23.527344 C 17.957031 23.703125 19.636719 23.484375 20.078125 23.589844 C 20.167969 23.613281 19.871094 23.894531 18.207031 23.941406 C 18.03125 23.945312 18.007812 24.167969 18.164062 24.207031 C 18.375 24.261719 19.332031 24.136719 19.777344 24.085938 C 20.15625 24.046875 20.421875 24.097656 20.367188 24.160156 C 20.046875 24.496094 18.808594 24.539062 18.039062 24.582031 C 17.945312 24.589844 17.875 24.664062 17.902344 24.761719 C 17.933594 24.882812 18.089844 24.863281 18.207031 24.859375 C 18.660156 24.835938 20.296875 24.667969 19.882812 24.855469 C 19.257812 25.136719 18.390625 25.113281 17.890625 25.160156 C 17.71875 25.171875 17.683594 25.441406 17.933594 25.433594 C 18.800781 25.40625 19.050781 25.339844 19.402344 25.367188 C 19.53125 25.378906 18.5 25.9375 16.097656 25.785156 C 13 25.589844 9.324219 24.789062 7.132812 22.59375 C 5.480469 20.933594 5.8125 19.136719 6.890625 18.289062 C 6.988281 18.210938 6.640625 19.785156 8.410156 20.949219 Z M 8.410156 20.949219 " fill-opacity="1" fill-rule="nonzero"/></g><path fill="#940012" d="M 14.21875 8.921875 C 14.285156 8.835938 14.371094 8.652344 14.511719 8.738281 C 14.613281 8.796875 14.597656 8.902344 14.535156 8.988281 C 14.296875 9.332031 13.957031 9.546875 13.535156 9.382812 C 13.117188 9.21875 13.011719 8.828125 13.066406 8.414062 C 13.082031 8.308594 13.140625 8.222656 13.257812 8.246094 C 13.417969 8.28125 13.359375 8.472656 13.347656 8.582031 C 13.296875 9.109375 13.898438 9.339844 14.21875 8.921875 Z M 14.21875 8.921875 " fill-opacity="1" fill-rule="nonzero"/><path fill="#940012" d="M 16.964844 10.011719 C 17.277344 10.082031 17.496094 9.859375 17.617188 9.605469 C 17.683594 9.457031 17.890625 9.5 17.894531 9.660156 C 17.902344 9.800781 17.527344 10.445312 16.898438 10.304688 C 16.273438 10.164062 16.210938 9.417969 16.277344 9.292969 C 16.351562 9.152344 16.554688 9.203125 16.554688 9.363281 C 16.554688 9.648438 16.652344 9.941406 16.964844 10.011719 Z M 16.964844 10.011719 " fill-opacity="1" fill-rule="nonzero"/><path fill="#940012" d="M 14.769531 10.484375 C 14.941406 10.75 15.152344 10.601562 15.238281 10.671875 C 15.328125 10.742188 15.339844 10.925781 15.113281 10.941406 C 14.871094 10.957031 14.679688 10.863281 14.535156 10.667969 C 14.332031 10.394531 14.59375 10.1875 14.71875 10.003906 C 14.761719 9.945312 14.804688 9.855469 14.851562 9.730469 C 14.902344 9.597656 15.101562 9.613281 15.125 9.75 C 15.15625 9.929688 14.921875 10.25 14.800781 10.382812 C 14.78125 10.40625 14.75 10.453125 14.769531 10.484375 Z M 14.769531 10.484375 " fill-opacity="1" fill-rule="nonzero"/><path fill="#940012" d="M 14.550781 11.753906 C 14.382812 11.59375 14.589844 11.359375 14.746094 11.515625 C 15.101562 11.875 15.507812 11.921875 15.832031 11.492188 C 15.929688 11.363281 16.128906 11.496094 16.070312 11.644531 C 16.003906 11.820312 15.5625 12.25 15.011719 12.042969 C 14.835938 11.972656 14.683594 11.878906 14.550781 11.753906 Z M 14.550781 11.753906 " fill-opacity="1" fill-rule="nonzero"/><path fill="#940012" d="M 11.46875 13.070312 C 11.53125 12.976562 11.542969 12.886719 11.5625 12.765625 C 11.589844 12.578125 11.859375 12.617188 11.84375 12.820312 C 11.773438 13.820312 10.46875 13.808594 10.449219 12.785156 C 10.445312 12.582031 10.714844 12.554688 10.734375 12.746094 C 10.75 12.867188 10.757812 12.957031 10.8125 13.054688 C 10.972656 13.339844 11.292969 13.347656 11.46875 13.070312 Z M 11.46875 13.070312 " fill-opacity="1" fill-rule="nonzero"/><path fill="#940012" d="M 13.535156 15.886719 C 13.535156 16.097656 13.21875 16.097656 13.21875 15.886719 C 13.21875 15.675781 13.535156 15.675781 13.535156 15.886719 Z M 13.535156 15.886719 " fill-opacity="1" fill-rule="nonzero"/><path fill="#940012" d="M 12.558594 15.886719 C 12.558594 16.097656 12.242188 16.097656 12.242188 15.886719 C 12.242188 15.679688 12.558594 15.679688 12.558594 15.886719 Z M 12.558594 15.886719 " fill-opacity="1" fill-rule="nonzero"/><path fill="#940012" d="M 13.097656 16.515625 C 13.097656 16.726562 12.78125 16.726562 12.78125 16.515625 C 12.78125 16.308594 13.097656 16.308594 13.097656 16.515625 Z M 13.097656 16.515625 " fill-opacity="1" fill-rule="nonzero"/><path fill="#940012" d="M 19.597656 17.28125 C 19.589844 17.121094 19.828125 17.066406 19.878906 17.230469 C 19.894531 17.289062 19.921875 17.578125 20.21875 17.578125 C 20.5625 17.578125 20.441406 17.195312 20.503906 17.117188 C 20.601562 17 20.785156 17.042969 20.777344 17.242188 C 20.769531 17.363281 20.757812 17.449219 20.742188 17.496094 C 20.53125 18.09375 19.632812 17.949219 19.597656 17.28125 Z M 19.597656 17.28125 " fill-opacity="1" fill-rule="nonzero"/><path fill="#940012" d="M 17.191406 17.253906 C 17.199219 17.273438 17.210938 17.3125 17.222656 17.382812 C 17.257812 17.550781 17.417969 17.691406 17.597656 17.652344 C 17.746094 17.617188 17.75 17.472656 17.773438 17.351562 C 17.800781 17.191406 18.03125 17.183594 18.054688 17.339844 C 18.0625 17.390625 18.058594 17.453125 18.046875 17.523438 C 17.925781 18.164062 17.011719 18.078125 16.917969 17.363281 C 16.890625 17.144531 17.117188 17.085938 17.191406 17.253906 Z M 17.191406 17.253906 " fill-opacity="1" fill-rule="nonzero"/><path fill="#940012" d="M 18.949219 18.996094 C 18.902344 18.957031 18.695312 19.214844 18.390625 19.0625 C 17.996094 18.863281 18.054688 18.476562 18.304688 18.558594 C 18.367188 18.578125 18.390625 18.699219 18.496094 18.777344 C 18.621094 18.863281 18.75 18.761719 18.769531 18.707031 C 18.773438 18.695312 18.773438 18.703125 18.714844 18.40625 C 18.699219 18.320312 18.445312 18.277344 18.378906 17.976562 C 18.300781 17.636719 18.738281 17.65625 18.949219 17.65625 C 19.199219 17.65625 19.4375 17.695312 19.421875 17.925781 C 19.390625 18.28125 19.0625 18.339844 19.058594 18.421875 C 19.054688 18.523438 19.074219 18.746094 19.175781 18.792969 C 19.269531 18.839844 19.425781 18.757812 19.46875 18.703125 C 19.5 18.660156 19.539062 18.582031 19.589844 18.554688 C 19.722656 18.488281 19.835938 18.613281 19.78125 18.753906 C 19.695312 18.980469 19.453125 19.097656 19.214844 19.109375 C 19.105469 19.117188 19.03125 19.070312 18.949219 18.996094 Z M 18.949219 18.996094 " fill-opacity="1" fill-rule="nonzero"/></svg>