<svg xmlns="http://www.w3.org/2000/svg" xmlns:xlink="http://www.w3.org/1999/xlink" width="40" zoomAndPan="magnify" viewBox="0 0 30 30.000001" height="40" preserveAspectRatio="xMidYMid meet" version="1.0"><defs><clipPath id="1b303c62f1"><path d="M 11.15625 8.855469 L 19 8.855469 L 19 16 L 11.15625 16 Z M 11.15625 8.855469 " clip-rule="nonzero"/></clipPath><clipPath id="a07d13753b"><path d="M 3.386719 6 L 26.613281 6 L 26.613281 24.132812 L 3.386719 24.132812 Z M 3.386719 6 " clip-rule="nonzero"/></clipPath><clipPath id="22b35c6b29"><path d="M 14 15.945312 L 16 15.945312 L 16 18 L 14 18 Z M 14 15.945312 " clip-rule="nonzero"/></clipPath><clipPath id="61bbfcfbb3"><path d="M 15 16 L 16.667969 16 L 16.667969 18 L 15 18 Z M 15 16 " clip-rule="nonzero"/></clipPath><clipPath id="9f5b2f0e3d"><path d="M 13.039062 16 L 14 16 L 14 19 L 13.039062 19 Z M 13.039062 16 " clip-rule="nonzero"/></clipPath><clipPath id="9aea314607"><path d="M 16 17 L 16.667969 17 L 16.667969 19 L 16 19 Z M 16 17 " clip-rule="nonzero"/></clipPath><clipPath id="9b8d742855"><path d="M 13.039062 17 L 16.667969 17 L 16.667969 20.300781 L 13.039062 20.300781 Z M 13.039062 17 " clip-rule="nonzero"/></clipPath></defs><g clip-path="url(#1b303c62f1)"><path fill="#ffffff" d="M 18.378906 14.625 L 16.261719 13.53125 C 16.261719 13.453125 16.230469 13.378906 16.171875 13.320312 L 16.121094 13.269531 L 16.105469 13.070312 C 16.101562 13.023438 16.097656 12.976562 16.097656 12.929688 C 16.097656 12.632812 16.144531 12.425781 16.292969 12.164062 C 16.292969 12.164062 16.582031 12.121094 16.582031 11.5 C 16.582031 11.078125 16.515625 11.03125 16.472656 11.046875 C 16.589844 10.6875 16.863281 9.582031 16.019531 9.367188 C 16.011719 9.363281 16.003906 9.359375 16 9.351562 C 15.972656 9.300781 15.917969 9.164062 15.71875 9.023438 C 15.472656 8.851562 15.152344 8.8125 14.875 8.925781 C 14.796875 8.957031 14.757812 8.988281 14.757812 8.988281 C 14.757812 8.988281 14.351562 8.929688 14.132812 9.035156 C 14.109375 9.046875 14.109375 9.082031 14.136719 9.09375 C 14.167969 9.105469 14.164062 9.148438 14.132812 9.152344 C 14.097656 9.160156 14.054688 9.167969 14.003906 9.183594 C 13.601562 9.316406 13.339844 9.707031 13.351562 10.136719 C 13.355469 10.390625 13.398438 10.78125 13.503906 11.058594 C 13.464844 11.027344 13.375 11.011719 13.375 11.5 C 13.375 12.121094 13.667969 12.164062 13.667969 12.164062 C 13.816406 12.425781 13.890625 12.632812 13.890625 12.929688 C 13.890625 12.976562 13.890625 13.023438 13.886719 13.070312 L 13.871094 13.269531 L 13.816406 13.320312 C 13.761719 13.378906 13.730469 13.453125 13.730469 13.53125 L 11.613281 14.625 C 11.332031 14.769531 11.15625 15.058594 11.15625 15.375 L 11.15625 15.9375 L 18.835938 15.9375 L 18.835938 15.375 C 18.835938 15.058594 18.65625 14.769531 18.378906 14.625 Z M 18.378906 14.625 " fill-opacity="1" fill-rule="nonzero"/></g><g clip-path="url(#a07d13753b)"><path fill="#940012" d="M 26.488281 14.464844 L 26.21875 13.703125 C 26.070312 13.28125 25.601562 12.9375 25.183594 12.9375 L 24.222656 12.9375 C 23.507812 10.941406 22.644531 8.523438 22.371094 7.957031 C 21.976562 7.070312 20.71875 6.675781 20.03125 6.476562 C 20.03125 6.476562 18.871094 6.035156 15 6.035156 C 11.128906 6.035156 9.996094 6.476562 9.996094 6.476562 C 9.179688 6.75 8.046875 7.144531 7.601562 7.980469 C 7.382812 8.402344 6.492188 10.867188 5.777344 12.9375 L 4.839844 12.9375 C 4.421875 12.9375 3.953125 13.28125 3.804688 13.703125 L 3.535156 14.464844 C 3.386719 14.886719 3.609375 15.230469 4.027344 15.230469 L 4.988281 15.230469 C 4.867188 15.574219 4.792969 15.773438 4.792969 15.773438 C 4.71875 15.894531 4.667969 16.464844 4.667969 16.636719 L 4.667969 23.613281 C 4.667969 24.058594 5.039062 24.425781 5.484375 24.425781 L 8.441406 24.425781 C 8.886719 24.425781 9.253906 24.058594 9.253906 23.613281 L 9.253906 22.132812 L 20.769531 22.132812 L 20.769531 23.613281 C 20.769531 24.058594 21.140625 24.425781 21.582031 24.425781 L 24.566406 24.425781 C 25.011719 24.425781 25.378906 24.058594 25.378906 23.613281 L 25.378906 16.636719 C 25.378906 16.488281 25.332031 15.894531 25.257812 15.773438 C 25.257812 15.773438 25.183594 15.574219 25.058594 15.230469 L 25.996094 15.230469 C 26.390625 15.230469 26.613281 14.886719 26.488281 14.464844 Z M 9.253906 18.757812 L 8.269531 18.089844 C 6.445312 17.941406 6.222656 18.582031 5.828125 17.894531 L 5.828125 17.054688 C 5.828125 16.242188 6.296875 16.214844 6.8125 16.214844 C 7.308594 16.214844 8.292969 16.636719 8.960938 16.933594 C 9.675781 17.253906 10.191406 16.980469 10.464844 18.042969 C 10.4375 18.535156 10.167969 18.757812 9.253906 18.757812 Z M 7.527344 13.257812 C 8.144531 10.742188 9.179688 8.992188 9.328125 8.574219 C 9.429688 8.277344 9.179688 7.734375 15.023438 7.734375 C 20.867188 7.734375 20.546875 8.523438 20.570312 8.546875 C 20.84375 9.117188 21.929688 10.964844 22.496094 13.257812 C 22.496094 13.257812 20.300781 13.554688 15.296875 13.554688 C 10.289062 13.554688 7.527344 13.257812 7.527344 13.257812 Z M 19.585938 18.042969 C 20.746094 16.609375 20.375 17.253906 21.089844 16.933594 C 21.730469 16.636719 22.742188 16.214844 23.234375 16.214844 C 23.753906 16.214844 24.222656 16.242188 24.222656 17.054688 L 24.222656 17.894531 C 23.851562 18.558594 23.53125 17.96875 21.683594 18.140625 L 20.769531 18.730469 C 19.855469 18.757812 19.265625 18.410156 19.585938 18.042969 Z M 19.585938 18.042969 " fill-opacity="1" fill-rule="nonzero"/></g><g clip-path="url(#22b35c6b29)"><path fill="#ffffff" d="M 14.675781 15.957031 C 14.929688 15.972656 15.042969 16.261719 15.0625 16.472656 C 15.085938 16.710938 15.050781 16.9375 14.953125 17.152344 C 14.886719 17.308594 14.753906 17.503906 14.578125 17.546875 C 14.523438 17.558594 14.46875 17.554688 14.417969 17.535156 C 14.226562 17.457031 14.140625 17.195312 14.121094 17.011719 C 14.082031 16.703125 14.148438 16.375 14.339844 16.132812 C 14.417969 16.035156 14.546875 15.949219 14.675781 15.957031 Z M 14.675781 15.957031 " fill-opacity="1" fill-rule="nonzero"/></g><g clip-path="url(#61bbfcfbb3)"><path fill="#ffffff" d="M 15.445312 16.570312 C 15.550781 16.449219 15.71875 16.363281 15.878906 16.429688 C 16.023438 16.492188 16.105469 16.644531 16.132812 16.792969 C 16.171875 17.007812 16.132812 17.214844 16.054688 17.421875 C 15.980469 17.621094 15.777344 17.953125 15.507812 17.871094 C 15.347656 17.820312 15.257812 17.597656 15.226562 17.449219 C 15.167969 17.136719 15.242188 16.816406 15.445312 16.570312 Z M 15.445312 16.570312 " fill-opacity="1" fill-rule="nonzero"/></g><g clip-path="url(#9f5b2f0e3d)"><path fill="#ffffff" d="M 13.039062 17.570312 L 13.039062 17.433594 C 13.042969 17.328125 13.070312 17.230469 13.113281 17.140625 C 13.214844 16.921875 13.449219 16.84375 13.644531 17.003906 C 13.785156 17.121094 13.863281 17.28125 13.898438 17.457031 C 13.929688 17.632812 13.914062 17.8125 13.851562 17.988281 C 13.804688 18.109375 13.730469 18.242188 13.613281 18.300781 C 13.394531 18.410156 13.207031 18.160156 13.136719 17.988281 C 13.082031 17.855469 13.046875 17.714844 13.039062 17.570312 Z M 13.039062 17.570312 " fill-opacity="1" fill-rule="nonzero"/></g><g clip-path="url(#9aea314607)"><path fill="#ffffff" d="M 16.464844 18.855469 C 16.285156 18.910156 16.15625 18.777344 16.09375 18.628906 C 15.96875 18.335938 16 18 16.171875 17.734375 C 16.269531 17.589844 16.449219 17.429688 16.640625 17.472656 C 16.914062 17.535156 16.960938 17.890625 16.925781 18.117188 C 16.886719 18.359375 16.730469 18.777344 16.464844 18.855469 Z M 16.464844 18.855469 " fill-opacity="1" fill-rule="nonzero"/></g><g clip-path="url(#9b8d742855)"><path fill="#ffffff" d="M 14.867188 17.90625 C 15.296875 17.988281 15.445312 18.351562 15.648438 18.675781 C 15.726562 18.800781 15.820312 18.90625 15.933594 18.992188 C 15.996094 19.039062 16.023438 19.0625 16.023438 19.0625 C 16.15625 19.175781 16.242188 19.3125 16.289062 19.476562 C 16.371094 19.773438 16.214844 20.046875 15.914062 20.125 C 15.679688 20.183594 15.449219 20.09375 15.210938 20 C 14.949219 19.902344 14.6875 19.890625 14.421875 19.960938 C 14.261719 20.003906 14.058594 20.085938 13.867188 20.109375 C 13.636719 20.132812 13.429688 20.0625 13.28125 19.882812 C 13.179688 19.757812 13.136719 19.613281 13.15625 19.453125 C 13.183594 19.230469 13.320312 19.019531 13.5 18.882812 C 13.515625 18.871094 13.554688 18.847656 13.609375 18.816406 C 13.824219 18.691406 13.960938 18.523438 14.101562 18.324219 C 14.253906 18.109375 14.457031 17.914062 14.738281 17.902344 C 14.796875 17.902344 14.839844 17.902344 14.867188 17.90625 Z M 14.867188 17.90625 " fill-opacity="1" fill-rule="nonzero"/></g></svg>