<svg xmlns="http://www.w3.org/2000/svg" xmlns:xlink="http://www.w3.org/1999/xlink" width="40" zoomAndPan="magnify" viewBox="0 0 30 30.000001" height="40" preserveAspectRatio="xMidYMid meet" version="1.0"><defs><clipPath id="fe1b4372ae"><path d="M 11.15625 8.855469 L 19 8.855469 L 19 16 L 11.15625 16 Z M 11.15625 8.855469 " clip-rule="nonzero"/></clipPath><clipPath id="1fa851377c"><path d="M 9 7.070312 L 26.613281 7.070312 L 26.613281 22.3125 L 9 22.3125 Z M 9 7.070312 " clip-rule="nonzero"/></clipPath><clipPath id="5c58257476"><path d="M 3.386719 12 L 13 12 L 13 22.3125 L 3.386719 22.3125 Z M 3.386719 12 " clip-rule="nonzero"/></clipPath></defs><g clip-path="url(#fe1b4372ae)"><path fill="#ffffff" d="M 18.378906 14.625 L 16.261719 13.53125 C 16.261719 13.453125 16.230469 13.378906 16.171875 13.320312 L 16.121094 13.269531 L 16.105469 13.070312 C 16.101562 13.023438 16.097656 12.976562 16.097656 12.929688 C 16.097656 12.632812 16.144531 12.425781 16.292969 12.164062 C 16.292969 12.164062 16.582031 12.121094 16.582031 11.5 C 16.582031 11.078125 16.515625 11.03125 16.472656 11.046875 C 16.589844 10.6875 16.863281 9.582031 16.019531 9.367188 C 16.011719 9.363281 16.003906 9.359375 16 9.351562 C 15.972656 9.300781 15.917969 9.164062 15.71875 9.023438 C 15.472656 8.851562 15.152344 8.8125 14.875 8.925781 C 14.796875 8.957031 14.757812 8.988281 14.757812 8.988281 C 14.757812 8.988281 14.351562 8.929688 14.132812 9.035156 C 14.109375 9.046875 14.109375 9.082031 14.136719 9.09375 C 14.167969 9.105469 14.164062 9.148438 14.132812 9.152344 C 14.097656 9.160156 14.054688 9.167969 14.003906 9.183594 C 13.601562 9.316406 13.339844 9.707031 13.351562 10.136719 C 13.355469 10.390625 13.398438 10.78125 13.503906 11.058594 C 13.464844 11.027344 13.375 11.011719 13.375 11.5 C 13.375 12.121094 13.667969 12.164062 13.667969 12.164062 C 13.816406 12.425781 13.890625 12.632812 13.890625 12.929688 C 13.890625 12.976562 13.890625 13.023438 13.886719 13.070312 L 13.871094 13.269531 L 13.816406 13.320312 C 13.761719 13.378906 13.730469 13.453125 13.730469 13.53125 L 11.613281 14.625 C 11.332031 14.769531 11.15625 15.058594 11.15625 15.375 L 11.15625 15.9375 L 18.835938 15.9375 L 18.835938 15.375 C 18.835938 15.058594 18.65625 14.769531 18.378906 14.625 Z M 18.378906 14.625 " fill-opacity="1" fill-rule="nonzero"/></g><g clip-path="url(#1fa851377c)"><path fill="#940012" d="M 14.050781 21.238281 C 14.058594 21.082031 14.066406 20.925781 14.074219 20.769531 C 14.046875 20.320312 14.015625 19.941406 13.992188 19.660156 C 13.929688 19.007812 13.890625 18.601562 13.777344 18.0625 C 13.722656 17.800781 13.671875 17.539062 13.558594 17.199219 C 13.523438 17.097656 13.402344 16.738281 13.011719 15.964844 C 12.679688 15.308594 12.699219 15.429688 12.496094 14.996094 C 12.496094 14.996094 12.269531 14.507812 12.011719 13.621094 C 11.976562 13.5 11.949219 13.371094 11.941406 13.242188 C 11.929688 13.140625 11.929688 13.035156 11.941406 12.933594 C 12.003906 12.730469 12.054688 12.527344 12.09375 12.320312 C 12.144531 12.035156 12.171875 11.890625 12.15625 11.699219 C 12.121094 11.304688 11.933594 10.96875 11.777344 10.933594 C 11.71875 10.917969 11.65625 10.917969 11.597656 10.925781 C 11.566406 10.933594 11.539062 10.945312 11.484375 10.964844 C 11.429688 10.984375 11.371094 11.007812 11.339844 11.023438 C 11.316406 11.03125 11.292969 11.039062 11.265625 11.042969 C 11.234375 11.046875 11.199219 11.042969 11.167969 11.035156 C 11.042969 11.007812 11.070312 11.03125 10.90625 10.988281 C 10.773438 10.953125 10.75 10.933594 10.367188 10.792969 C 10.308594 10.773438 10.25 10.746094 10.195312 10.714844 C 10.171875 10.699219 10.101562 10.660156 10.042969 10.609375 C 9.929688 10.507812 9.875 10.390625 9.835938 10.308594 C 9.773438 10.160156 9.738281 10.007812 9.738281 9.847656 C 9.730469 9.816406 9.71875 9.769531 9.703125 9.707031 C 9.671875 9.597656 9.65625 9.570312 9.644531 9.488281 C 9.636719 9.425781 9.628906 9.375 9.648438 9.316406 C 9.667969 9.277344 9.691406 9.25 9.710938 9.222656 C 9.746094 9.183594 9.789062 9.152344 9.835938 9.128906 L 10.007812 9.035156 C 10.160156 8.949219 10.175781 8.941406 10.269531 8.890625 C 10.347656 8.847656 10.441406 8.800781 10.515625 8.761719 C 10.640625 8.695312 10.671875 8.683594 10.714844 8.648438 C 10.773438 8.601562 10.820312 8.550781 10.863281 8.496094 C 10.890625 8.457031 10.921875 8.414062 10.945312 8.347656 C 10.960938 8.308594 10.96875 8.265625 10.96875 8.222656 C 10.972656 8.152344 10.972656 8.085938 10.972656 8.019531 C 10.988281 7.976562 11.007812 7.933594 11.03125 7.894531 C 11.058594 7.855469 11.085938 7.820312 11.117188 7.792969 C 11.167969 7.746094 11.199219 7.730469 11.304688 7.667969 C 11.339844 7.648438 11.265625 7.691406 11.519531 7.539062 C 11.617188 7.480469 11.664062 7.449219 11.675781 7.445312 C 11.820312 7.359375 11.96875 7.285156 12.125 7.222656 C 12.167969 7.203125 12.222656 7.183594 12.292969 7.160156 C 12.371094 7.136719 12.519531 7.089844 12.714844 7.078125 C 12.8125 7.070312 12.90625 7.074219 13.003906 7.082031 C 13.058594 7.085938 13.117188 7.089844 13.175781 7.101562 C 13.21875 7.113281 13.269531 7.121094 13.335938 7.148438 C 13.367188 7.164062 13.398438 7.183594 13.429688 7.203125 L 13.554688 7.28125 L 13.738281 7.402344 L 13.878906 7.492188 C 14.070312 7.617188 14.242188 7.761719 14.304688 7.816406 C 14.386719 7.886719 14.46875 7.957031 14.570312 8.0625 C 14.671875 8.167969 14.726562 8.242188 14.746094 8.269531 C 14.816406 8.355469 14.863281 8.425781 14.898438 8.480469 C 14.96875 8.585938 15.019531 8.667969 15.039062 8.707031 C 15.140625 8.878906 15.230469 9.019531 15.402344 9.304688 C 15.441406 9.367188 15.421875 9.335938 15.667969 9.714844 C 15.964844 10.179688 16.003906 10.246094 16.109375 10.402344 C 16.167969 10.488281 16.226562 10.570312 16.34375 10.738281 C 16.472656 10.921875 16.542969 11.023438 16.617188 11.125 C 16.859375 11.460938 17.066406 11.714844 17.234375 11.921875 C 17.359375 12.082031 17.488281 12.230469 17.503906 12.25 L 17.621094 12.390625 C 17.847656 12.652344 17.960938 12.789062 18.160156 13.023438 C 18.371094 13.273438 18.535156 13.457031 18.800781 13.765625 C 18.933594 13.917969 19.050781 14.050781 19.132812 14.144531 L 19.929688 15.058594 C 20.089844 15.242188 20.25 15.425781 20.410156 15.609375 C 20.542969 15.757812 20.675781 15.910156 20.808594 16.058594 L 21.144531 16.433594 L 21.496094 16.847656 L 21.785156 17.21875 C 21.851562 17.3125 21.917969 17.40625 21.984375 17.5 C 22.058594 17.625 22.136719 17.75 22.214844 17.875 L 22.457031 18.34375 C 22.496094 18.4375 22.535156 18.535156 22.578125 18.628906 C 22.613281 18.726562 22.652344 18.832031 22.6875 18.945312 C 22.722656 19.058594 22.746094 19.148438 22.765625 19.242188 C 22.789062 19.335938 22.800781 19.414062 22.816406 19.5 C 22.851562 19.710938 22.863281 19.921875 22.851562 20.136719 C 22.847656 20.183594 22.84375 20.230469 22.835938 20.285156 C 22.828125 20.335938 22.824219 20.367188 22.816406 20.402344 L 22.816406 20.625 C 22.820312 20.664062 22.832031 20.703125 22.839844 20.746094 C 22.859375 20.800781 22.875 20.859375 22.914062 20.929688 C 22.957031 21 23.007812 21.0625 23.074219 21.113281 C 23.101562 21.136719 23.148438 21.171875 23.21875 21.195312 C 23.253906 21.210938 23.292969 21.21875 23.335938 21.21875 C 23.375 21.21875 23.414062 21.210938 23.457031 21.199219 C 23.515625 21.179688 23.558594 21.152344 23.609375 21.117188 C 23.664062 21.078125 23.71875 21.035156 23.765625 20.984375 C 23.871094 20.902344 23.964844 20.8125 24.046875 20.710938 C 24.109375 20.632812 24.164062 20.554688 24.214844 20.46875 C 24.253906 20.402344 24.285156 20.335938 24.3125 20.269531 C 24.363281 20.152344 24.398438 20.035156 24.421875 19.914062 C 24.464844 19.683594 24.457031 19.503906 24.449219 19.359375 C 24.445312 19.261719 24.4375 19.113281 24.390625 18.929688 C 24.371094 18.832031 24.347656 18.746094 24.300781 18.648438 C 24.261719 18.5625 24.175781 18.417969 24.007812 18.28125 C 23.921875 18.226562 23.800781 18.140625 23.65625 18.035156 C 23.492188 17.914062 23.398438 17.84375 23.292969 17.742188 C 23.167969 17.625 23.058594 17.496094 22.960938 17.359375 C 22.917969 17.296875 22.886719 17.230469 22.867188 17.160156 C 22.851562 17.09375 22.84375 17.03125 22.84375 16.964844 C 22.84375 16.898438 22.847656 16.835938 22.863281 16.773438 C 22.867188 16.738281 22.875 16.707031 22.886719 16.675781 C 22.910156 16.617188 22.941406 16.578125 22.96875 16.546875 C 22.992188 16.511719 23.023438 16.484375 23.054688 16.460938 C 23.109375 16.421875 23.152344 16.402344 23.199219 16.386719 C 23.269531 16.363281 23.34375 16.351562 23.417969 16.34375 C 23.453125 16.34375 23.503906 16.339844 23.566406 16.335938 C 23.652344 16.332031 23.695312 16.328125 23.75 16.328125 C 23.804688 16.332031 23.859375 16.335938 23.917969 16.339844 C 24.027344 16.351562 24.113281 16.367188 24.152344 16.375 C 24.417969 16.421875 24.675781 16.503906 24.917969 16.621094 C 25.046875 16.679688 25.140625 16.734375 25.234375 16.789062 C 25.367188 16.863281 25.457031 16.914062 25.570312 17 C 25.625 17.039062 25.671875 17.078125 25.71875 17.117188 C 25.808594 17.191406 25.859375 17.230469 25.917969 17.289062 C 25.996094 17.363281 26.070312 17.445312 26.140625 17.53125 C 26.199219 17.613281 26.253906 17.695312 26.304688 17.78125 C 26.378906 17.910156 26.4375 18.039062 26.488281 18.175781 C 26.527344 18.292969 26.558594 18.410156 26.582031 18.53125 C 26.59375 18.628906 26.605469 18.722656 26.605469 18.816406 L 26.605469 19.238281 C 26.605469 19.316406 26.597656 19.414062 26.582031 19.527344 C 26.570312 19.660156 26.546875 19.789062 26.515625 19.917969 C 26.480469 20.078125 26.429688 20.234375 26.367188 20.386719 C 26.3125 20.523438 26.242188 20.652344 26.167969 20.78125 C 26.050781 20.96875 25.945312 21.097656 25.867188 21.1875 C 25.761719 21.316406 25.644531 21.4375 25.519531 21.550781 C 25.402344 21.660156 25.210938 21.835938 24.925781 22.011719 C 24.785156 22.09375 24.640625 22.171875 24.492188 22.234375 C 24.214844 22.355469 23.929688 22.445312 23.636719 22.503906 L 23.03125 22.585938 L 22.710938 22.597656 C 22.171875 22.597656 21.734375 22.597656 21.429688 22.597656 C 21.070312 22.597656 20.855469 22.601562 20.453125 22.601562 L 19.851562 22.597656 L 19.101562 22.601562 L 18.261719 22.601562 L 17.730469 22.597656 C 17.738281 22.566406 17.738281 22.53125 17.734375 22.496094 C 17.726562 22.453125 17.714844 22.421875 17.691406 22.367188 C 17.671875 22.324219 17.652344 22.285156 17.628906 22.242188 C 17.625 22.226562 17.625 22.210938 17.628906 22.195312 C 17.632812 22.160156 17.648438 22.132812 17.667969 22.109375 C 17.691406 22.078125 17.710938 22.046875 17.730469 22.011719 C 17.75 21.972656 17.765625 21.933594 17.789062 21.851562 C 17.8125 21.773438 17.828125 21.710938 17.847656 21.613281 C 17.863281 21.53125 17.878906 21.445312 17.882812 21.363281 L 17.882812 20.964844 C 17.878906 20.9375 17.871094 20.898438 17.859375 20.855469 C 17.839844 20.757812 17.835938 20.703125 17.828125 20.660156 C 17.808594 20.5625 17.785156 20.492188 17.746094 20.390625 C 17.707031 20.292969 17.664062 20.195312 17.609375 20.101562 C 17.546875 19.992188 17.46875 19.890625 17.382812 19.792969 C 17.304688 19.703125 17.226562 19.632812 17.101562 19.515625 L 17.011719 19.433594 L 17.011719 19.167969 C 17.027344 19.101562 17.046875 19.03125 17.074219 18.96875 C 17.097656 18.898438 17.125 18.835938 17.175781 18.761719 C 17.207031 18.710938 17.222656 18.699219 17.269531 18.628906 C 17.296875 18.589844 17.316406 18.554688 17.335938 18.515625 C 17.367188 18.453125 17.390625 18.390625 17.40625 18.324219 C 17.433594 18.234375 17.449219 18.152344 17.460938 18.09375 C 17.480469 18.003906 17.488281 17.929688 17.496094 17.875 C 17.503906 17.820312 17.507812 17.773438 17.511719 17.738281 C 17.511719 17.613281 17.511719 17.488281 17.511719 17.367188 C 17.5 17.316406 17.484375 17.273438 17.476562 17.242188 C 17.464844 17.210938 17.457031 17.195312 17.441406 17.179688 C 17.425781 17.160156 17.40625 17.152344 17.382812 17.148438 C 17.371094 17.144531 17.347656 17.144531 17.304688 17.167969 C 17.269531 17.1875 17.246094 17.210938 17.222656 17.230469 C 17.136719 17.316406 17.136719 17.304688 17.09375 17.351562 C 17.066406 17.378906 17.058594 17.390625 17.007812 17.457031 C 16.894531 17.597656 16.894531 17.589844 16.847656 17.652344 C 16.800781 17.714844 16.761719 17.765625 16.722656 17.832031 C 16.683594 17.894531 16.648438 17.96875 16.589844 18.097656 C 16.53125 18.230469 16.5 18.300781 16.480469 18.367188 C 16.46875 18.410156 16.460938 18.445312 16.4375 18.496094 C 16.410156 18.550781 16.378906 18.597656 16.339844 18.644531 C 16.335938 18.648438 16.328125 18.652344 16.316406 18.652344 C 16.292969 18.65625 16.273438 18.636719 16.273438 18.632812 C 16.257812 18.621094 16.242188 18.609375 16.234375 18.59375 C 16.226562 18.582031 16.21875 18.566406 16.203125 18.535156 C 16.199219 18.519531 16.191406 18.503906 16.183594 18.484375 C 16.15625 18.425781 16.117188 18.351562 16.066406 18.257812 C 16.027344 18.1875 15.96875 18.074219 15.890625 17.960938 C 15.8125 17.84375 15.734375 17.753906 15.585938 17.585938 C 15.515625 17.503906 15.414062 17.390625 15.292969 17.265625 C 15.277344 17.246094 15.257812 17.234375 15.234375 17.226562 C 15.1875 17.210938 15.144531 17.230469 15.128906 17.238281 C 15.097656 17.253906 15.070312 17.273438 15.054688 17.304688 C 15.046875 17.335938 15.035156 17.371094 15.027344 17.402344 C 15.023438 17.445312 15.019531 17.488281 15.015625 17.53125 C 15.015625 17.558594 15.019531 17.597656 15.023438 17.644531 C 15.027344 17.703125 15.035156 17.746094 15.042969 17.804688 C 15.070312 17.953125 15.082031 18.03125 15.101562 18.101562 C 15.117188 18.164062 15.136719 18.222656 15.160156 18.28125 C 15.179688 18.332031 15.195312 18.367188 15.234375 18.4375 C 15.242188 18.460938 15.285156 18.542969 15.355469 18.667969 C 15.425781 18.789062 15.410156 18.753906 15.480469 18.875 C 15.515625 18.941406 15.558594 19.015625 15.601562 19.066406 C 15.617188 19.082031 15.632812 19.101562 15.652344 19.121094 C 15.667969 19.140625 15.683594 19.15625 15.691406 19.171875 C 15.703125 19.191406 15.710938 19.210938 15.714844 19.234375 L 15.714844 19.390625 C 15.707031 19.40625 15.695312 19.429688 15.683594 19.453125 C 15.667969 19.480469 15.652344 19.503906 15.632812 19.53125 C 15.617188 19.546875 15.601562 19.566406 15.585938 19.582031 C 15.585938 19.582031 15.570312 19.601562 15.492188 19.691406 C 15.414062 19.785156 15.347656 19.894531 15.285156 19.992188 C 15.230469 20.074219 15.195312 20.136719 15.171875 20.175781 C 15.132812 20.246094 15.113281 20.28125 15.089844 20.332031 C 15.058594 20.402344 15.03125 20.46875 15.011719 20.539062 C 14.984375 20.632812 14.964844 20.726562 14.953125 20.820312 C 14.945312 20.894531 14.945312 20.945312 14.941406 21.046875 C 14.941406 21.195312 14.9375 21.269531 14.953125 21.363281 C 14.96875 21.480469 15 21.570312 15.023438 21.644531 C 15.046875 21.714844 15.078125 21.785156 15.109375 21.855469 C 15.164062 21.964844 15.230469 22.070312 15.304688 22.167969 L 15.304688 22.25 C 15.285156 22.261719 15.265625 22.273438 15.25 22.289062 C 15.214844 22.316406 15.179688 22.351562 15.152344 22.386719 C 15.121094 22.429688 15.09375 22.460938 15.074219 22.515625 C 15.066406 22.542969 15.058594 22.574219 15.054688 22.605469 L 14.933594 22.605469 C 14.875 22.605469 14.835938 22.605469 14.824219 22.605469 C 14.570312 22.609375 14.355469 22.597656 14.355469 22.597656 C 14.226562 22.59375 14.21875 22.589844 14.101562 22.585938 C 13.988281 22.585938 13.972656 22.585938 13.875 22.585938 C 13.703125 22.582031 13.53125 22.566406 13.359375 22.535156 C 13.289062 22.523438 13.230469 22.511719 13.167969 22.460938 C 13.148438 22.445312 13.089844 22.394531 13.066406 22.3125 C 13.050781 22.257812 13.058594 22.210938 13.070312 22.140625 C 13.082031 22.054688 13.113281 21.972656 13.152344 21.894531 C 13.179688 21.839844 13.214844 21.792969 13.25 21.746094 C 13.292969 21.695312 13.34375 21.652344 13.398438 21.617188 C 13.480469 21.5625 13.570312 21.53125 13.667969 21.523438 L 13.832031 21.515625 C 13.855469 21.511719 13.878906 21.503906 13.902344 21.492188 C 13.933594 21.480469 13.957031 21.457031 13.976562 21.429688 C 14.035156 21.359375 14.046875 21.273438 14.050781 21.238281 Z M 14.050781 21.238281 " fill-opacity="1" fill-rule="nonzero"/></g><g clip-path="url(#5c58257476)"><path fill="#940012" d="M 8.585938 22.625 C 8.859375 22.628906 9.136719 22.628906 9.417969 22.628906 C 9.6875 22.625 9.953125 22.621094 10.214844 22.613281 C 10.273438 22.621094 10.328125 22.613281 10.382812 22.597656 C 10.402344 22.589844 10.417969 22.582031 10.433594 22.574219 C 10.445312 22.5625 10.453125 22.546875 10.457031 22.53125 C 10.46875 22.5 10.460938 22.472656 10.453125 22.441406 C 10.441406 22.382812 10.417969 22.328125 10.390625 22.277344 C 10.371094 22.238281 10.347656 22.203125 10.320312 22.167969 C 10.277344 22.125 10.234375 22.089844 10.179688 22.058594 C 10.113281 22.019531 10.039062 21.996094 9.960938 21.980469 L 9.304688 21.996094 L 9.226562 21.996094 L 9.226562 21.929688 C 9.242188 21.917969 9.269531 21.90625 9.296875 21.882812 C 9.324219 21.863281 9.347656 21.84375 9.417969 21.777344 C 9.488281 21.714844 9.527344 21.675781 9.550781 21.648438 C 9.574219 21.625 9.59375 21.605469 9.628906 21.558594 C 9.6875 21.484375 9.746094 21.40625 9.8125 21.292969 C 9.863281 21.199219 9.910156 21.105469 9.945312 21.007812 C 9.976562 20.921875 10.003906 20.835938 10.023438 20.75 C 10.035156 20.691406 10.039062 20.640625 10.046875 20.605469 L 10.046875 20.285156 C 10.039062 20.25 10.03125 20.207031 10.015625 20.160156 C 10.003906 20.113281 9.988281 20.070312 9.972656 20.027344 C 9.953125 19.976562 9.929688 19.925781 9.902344 19.875 C 9.882812 19.835938 9.859375 19.796875 9.832031 19.761719 C 9.808594 19.730469 9.785156 19.699219 9.757812 19.671875 L 9.78125 19.671875 L 9.863281 19.738281 C 9.910156 19.78125 9.917969 19.789062 9.933594 19.804688 C 9.964844 19.832031 9.988281 19.863281 10.011719 19.898438 C 10.070312 19.980469 10.105469 20.070312 10.121094 20.167969 C 10.125 20.203125 10.128906 20.234375 10.132812 20.269531 C 10.136719 20.347656 10.140625 20.429688 10.144531 20.507812 C 10.152344 20.652344 10.15625 20.792969 10.15625 20.933594 C 10.167969 21.046875 10.183594 21.144531 10.195312 21.222656 C 10.203125 21.28125 10.21875 21.367188 10.246094 21.480469 C 10.261719 21.550781 10.277344 21.625 10.308594 21.722656 C 10.34375 21.820312 10.351562 21.824219 10.394531 21.941406 C 10.414062 21.996094 10.414062 22.007812 10.480469 22.226562 C 10.535156 22.402344 10.542969 22.421875 10.558594 22.453125 C 10.617188 22.546875 10.703125 22.597656 10.769531 22.625 L 11.132812 22.628906 L 11.261719 22.625 C 11.300781 22.625 11.339844 22.613281 11.371094 22.597656 C 11.398438 22.585938 11.433594 22.566406 11.46875 22.523438 C 11.488281 22.496094 11.503906 22.460938 11.511719 22.425781 L 11.511719 22.277344 C 11.492188 22.230469 11.464844 22.191406 11.429688 22.152344 C 11.386719 22.105469 11.332031 22.070312 11.269531 22.046875 L 11.136719 22.046875 C 11.113281 22.035156 11.097656 22.019531 11.078125 22 C 11.0625 21.976562 11.046875 21.953125 11.035156 21.925781 C 11.003906 21.859375 10.984375 21.789062 10.972656 21.730469 C 10.957031 21.675781 10.945312 21.621094 10.929688 21.539062 C 10.914062 21.457031 10.90625 21.382812 10.902344 21.367188 C 10.902344 21.367188 10.894531 21.296875 10.890625 21.222656 C 10.878906 21.035156 10.898438 20.796875 10.898438 20.753906 C 10.902344 20.710938 10.910156 20.644531 10.921875 20.574219 C 10.9375 20.449219 10.957031 20.355469 10.980469 20.261719 C 11.015625 20.105469 11.054688 19.980469 11.078125 19.910156 C 11.101562 19.839844 11.121094 19.777344 11.171875 19.636719 C 11.257812 19.398438 11.261719 19.394531 11.300781 19.277344 C 11.363281 19.085938 11.398438 18.957031 11.40625 18.925781 C 11.433594 18.828125 11.457031 18.738281 11.476562 18.613281 C 11.488281 18.519531 11.496094 18.4375 11.5 18.378906 C 11.5 18.292969 11.5 18.203125 11.5 18.113281 C 11.492188 18.085938 11.488281 18.050781 11.480469 18.003906 C 11.460938 17.90625 11.453125 17.855469 11.445312 17.820312 C 11.429688 17.746094 11.40625 17.671875 11.382812 17.601562 C 11.339844 17.492188 11.296875 17.410156 11.230469 17.289062 C 11.183594 17.195312 11.152344 17.148438 11.136719 17.066406 C 11.128906 17.019531 11.125 16.972656 11.125 16.925781 C 11.125 16.890625 11.128906 16.851562 11.136719 16.816406 C 11.148438 16.785156 11.15625 16.753906 11.1875 16.722656 C 11.210938 16.699219 11.234375 16.683594 11.265625 16.675781 C 11.335938 16.664062 11.390625 16.652344 11.433594 16.644531 C 11.523438 16.621094 11.597656 16.601562 11.6875 16.554688 C 11.722656 16.539062 11.75 16.523438 11.785156 16.496094 C 11.839844 16.449219 11.871094 16.40625 11.898438 16.359375 C 11.929688 16.3125 11.933594 16.292969 12 16.171875 L 12.046875 16.09375 C 12.054688 16.066406 12.054688 16.039062 12.046875 16.011719 C 12.039062 15.980469 12.023438 15.960938 12.007812 15.9375 C 11.992188 15.914062 11.976562 15.875 11.949219 15.816406 C 11.917969 15.734375 11.902344 15.664062 11.894531 15.613281 C 11.882812 15.566406 11.878906 15.523438 11.875 15.480469 C 11.875 15.394531 11.875 15.3125 11.871094 15.226562 C 11.867188 15.195312 11.859375 15.167969 11.847656 15.140625 C 11.839844 15.113281 11.796875 14.992188 11.679688 14.851562 C 11.636719 14.796875 11.585938 14.75 11.535156 14.703125 C 11.429688 14.613281 11.316406 14.535156 11.191406 14.472656 C 11.160156 14.457031 11.132812 14.4375 11.105469 14.414062 C 11.078125 14.382812 11.054688 14.351562 11.035156 14.3125 C 10.992188 14.230469 10.957031 14.144531 10.929688 14.058594 C 10.90625 13.984375 10.886719 13.914062 10.875 13.839844 C 10.863281 13.777344 10.851562 13.714844 10.847656 13.648438 C 10.847656 13.632812 10.84375 13.617188 10.835938 13.601562 C 10.816406 13.574219 10.785156 13.566406 10.773438 13.566406 C 10.761719 13.5625 10.75 13.5625 10.710938 13.570312 C 10.679688 13.578125 10.65625 13.585938 10.628906 13.597656 C 10.578125 13.621094 10.535156 13.652344 10.492188 13.6875 C 10.464844 13.714844 10.402344 13.769531 10.320312 13.902344 C 10.277344 13.964844 10.246094 14.027344 10.183594 14.144531 C 10.105469 14.296875 10.105469 14.3125 10.058594 14.386719 C 9.992188 14.492188 9.949219 14.539062 9.902344 14.578125 C 9.867188 14.605469 9.863281 14.601562 9.816406 14.636719 C 9.800781 14.648438 9.742188 14.695312 9.65625 14.789062 C 9.5625 14.890625 9.480469 15.003906 9.414062 15.125 C 9.285156 15.363281 9.214844 15.617188 9.207031 15.890625 C 9.199219 15.925781 9.183594 15.972656 9.164062 16.023438 C 9.136719 16.09375 9.105469 16.164062 9.070312 16.230469 C 9.015625 16.339844 8.960938 16.410156 8.863281 16.542969 C 8.835938 16.578125 8.789062 16.640625 8.691406 16.761719 C 8.585938 16.898438 8.53125 16.964844 8.496094 17.007812 C 8.394531 17.132812 8.308594 17.226562 8.261719 17.277344 C 8.160156 17.390625 8.132812 17.414062 7.898438 17.65625 C 7.660156 17.894531 7.667969 17.894531 7.5 18.0625 C 7.351562 18.214844 7.339844 18.21875 7.253906 18.308594 C 7.136719 18.429688 7.046875 18.523438 6.9375 18.660156 C 6.863281 18.753906 6.785156 18.847656 6.699219 18.992188 C 6.640625 19.085938 6.585938 19.1875 6.539062 19.289062 C 6.46875 19.449219 6.414062 19.609375 6.378906 19.78125 C 6.34375 19.941406 6.320312 20.105469 6.316406 20.269531 L 6.316406 20.757812 C 6.320312 20.898438 6.332031 21.011719 6.34375 21.097656 C 6.351562 21.179688 6.359375 21.25 6.371094 21.332031 C 6.382812 21.414062 6.394531 21.5 6.414062 21.621094 C 6.429688 21.707031 6.441406 21.777344 6.453125 21.828125 C 6.460938 21.855469 6.453125 21.878906 6.429688 21.890625 C 6.410156 21.902344 6.382812 21.898438 6.367188 21.878906 C 6.339844 21.867188 6.3125 21.851562 6.289062 21.832031 C 6.25 21.800781 6.214844 21.761719 6.183594 21.71875 C 6.160156 21.691406 6.125 21.636719 6.0625 21.503906 C 6.023438 21.410156 5.996094 21.335938 5.96875 21.257812 C 5.9375 21.179688 5.914062 21.113281 5.886719 21.019531 C 5.855469 20.90625 5.828125 20.792969 5.808594 20.675781 C 5.792969 20.570312 5.757812 20.359375 5.769531 20.09375 C 5.773438 20.011719 5.78125 19.933594 5.785156 19.898438 C 5.789062 19.832031 5.800781 19.714844 5.824219 19.59375 C 5.855469 19.441406 5.890625 19.335938 5.945312 19.183594 C 5.972656 19.105469 6.015625 19.007812 6.09375 18.808594 C 6.140625 18.699219 6.175781 18.613281 6.214844 18.519531 C 6.300781 18.316406 6.316406 18.285156 6.34375 18.214844 C 6.390625 18.097656 6.457031 17.929688 6.527344 17.714844 C 6.546875 17.648438 6.566406 17.574219 6.582031 17.496094 C 6.601562 17.417969 6.609375 17.347656 6.617188 17.285156 C 6.621094 17.25 6.625 17.203125 6.625 17.144531 C 6.628906 17.09375 6.628906 17.042969 6.625 16.992188 C 6.621094 16.910156 6.601562 16.828125 6.574219 16.75 C 6.546875 16.675781 6.507812 16.609375 6.460938 16.546875 C 6.425781 16.503906 6.386719 16.464844 6.34375 16.429688 C 6.34375 16.417969 6.34375 16.402344 6.339844 16.390625 C 6.332031 16.378906 6.328125 16.371094 6.320312 16.363281 C 6.300781 16.332031 6.277344 16.304688 6.25 16.277344 C 6.214844 16.238281 6.195312 16.226562 6.175781 16.222656 C 6.164062 16.21875 6.148438 16.214844 6.136719 16.214844 L 6.023438 16.214844 C 6.015625 16.199219 6.007812 16.1875 6.003906 16.179688 C 6 16.171875 5.996094 16.160156 5.996094 16.15625 C 5.996094 16.144531 6.003906 16.132812 6.011719 16.125 L 6.0625 16.089844 C 6.089844 16.070312 6.144531 16.03125 6.191406 16 C 6.234375 15.964844 6.285156 15.925781 6.375 15.851562 L 6.46875 15.769531 L 6.507812 15.769531 C 6.511719 15.777344 6.511719 15.78125 6.515625 15.789062 C 6.519531 15.792969 6.523438 15.796875 6.527344 15.800781 C 6.539062 15.8125 6.535156 15.816406 6.539062 15.820312 C 6.542969 15.824219 6.554688 15.824219 6.578125 15.8125 C 6.597656 15.804688 6.613281 15.78125 6.636719 15.757812 C 6.683594 15.710938 6.726562 15.660156 6.769531 15.605469 C 6.84375 15.507812 6.890625 15.414062 6.925781 15.34375 C 6.972656 15.246094 6.996094 15.171875 7.039062 15.054688 C 7.074219 14.949219 7.097656 14.871094 7.125 14.777344 C 7.167969 14.625 7.179688 14.5625 7.1875 14.527344 C 7.199219 14.464844 7.207031 14.410156 7.210938 14.367188 L 7.210938 14.121094 C 7.203125 14.070312 7.191406 14.015625 7.175781 13.964844 C 7.167969 13.941406 7.160156 13.917969 7.152344 13.894531 L 7.152344 13.839844 C 7.164062 13.808594 7.179688 13.777344 7.195312 13.75 L 7.285156 13.613281 L 7.355469 13.484375 L 7.371094 13.421875 L 7.371094 13.3125 L 7.410156 13.277344 L 7.488281 13.273438 L 7.59375 13.273438 C 7.625 13.269531 7.65625 13.257812 7.683594 13.246094 C 7.707031 13.238281 7.730469 13.226562 7.753906 13.210938 C 7.78125 13.195312 7.800781 13.183594 7.820312 13.171875 C 7.824219 13.164062 7.828125 13.160156 7.832031 13.15625 C 7.835938 13.148438 7.839844 13.148438 7.84375 13.140625 L 7.855469 13.140625 C 7.859375 13.148438 7.863281 13.152344 7.867188 13.160156 C 7.871094 13.167969 7.878906 13.183594 7.882812 13.195312 C 7.882812 13.230469 7.882812 13.265625 7.882812 13.300781 C 7.878906 13.308594 7.878906 13.316406 7.875 13.324219 C 7.867188 13.335938 7.863281 13.34375 7.855469 13.355469 C 7.851562 13.363281 7.847656 13.375 7.84375 13.382812 C 7.839844 13.390625 7.832031 13.410156 7.84375 13.429688 C 7.847656 13.4375 7.851562 13.441406 7.855469 13.445312 C 7.863281 13.445312 7.867188 13.445312 7.875 13.445312 C 7.882812 13.445312 7.886719 13.441406 7.894531 13.4375 C 7.902344 13.429688 7.914062 13.421875 7.925781 13.414062 C 7.941406 13.398438 7.957031 13.382812 7.96875 13.363281 C 8.054688 13.246094 8.058594 13.238281 8.070312 13.21875 C 8.082031 13.191406 8.09375 13.160156 8.105469 13.128906 C 8.121094 13.082031 8.132812 13.035156 8.144531 12.984375 C 8.148438 12.945312 8.152344 12.90625 8.15625 12.863281 C 8.15625 12.84375 8.152344 12.820312 8.152344 12.800781 C 8.152344 12.765625 8.148438 12.730469 8.140625 12.695312 C 8.136719 12.667969 8.128906 12.640625 8.117188 12.617188 L 8.066406 12.511719 C 8.058594 12.480469 8.050781 12.449219 8.042969 12.417969 C 8.039062 12.375 8.035156 12.332031 8.027344 12.289062 C 8.023438 12.269531 8.015625 12.25 8.003906 12.234375 C 7.992188 12.210938 7.972656 12.1875 7.953125 12.167969 C 7.929688 12.144531 7.90625 12.121094 7.878906 12.105469 C 7.859375 12.089844 7.839844 12.074219 7.816406 12.066406 C 7.804688 12.058594 7.792969 12.054688 7.777344 12.050781 L 7.496094 12.039062 L 7.195312 12.039062 C 7.132812 12.042969 7.027344 12.058594 6.921875 12.105469 C 6.882812 12.125 6.847656 12.144531 6.8125 12.171875 C 6.796875 12.183594 6.78125 12.195312 6.722656 12.25 C 6.625 12.347656 6.632812 12.34375 6.601562 12.371094 C 6.558594 12.402344 6.511719 12.433594 6.464844 12.460938 C 6.421875 12.484375 6.382812 12.5 6.351562 12.511719 C 6.347656 12.515625 6.339844 12.519531 6.339844 12.527344 C 6.335938 12.535156 6.335938 12.542969 6.339844 12.550781 C 6.34375 12.558594 6.347656 12.566406 6.351562 12.578125 C 6.359375 12.589844 6.363281 12.59375 6.363281 12.597656 C 6.363281 12.605469 6.347656 12.625 6.339844 12.628906 C 6.308594 12.648438 6.285156 12.675781 6.253906 12.695312 C 6.207031 12.71875 6.164062 12.75 6.128906 12.789062 C 6.125 12.789062 6.117188 12.796875 6.117188 12.804688 C 6.117188 12.816406 6.121094 12.816406 6.128906 12.824219 L 6.140625 12.839844 C 6.148438 12.84375 6.152344 12.851562 6.152344 12.859375 C 6.15625 12.867188 6.152344 12.875 6.152344 12.878906 C 6.148438 12.886719 6.144531 12.894531 6.140625 12.902344 C 6.128906 12.921875 6.113281 12.945312 6.089844 12.972656 C 6.058594 13.011719 6.027344 13.046875 5.988281 13.078125 C 5.960938 13.101562 5.933594 13.121094 5.90625 13.140625 C 5.816406 13.207031 5.796875 13.203125 5.753906 13.246094 C 5.730469 13.269531 5.710938 13.296875 5.691406 13.328125 C 5.667969 13.363281 5.664062 13.382812 5.632812 13.445312 C 5.609375 13.484375 5.597656 13.507812 5.582031 13.535156 C 5.542969 13.597656 5.496094 13.65625 5.445312 13.707031 C 5.421875 13.730469 5.425781 13.722656 5.371094 13.773438 C 5.359375 13.785156 5.324219 13.8125 5.269531 13.863281 C 5.214844 13.917969 5.160156 13.96875 5.082031 14.046875 C 5.007812 14.128906 5.015625 14.125 4.984375 14.152344 C 4.953125 14.183594 4.878906 14.246094 4.824219 14.296875 C 4.800781 14.316406 4.785156 14.339844 4.773438 14.363281 C 4.769531 14.375 4.765625 14.390625 4.761719 14.402344 L 4.761719 14.507812 C 4.753906 14.527344 4.738281 14.554688 4.726562 14.585938 C 4.71875 14.601562 4.699219 14.636719 4.6875 14.664062 C 4.660156 14.714844 4.640625 14.742188 4.613281 14.785156 C 4.546875 14.878906 4.515625 14.929688 4.488281 14.992188 C 4.480469 15.011719 4.464844 15.054688 4.4375 15.140625 C 4.410156 15.222656 4.402344 15.242188 4.390625 15.28125 C 4.382812 15.296875 4.367188 15.339844 4.3125 15.441406 C 4.257812 15.550781 4.246094 15.558594 4.1875 15.664062 C 4.132812 15.773438 4.160156 15.730469 4.101562 15.847656 C 4.101562 15.847656 4.058594 15.929688 4.050781 16.003906 C 4.050781 16.019531 4.050781 16.035156 4.054688 16.050781 C 4.058594 16.085938 4.074219 16.09375 4.078125 16.121094 C 4.082031 16.148438 4.074219 16.160156 4.066406 16.179688 C 4.054688 16.207031 4.035156 16.234375 4.015625 16.257812 C 3.960938 16.308594 3.917969 16.371094 3.867188 16.425781 C 3.816406 16.484375 3.835938 16.46875 3.753906 16.570312 C 3.667969 16.675781 3.65625 16.683594 3.589844 16.769531 C 3.578125 16.789062 3.589844 16.769531 3.507812 16.886719 C 3.476562 16.925781 3.441406 16.976562 3.414062 17.035156 C 3.40625 17.0625 3.398438 17.085938 3.398438 17.113281 C 3.394531 17.140625 3.394531 17.152344 3.402344 17.160156 C 3.417969 17.175781 3.464844 17.152344 3.488281 17.128906 C 3.515625 17.109375 3.523438 17.101562 3.550781 17.070312 C 3.566406 17.050781 3.585938 17.039062 3.605469 17.019531 C 3.609375 17.019531 3.613281 17.015625 3.617188 17.015625 C 3.621094 17.019531 3.617188 17.027344 3.617188 17.03125 C 3.617188 17.042969 3.613281 17.050781 3.605469 17.058594 C 3.601562 17.070312 3.597656 17.078125 3.59375 17.085938 C 3.582031 17.109375 3.582031 17.113281 3.546875 17.175781 C 3.503906 17.25 3.496094 17.257812 3.488281 17.289062 C 3.484375 17.304688 3.484375 17.324219 3.484375 17.339844 C 3.484375 17.367188 3.484375 17.386719 3.496094 17.394531 C 3.523438 17.425781 3.617188 17.363281 3.65625 17.339844 C 3.695312 17.316406 3.726562 17.292969 3.78125 17.25 C 3.832031 17.210938 3.785156 17.25 4.039062 17.054688 L 4.140625 16.976562 L 4.230469 16.976562 C 4.28125 16.953125 4.320312 16.933594 4.347656 16.914062 C 4.402344 16.878906 4.445312 16.851562 4.476562 16.824219 C 4.511719 16.800781 4.523438 16.792969 4.539062 16.78125 C 4.546875 16.773438 4.554688 16.769531 4.5625 16.773438 C 4.566406 16.773438 4.574219 16.777344 4.578125 16.78125 C 4.585938 16.789062 4.589844 16.800781 4.59375 16.8125 C 4.589844 16.824219 4.589844 16.84375 4.585938 16.867188 C 4.574219 16.996094 4.566406 17.054688 4.5625 17.125 C 4.546875 17.242188 4.550781 17.226562 4.535156 17.355469 C 4.523438 17.476562 4.523438 17.480469 4.511719 17.617188 C 4.496094 17.769531 4.492188 17.769531 4.480469 17.886719 C 4.472656 17.96875 4.46875 18.039062 4.460938 18.128906 C 4.453125 18.234375 4.457031 18.242188 4.449219 18.335938 C 4.441406 18.429688 4.4375 18.445312 4.425781 18.585938 C 4.414062 18.714844 4.417969 18.703125 4.402344 18.886719 C 4.382812 19.074219 4.382812 19.082031 4.375 19.175781 C 4.367188 19.300781 4.359375 19.398438 4.359375 19.457031 C 4.355469 19.550781 4.355469 19.582031 4.351562 19.710938 C 4.34375 19.957031 4.335938 20.082031 4.328125 20.195312 C 4.3125 20.367188 4.304688 20.453125 4.289062 20.5 C 4.265625 20.582031 4.25 20.664062 4.238281 20.746094 C 4.238281 20.757812 4.238281 20.773438 4.238281 20.785156 C 4.238281 20.816406 4.238281 20.824219 4.242188 20.828125 C 4.25 20.835938 4.253906 20.839844 4.265625 20.839844 C 4.28125 20.839844 4.289062 20.828125 4.292969 20.824219 C 4.292969 20.820312 4.300781 20.800781 4.304688 20.773438 C 4.3125 20.730469 4.316406 20.714844 4.320312 20.707031 C 4.324219 20.691406 4.332031 20.671875 4.34375 20.671875 C 4.351562 20.671875 4.371094 20.722656 4.371094 20.722656 C 4.371094 20.746094 4.371094 20.765625 4.375 20.777344 C 4.375 20.792969 4.375 20.808594 4.378906 20.824219 C 4.382812 20.839844 4.386719 20.863281 4.394531 20.863281 C 4.402344 20.867188 4.402344 20.851562 4.417969 20.808594 C 4.429688 20.765625 4.433594 20.753906 4.441406 20.734375 C 4.457031 20.699219 4.460938 20.699219 4.476562 20.664062 C 4.488281 20.632812 4.488281 20.628906 4.5 20.582031 C 4.511719 20.535156 4.515625 20.542969 4.539062 20.46875 C 4.5625 20.394531 4.5625 20.390625 4.578125 20.351562 C 4.585938 20.324219 4.601562 20.292969 4.617188 20.265625 C 4.644531 20.222656 4.660156 20.21875 4.699219 20.167969 C 4.726562 20.132812 4.75 20.101562 4.765625 20.0625 C 4.777344 20.039062 4.785156 20.023438 4.8125 19.917969 C 4.835938 19.820312 4.847656 19.773438 4.859375 19.722656 C 4.871094 19.671875 4.878906 19.621094 4.886719 19.589844 C 4.90625 19.472656 4.90625 19.445312 4.921875 19.363281 C 4.933594 19.296875 4.945312 19.253906 4.964844 19.183594 C 4.972656 19.140625 4.992188 19.066406 5.035156 18.921875 C 5.074219 18.773438 5.085938 18.753906 5.132812 18.582031 C 5.167969 18.457031 5.1875 18.398438 5.195312 18.351562 C 5.230469 18.207031 5.222656 18.191406 5.257812 18.019531 C 5.277344 17.933594 5.292969 17.871094 5.324219 17.75 C 5.34375 17.679688 5.34375 17.679688 5.386719 17.515625 C 5.441406 17.320312 5.449219 17.28125 5.453125 17.257812 C 5.460938 17.21875 5.476562 17.160156 5.5 17.039062 C 5.53125 16.882812 5.542969 16.824219 5.570312 16.738281 C 5.585938 16.703125 5.601562 16.664062 5.617188 16.625 L 5.65625 16.625 C 5.664062 16.632812 5.671875 16.640625 5.683594 16.648438 L 5.753906 16.648438 L 5.769531 16.714844 C 5.769531 16.730469 5.769531 16.75 5.769531 16.765625 C 5.777344 16.785156 5.789062 16.804688 5.804688 16.816406 C 5.820312 16.832031 5.855469 16.855469 5.902344 16.859375 C 5.921875 16.859375 5.9375 16.855469 5.949219 16.863281 C 5.960938 16.875 5.964844 16.882812 5.964844 16.898438 C 5.964844 16.90625 5.964844 16.910156 5.953125 16.925781 C 5.953125 16.925781 5.953125 16.929688 5.945312 16.953125 C 5.925781 17.007812 5.929688 17.109375 5.929688 17.109375 C 5.929688 17.132812 5.917969 17.195312 5.890625 17.316406 C 5.886719 17.335938 5.875 17.390625 5.839844 17.527344 C 5.808594 17.667969 5.792969 17.726562 5.769531 17.804688 C 5.765625 17.824219 5.742188 17.910156 5.703125 18.027344 C 5.675781 18.117188 5.671875 18.125 5.617188 18.292969 C 5.578125 18.414062 5.558594 18.476562 5.539062 18.539062 C 5.515625 18.628906 5.496094 18.691406 5.46875 18.796875 C 5.429688 18.933594 5.414062 19 5.394531 19.082031 C 5.371094 19.175781 5.34375 19.304688 5.320312 19.460938 C 5.296875 19.605469 5.285156 19.707031 5.28125 19.738281 C 5.277344 19.792969 5.273438 19.84375 5.269531 19.878906 C 5.257812 20.050781 5.257812 20.222656 5.269531 20.390625 C 5.28125 20.542969 5.300781 20.65625 5.308594 20.707031 C 5.3125 20.734375 5.332031 20.847656 5.371094 20.996094 C 5.386719 21.050781 5.40625 21.136719 5.445312 21.246094 C 5.460938 21.292969 5.492188 21.382812 5.542969 21.496094 C 5.5625 21.539062 5.601562 21.617188 5.65625 21.71875 C 5.671875 21.746094 5.714844 21.824219 5.792969 21.941406 C 5.894531 22.101562 5.945312 22.179688 6.027344 22.273438 C 6.171875 22.4375 6.28125 22.5 6.3125 22.519531 C 6.351562 22.539062 6.386719 22.558594 6.425781 22.570312 C 6.5 22.601562 6.574219 22.617188 6.648438 22.625 Z M 8.585938 22.625 " fill-opacity="1" fill-rule="nonzero"/></g></svg>