<svg xmlns="http://www.w3.org/2000/svg" xmlns:xlink="http://www.w3.org/1999/xlink" width="40" zoomAndPan="magnify" viewBox="0 0 30 30.000001" height="40" preserveAspectRatio="xMidYMid meet" version="1.0"><defs><clipPath id="8642338f85"><path d="M 3.386719 7.953125 L 26.613281 7.953125 L 26.613281 21.742188 L 3.386719 21.742188 Z M 3.386719 7.953125 " clip-rule="nonzero"/></clipPath></defs><g clip-path="url(#8642338f85)"><path fill="#940012" d="M 15 11.851562 C 10.730469 11.851562 7.273438 11.160156 7.273438 10.304688 C 7.273438 9.449219 10.730469 8.757812 15 8.757812 C 19.265625 8.757812 22.726562 9.449219 22.726562 10.304688 C 22.726562 11.160156 19.265625 11.851562 15 11.851562 Z M 18.832031 16.941406 C 18.703125 17.167969 18.445312 17.371094 18.175781 17.355469 C 17.765625 17.335938 17.644531 16.9375 17.679688 16.585938 C 17.707031 16.296875 17.828125 16.011719 18.050781 15.820312 C 18.296875 15.605469 18.628906 15.542969 18.859375 15.8125 C 19.125 16.125 19.039062 16.578125 18.832031 16.941406 Z M 16.320312 14.066406 C 16.511719 13.6875 16.90625 13.429688 17.296875 13.6875 C 17.734375 13.96875 17.851562 14.632812 17.71875 15.128906 C 17.636719 15.4375 17.382812 15.761719 17.042969 15.835938 C 16.6875 15.910156 16.34375 15.726562 16.234375 15.394531 C 16.09375 14.964844 16.109375 14.472656 16.320312 14.066406 Z M 17.972656 19.109375 C 17.722656 19.464844 17.273438 19.652344 16.84375 19.613281 C 16.613281 19.589844 16.394531 19.492188 16.164062 19.449219 C 15.933594 19.40625 15.695312 19.394531 15.464844 19.457031 C 15.144531 19.539062 14.824219 19.675781 14.488281 19.617188 C 14.167969 19.5625 13.863281 19.394531 13.667969 19.132812 C 13.351562 18.699219 13.460938 18.253906 13.777344 17.859375 C 14.003906 17.578125 14.269531 17.328125 14.5 17.050781 C 14.710938 16.796875 14.851562 16.453125 15.117188 16.246094 C 15.476562 15.964844 16.007812 15.96875 16.394531 16.183594 C 16.707031 16.359375 16.835938 16.652344 17.027344 16.9375 C 17.261719 17.289062 17.613281 17.488281 17.871094 17.820312 C 18.148438 18.183594 18.25 18.714844 17.972656 19.109375 Z M 14.324219 13.683594 C 14.71875 13.433594 15.105469 13.691406 15.296875 14.070312 C 15.503906 14.480469 15.515625 14.96875 15.375 15.398438 C 15.261719 15.726562 14.921875 15.910156 14.566406 15.832031 C 14.226562 15.757812 13.972656 15.433594 13.894531 15.125 C 13.765625 14.628906 13.886719 13.964844 14.324219 13.683594 Z M 12.800781 16.941406 C 12.59375 16.578125 12.511719 16.125 12.773438 15.8125 C 13.003906 15.542969 13.339844 15.605469 13.585938 15.820312 C 13.808594 16.011719 13.929688 16.296875 13.957031 16.585938 C 13.988281 16.9375 13.867188 17.335938 13.457031 17.355469 C 13.1875 17.371094 12.929688 17.167969 12.800781 16.941406 Z M 26.578125 19.355469 C 26.257812 15.523438 25.542969 10.429688 24.269531 9.339844 C 23.398438 8.550781 19.578125 7.953125 15 7.953125 C 10.421875 7.953125 6.601562 8.550781 5.726562 9.339844 C 4.457031 10.429688 3.742188 15.523438 3.417969 19.355469 C 3.414062 19.371094 3.414062 19.382812 3.414062 19.398438 C 3.414062 20.355469 8.601562 22.058594 15 22.058594 C 21.398438 22.058594 26.582031 20.355469 26.582031 19.398438 C 26.582031 19.382812 26.582031 19.371094 26.578125 19.355469 " fill-opacity="1" fill-rule="nonzero"/></g></svg>