<svg xmlns="http://www.w3.org/2000/svg" xmlns:xlink="http://www.w3.org/1999/xlink" width="40" zoomAndPan="magnify" viewBox="0 0 30 30.000001" height="40" preserveAspectRatio="xMidYMid meet" version="1.0"><defs><clipPath id="bf02532d67"><path d="M 0.484375 0 L 29.515625 0 L 29.515625 29.03125 L 0.484375 29.03125 Z M 0.484375 0 " clip-rule="nonzero"/></clipPath><clipPath id="49cf84991d"><path d="M 11.15625 8.855469 L 19 8.855469 L 19 16 L 11.15625 16 Z M 11.15625 8.855469 " clip-rule="nonzero"/></clipPath><clipPath id="6db8700972"><path d="M 3.386719 2.902344 L 26.613281 2.902344 L 26.613281 24.675781 L 3.386719 24.675781 Z M 3.386719 2.902344 " clip-rule="nonzero"/></clipPath></defs><g clip-path="url(#bf02532d67)"><path fill="#ffffff" d="M 0.484375 0 L 29.515625 0 L 29.515625 29.03125 L 0.484375 29.03125 Z M 0.484375 0 " fill-opacity="1" fill-rule="nonzero"/><path fill="#ffffff" d="M 0.484375 0 L 29.515625 0 L 29.515625 29.03125 L 0.484375 29.03125 Z M 0.484375 0 " fill-opacity="1" fill-rule="nonzero"/></g><g clip-path="url(#49cf84991d)"><path fill="#ffffff" d="M 18.378906 14.625 L 16.261719 13.53125 C 16.261719 13.453125 16.230469 13.378906 16.171875 13.320312 L 16.121094 13.269531 L 16.105469 13.070312 C 16.101562 13.023438 16.097656 12.976562 16.097656 12.929688 C 16.097656 12.632812 16.144531 12.425781 16.292969 12.164062 C 16.292969 12.164062 16.582031 12.121094 16.582031 11.5 C 16.582031 11.078125 16.515625 11.03125 16.472656 11.046875 C 16.589844 10.6875 16.863281 9.582031 16.019531 9.367188 C 16.011719 9.363281 16.003906 9.359375 16 9.351562 C 15.972656 9.300781 15.917969 9.164062 15.71875 9.023438 C 15.472656 8.851562 15.152344 8.8125 14.875 8.925781 C 14.796875 8.957031 14.757812 8.988281 14.757812 8.988281 C 14.757812 8.988281 14.351562 8.929688 14.132812 9.035156 C 14.109375 9.046875 14.109375 9.082031 14.136719 9.09375 C 14.167969 9.105469 14.164062 9.148438 14.132812 9.152344 C 14.097656 9.160156 14.054688 9.167969 14.003906 9.183594 C 13.601562 9.316406 13.339844 9.707031 13.351562 10.136719 C 13.355469 10.390625 13.398438 10.78125 13.503906 11.058594 C 13.464844 11.027344 13.375 11.011719 13.375 11.5 C 13.375 12.121094 13.667969 12.164062 13.667969 12.164062 C 13.816406 12.425781 13.890625 12.632812 13.890625 12.929688 C 13.890625 12.976562 13.890625 13.023438 13.886719 13.070312 L 13.871094 13.269531 L 13.816406 13.320312 C 13.761719 13.378906 13.730469 13.453125 13.730469 13.53125 L 11.613281 14.625 C 11.332031 14.769531 11.15625 15.058594 11.15625 15.375 L 11.15625 15.9375 L 18.835938 15.9375 L 18.835938 15.375 C 18.835938 15.058594 18.65625 14.769531 18.378906 14.625 Z M 18.378906 14.625 " fill-opacity="1" fill-rule="nonzero"/></g><g clip-path="url(#6db8700972)"><path fill="#940012" d="M 9.28125 7.90625 C 9.28125 6.433594 10.480469 5.234375 11.953125 5.234375 C 12.960938 5.234375 13.863281 5.792969 14.320312 6.664062 L 15.496094 5.628906 L 15.988281 4.867188 L 14.992188 3.871094 L 14.1875 4.390625 C 14.019531 4.5 13.808594 4.515625 13.628906 4.425781 C 13.5 4.363281 13.363281 4.308594 13.230469 4.261719 C 13.039062 4.195312 12.902344 4.035156 12.859375 3.839844 L 12.660156 2.90625 L 11.25 2.90625 L 11.050781 3.839844 C 11.007812 4.035156 10.867188 4.195312 10.675781 4.261719 C 10.542969 4.308594 10.410156 4.363281 10.28125 4.425781 C 10.097656 4.511719 9.886719 4.5 9.71875 4.390625 L 8.914062 3.871094 L 7.917969 4.867188 L 8.4375 5.671875 C 8.546875 5.839844 8.5625 6.050781 8.472656 6.234375 C 8.410156 6.363281 8.355469 6.496094 8.308594 6.628906 C 8.242188 6.820312 8.082031 6.960938 7.886719 7.003906 L 6.953125 7.203125 L 6.953125 8.613281 L 7.886719 8.8125 C 8.082031 8.855469 8.242188 8.992188 8.308594 9.183594 C 8.355469 9.320312 8.410156 9.453125 8.472656 9.582031 C 8.558594 9.761719 8.546875 9.972656 8.4375 10.144531 L 7.917969 10.945312 L 8.644531 11.671875 C 8.683594 11.613281 8.734375 11.5625 8.789062 11.511719 L 10.414062 10.089844 C 9.714844 9.59375 9.28125 8.777344 9.28125 7.90625 Z M 5.554688 24.847656 L 5.554688 14.203125 L 3.398438 14.203125 L 3.398438 24.847656 Z M 7.261719 23.644531 L 7.261719 15.410156 L 6.164062 15.410156 L 6.164062 23.644531 Z M 14.902344 17.992188 L 13.398438 16.835938 C 12.882812 16.441406 12.402344 16.269531 11.878906 16.296875 C 10.328125 16.378906 9.050781 16.761719 7.867188 17.5 L 7.867188 21.78125 L 15.398438 23.941406 C 15.589844 23.996094 15.757812 24.003906 15.953125 23.960938 L 20.757812 22.984375 L 23.152344 21.890625 L 26.0625 20.445312 C 26.28125 20.335938 26.441406 20.148438 26.523438 19.914062 C 26.601562 19.679688 26.582031 19.433594 26.476562 19.214844 C 26.257812 18.78125 25.722656 18.605469 25.222656 18.808594 L 23.4375 19.542969 C 23.433594 19.546875 23.429688 19.546875 23.425781 19.546875 L 20.804688 20.496094 C 20.773438 20.507812 20.742188 20.511719 20.707031 20.515625 L 18.953125 20.554688 C 18.839844 20.707031 18.699219 20.839844 18.527344 20.9375 C 18.308594 21.070312 18.066406 21.132812 17.816406 21.132812 C 17.699219 21.132812 17.582031 21.121094 17.46875 21.089844 L 13.082031 19.964844 C 12.921875 19.921875 12.824219 19.757812 12.863281 19.59375 C 12.90625 19.429688 13.070312 19.332031 13.234375 19.375 L 17.617188 20.503906 C 18.042969 20.609375 18.476562 20.355469 18.585938 19.929688 C 18.691406 19.519531 18.4375 19.089844 18 18.960938 L 15 18.042969 C 14.964844 18.03125 14.933594 18.015625 14.902344 17.992188 Z M 19.09375 13.699219 L 19.09375 19.171875 C 18.925781 18.804688 18.601562 18.507812 18.179688 18.378906 L 15.34375 17.511719 L 15.34375 13.699219 C 15.34375 12.796875 16.183594 12.058594 17.21875 12.058594 C 18.25 12.058594 19.09375 12.796875 19.09375 13.699219 Z M 23.460938 12.367188 L 23.460938 18.878906 L 23.214844 18.980469 L 20.644531 19.90625 L 19.699219 19.929688 L 19.699219 13.699219 C 19.699219 12.460938 18.585938 11.453125 17.21875 11.453125 C 15.851562 11.453125 14.738281 12.460938 14.738281 13.699219 L 14.738281 17.101562 L 13.765625 16.355469 C 13.132812 15.867188 12.523438 15.65625 11.847656 15.691406 C 11.546875 15.707031 11.261719 15.734375 10.976562 15.773438 L 10.976562 12.367188 L 17.21875 6.894531 Z M 20.722656 7.191406 L 22.496094 8.746094 L 22.496094 5.519531 L 20.722656 5.519531 Z M 17.417969 6.261719 C 17.363281 6.210938 17.289062 6.1875 17.21875 6.1875 C 17.148438 6.1875 17.074219 6.210938 17.019531 6.261719 L 9.765625 12.625 C 9.6875 12.691406 9.585938 12.726562 9.484375 12.71875 C 9.378906 12.710938 9.285156 12.667969 9.21875 12.589844 L 9.152344 12.515625 C 9.011719 12.355469 9.027344 12.109375 9.1875 11.96875 L 17.21875 4.925781 L 25.25 11.96875 C 25.324219 12.039062 25.371094 12.132812 25.378906 12.234375 C 25.386719 12.339844 25.351562 12.4375 25.285156 12.515625 L 25.21875 12.589844 C 25.078125 12.75 24.832031 12.765625 24.671875 12.625 Z M 17.417969 6.261719 " fill-opacity="1" fill-rule="evenodd"/></g></svg>