<svg xmlns="http://www.w3.org/2000/svg" xmlns:xlink="http://www.w3.org/1999/xlink" width="40" zoomAndPan="magnify" viewBox="0 0 30 30.000001" height="40" preserveAspectRatio="xMidYMid meet" version="1.0"><defs><clipPath id="ff413a7529"><path d="M 17 10 L 21.75 10 L 21.75 19 L 17 19 Z M 17 10 " clip-rule="nonzero"/></clipPath><clipPath id="234535a0ed"><path d="M 10 17 L 21.75 17 L 21.75 21 L 10 21 Z M 10 17 " clip-rule="nonzero"/></clipPath><clipPath id="a31aee7571"><path d="M 5.78125 3.902344 L 21.75 3.902344 L 21.75 24.949219 L 5.78125 24.949219 Z M 5.78125 3.902344 " clip-rule="nonzero"/></clipPath></defs><g clip-path="url(#ff413a7529)"><path fill="#940012" d="M 18.308594 17.960938 C 18.460938 17.90625 18.617188 17.839844 18.773438 17.769531 C 18.65625 17.605469 18.554688 17.425781 18.480469 17.238281 C 18.160156 16.464844 18.257812 15.503906 18.820312 14.886719 C 19.339844 14.3125 20.148438 14.101562 20.746094 13.605469 C 21.578125 12.910156 21.871094 11.640625 21.421875 10.652344 C 21.5625 11.457031 21.253906 12.328125 20.636719 12.863281 C 20.058594 13.367188 19.277344 13.5625 18.660156 14.011719 C 17.867188 14.589844 17.40625 15.566406 17.363281 16.546875 C 17.339844 17.085938 17.4375 17.625 17.625 18.132812 C 17.863281 18.09375 18.09375 18.035156 18.308594 17.960938 Z M 18.308594 17.960938 " fill-opacity="1" fill-rule="nonzero"/></g><g clip-path="url(#234535a0ed)"><path fill="#940012" d="M 21.625 18.394531 C 21.636719 18.597656 21.585938 18.800781 21.496094 18.984375 L 21.496094 18.988281 C 21.460938 19.054688 21.421875 19.121094 21.375 19.179688 C 21.363281 19.199219 21.351562 19.214844 21.335938 19.230469 C 21.136719 19.460938 20.882812 19.621094 20.605469 19.746094 C 20.542969 19.773438 20.476562 19.800781 20.410156 19.824219 C 20.265625 19.882812 20.117188 19.933594 19.96875 19.980469 C 19.824219 20.027344 19.675781 20.074219 19.53125 20.117188 C 19.464844 20.136719 19.394531 20.15625 19.324219 20.175781 C 18.945312 20.285156 18.558594 20.386719 18.171875 20.472656 C 18.101562 20.488281 18.03125 20.507812 17.960938 20.519531 C 17.597656 20.59375 17.234375 20.660156 16.863281 20.710938 L 16.65625 20.738281 C 16.347656 20.777344 16.042969 20.800781 15.738281 20.816406 C 15.664062 20.820312 15.589844 20.824219 15.519531 20.824219 C 15.445312 20.824219 15.378906 20.828125 15.308594 20.828125 L 15.308594 20.832031 C 15.273438 20.832031 15.242188 20.828125 15.210938 20.828125 C 15.027344 20.828125 14.847656 20.824219 14.664062 20.8125 C 14.621094 20.8125 14.578125 20.808594 14.535156 20.808594 C 14.507812 20.804688 14.480469 20.804688 14.453125 20.800781 C 14.09375 20.78125 13.769531 20.753906 13.476562 20.714844 C 13.398438 20.707031 13.324219 20.695312 13.25 20.6875 C 12.828125 20.625 12.472656 20.550781 12.179688 20.464844 C 12.097656 20.441406 12.027344 20.417969 11.953125 20.394531 C 11.636719 20.289062 11.394531 20.171875 11.207031 20.058594 C 11.1875 20.054688 11.167969 20.050781 11.148438 20.046875 C 11.132812 20.042969 11.113281 20.042969 11.097656 20.039062 L 11.160156 20.03125 L 11.171875 20.03125 C 11.171875 20.03125 11.167969 20.03125 11.167969 20.027344 C 11.101562 19.984375 11.042969 19.941406 10.992188 19.898438 C 10.652344 19.617188 10.636719 19.382812 10.636719 19.382812 C 10.597656 19.273438 10.574219 19.15625 10.574219 19.042969 C 10.570312 19.019531 10.574219 18.996094 10.574219 18.976562 C 10.601562 18.492188 10.949219 18.066406 11.386719 17.851562 C 11.824219 17.640625 12.332031 17.621094 12.808594 17.695312 C 13.289062 17.773438 13.746094 17.9375 14.207031 18.085938 C 15.589844 18.523438 17.101562 18.808594 18.46875 18.328125 C 19.121094 18.101562 19.714844 17.707031 20.394531 17.601562 C 20.730469 17.546875 21.109375 17.578125 21.363281 17.804688 C 21.53125 17.960938 21.617188 18.171875 21.625 18.394531 Z M 21.625 18.394531 " fill-opacity="1" fill-rule="nonzero"/></g><path fill="#940012" d="M 10.890625 8.550781 C 10.648438 8.785156 10.410156 9.015625 10.167969 9.25 C 9.941406 9.46875 9.710938 9.6875 9.433594 9.839844 C 9.113281 10.011719 8.734375 10.082031 8.375 10.035156 C 8.71875 10.320312 9.191406 10.441406 9.632812 10.355469 C 9.632812 10.683594 9.507812 11.015625 9.285156 11.257812 C 9.824219 11.203125 10.175781 10.683594 10.414062 10.203125 C 10.65625 9.71875 10.902344 9.175781 11.398438 8.964844 C 11.28125 8.832031 11.050781 8.628906 10.890625 8.550781 Z M 10.890625 8.550781 " fill-opacity="1" fill-rule="nonzero"/><g clip-path="url(#a31aee7571)"><path fill="#940012" d="M 21.875 20.613281 C 21.875 20.609375 21.875 20.605469 21.871094 20.605469 C 21.605469 20.292969 21.1875 20.269531 20.796875 20.324219 C 20.65625 20.34375 20.515625 20.375 20.390625 20.402344 C 19.589844 20.597656 18.792969 20.800781 17.984375 20.949219 C 16.398438 21.234375 14.773438 21.363281 13.167969 21.191406 C 12.539062 21.121094 11.792969 21.003906 11.171875 20.707031 C 11.171875 20.707031 11.171875 20.703125 11.167969 20.703125 C 10.695312 20.476562 10.296875 20.144531 10.085938 19.648438 C 9.46875 18.199219 10.867188 16.960938 11.816406 16.101562 C 11.917969 16.007812 12.019531 15.917969 12.121094 15.824219 C 12.625 15.367188 13.136719 14.902344 13.632812 14.421875 C 15.128906 12.957031 16.4375 11.316406 16.664062 9.164062 C 16.808594 7.824219 16.558594 6.445312 15.917969 5.257812 C 15.890625 5.210938 15.867188 5.175781 15.84375 5.140625 C 15.835938 5.121094 15.828125 5.101562 15.820312 5.085938 C 15.183594 3.847656 13.328125 3.53125 11.675781 4.378906 C 11.578125 4.429688 11.484375 4.484375 11.390625 4.539062 C 11.390625 4.542969 11.390625 4.542969 11.386719 4.542969 C 11.382812 4.546875 11.378906 4.546875 11.375 4.550781 C 10.265625 5.1875 9.4375 5.941406 9.175781 6.191406 L 9.164062 6.199219 L 9.167969 6.199219 C 9.164062 6.203125 9.164062 6.207031 9.160156 6.207031 C 9.144531 6.226562 9.125 6.242188 9.105469 6.261719 C 9.097656 6.269531 9.089844 6.277344 9.089844 6.277344 L 9.09375 6.277344 C 8.769531 6.644531 8.691406 7.179688 8.929688 7.625 C 9.386719 8.484375 10.359375 9.550781 12.3125 9.335938 C 12.691406 9.316406 13.089844 9.234375 13.480469 9.089844 C 13.523438 9.421875 13.527344 9.761719 13.492188 10.09375 C 13.488281 10.128906 13.484375 10.164062 13.480469 10.203125 C 13.351562 11.167969 12.867188 11.894531 12.191406 12.59375 C 11.246094 13.578125 9.902344 14.078125 8.8125 14.882812 C 7.738281 15.675781 6.425781 16.683594 5.984375 17.996094 C 5.105469 20.628906 7.238281 23.171875 9.46875 24.246094 C 12.171875 25.546875 15.269531 25.230469 18.070312 24.449219 C 19.117188 24.152344 20.230469 23.835938 21.066406 23.109375 C 21.445312 22.78125 21.9375 22.160156 22.066406 21.550781 C 22.140625 21.21875 22.101562 20.882812 21.875 20.613281 Z M 11.914062 7.484375 C 11.730469 7.484375 11.582031 7.335938 11.582031 7.15625 C 11.582031 6.972656 11.730469 6.824219 11.914062 6.824219 C 12.09375 6.824219 12.242188 6.972656 12.242188 7.15625 C 12.242188 7.335938 12.09375 7.484375 11.914062 7.484375 Z M 11.914062 7.484375 " fill-opacity="1" fill-rule="nonzero"/></g></svg>