<svg xmlns="http://www.w3.org/2000/svg" xmlns:xlink="http://www.w3.org/1999/xlink" width="40" zoomAndPan="magnify" viewBox="0 0 30 30.000001" height="40" preserveAspectRatio="xMidYMid meet" version="1.0"><defs><clipPath id="02ed9436c0"><path d="M 4.621094 3 L 24.945312 3 L 24.945312 26.128906 L 4.621094 26.128906 Z M 4.621094 3 " clip-rule="nonzero"/></clipPath><clipPath id="c208f269bf"><path d="M 8 2.902344 L 13 2.902344 L 13 10 L 8 10 Z M 8 2.902344 " clip-rule="nonzero"/></clipPath></defs><g clip-path="url(#02ed9436c0)"><path fill="#940012" d="M 9.792969 26.121094 C 9.597656 26.058594 9.851562 25.488281 9.9375 25.371094 C 10.148438 25.074219 10.503906 25.027344 10.734375 24.808594 C 11.234375 24.332031 11.691406 22.261719 10.847656 21.847656 C 11.0625 22.59375 11.035156 23.351562 10.753906 24.078125 C 10.453125 24.859375 9.746094 24.792969 9.472656 25.519531 C 9.417969 25.671875 9.394531 26.042969 9.371094 26.074219 C 9.300781 26.183594 9.097656 26.074219 8.992188 26.074219 C 8.597656 26.058594 8.113281 26.214844 8.230469 25.636719 C 8.355469 25.011719 8.992188 24.964844 9.347656 24.640625 C 9.804688 24.222656 10.054688 22.9375 10.003906 22.34375 C 9.933594 21.585938 9.386719 21.398438 8.929688 20.929688 C 8.179688 20.160156 7.730469 19.132812 7.617188 18.0625 C 7.558594 17.535156 7.667969 16.914062 7.609375 16.425781 C 7.539062 15.84375 6.882812 15.921875 6.445312 15.808594 C 5.65625 15.605469 5.136719 15.277344 4.769531 14.527344 C 4.410156 13.789062 4.777344 13.519531 5.167969 12.90625 C 6.152344 11.367188 7.085938 10.3125 9.042969 10.164062 C 9.253906 10.148438 9.921875 10.214844 10.039062 10.101562 C 10.621094 8.617188 11.148438 7.082031 12.164062 5.820312 C 12.84375 4.980469 13.910156 4.089844 14.882812 3.613281 C 15.273438 3.425781 15.730469 3.101562 15.777344 3.753906 C 15.828125 4.453125 15.550781 5.8125 15.320312 6.492188 C 14.648438 8.46875 13.089844 9.613281 11.605469 10.945312 C 11.566406 11.097656 11.820312 11.464844 11.886719 11.632812 C 12.019531 11.949219 12.101562 12.296875 12.234375 12.601562 C 13.039062 14.492188 15.417969 14.164062 17.097656 14.542969 C 20.960938 15.410156 23.652344 18.636719 23.144531 22.691406 C 23.476562 22.582031 24.199219 22.367188 24.503906 22.578125 C 24.6875 22.703125 24.710938 23.519531 24.6875 23.742188 C 24.59375 24.695312 23.890625 25.515625 22.921875 25.636719 C 22.605469 25.675781 22.1875 25.597656 21.910156 25.660156 C 21.6875 25.710938 21.5 26.117188 21.101562 26.117188 L 14.414062 26.117188 C 14.484375 25.347656 14.957031 24.570312 15.800781 24.523438 C 16.046875 24.511719 16.277344 24.601562 16.527344 24.570312 C 15.09375 23.023438 15.277344 20.5 17.140625 19.386719 C 17.796875 18.996094 18.53125 18.863281 19.296875 18.84375 L 18.425781 18.703125 C 16.183594 18.808594 14.71875 20.964844 15.28125 23.113281 C 15.371094 23.457031 15.550781 23.761719 15.632812 24.101562 C 15.355469 24.046875 14.0625 22.957031 13.898438 23.042969 C 13.8125 23.085938 13.03125 24.480469 12.886719 24.707031 C 12.65625 25.058594 12.054688 26.117188 11.621094 26.117188 L 9.792969 26.117188 Z M 7.8125 12.148438 C 7.40625 12.585938 8.058594 13.253906 8.519531 12.785156 C 8.976562 12.324219 8.234375 11.691406 7.8125 12.148438 Z M 7.8125 12.148438 " fill-opacity="1" fill-rule="nonzero"/></g><g clip-path="url(#c208f269bf)"><path fill="#940012" d="M 8.878906 9.832031 C 9.136719 8.371094 9.203125 6.8125 9.808594 5.4375 C 10.152344 4.65625 10.933594 3.574219 11.628906 3.082031 C 12.226562 2.664062 12.292969 3.066406 12.382812 3.628906 C 12.417969 3.839844 12.527344 4.816406 12.464844 4.953125 C 11.164062 6.273438 10.449219 8.003906 9.820312 9.71875 C 9.710938 9.832031 9.070312 9.816406 8.878906 9.832031 Z M 8.878906 9.832031 " fill-opacity="1" fill-rule="nonzero"/></g></svg>