<svg xmlns="http://www.w3.org/2000/svg" xmlns:xlink="http://www.w3.org/1999/xlink" width="40" zoomAndPan="magnify" viewBox="0 0 30 30.000001" height="40" preserveAspectRatio="xMidYMid meet" version="1.0"><defs><clipPath id="ebcdef3e00"><path d="M 11.15625 8.855469 L 19 8.855469 L 19 16 L 11.15625 16 Z M 11.15625 8.855469 " clip-rule="nonzero"/></clipPath><clipPath id="e909e2ba71"><path d="M 7.203125 2.902344 L 22.445312 2.902344 L 22.445312 26.128906 L 7.203125 26.128906 Z M 7.203125 2.902344 " clip-rule="nonzero"/></clipPath></defs><g clip-path="url(#ebcdef3e00)"><path fill="#ffffff" d="M 18.378906 14.625 L 16.261719 13.53125 C 16.261719 13.453125 16.230469 13.378906 16.171875 13.320312 L 16.121094 13.269531 L 16.105469 13.070312 C 16.101562 13.023438 16.097656 12.976562 16.097656 12.929688 C 16.097656 12.632812 16.144531 12.425781 16.292969 12.164062 C 16.292969 12.164062 16.582031 12.121094 16.582031 11.5 C 16.582031 11.078125 16.515625 11.03125 16.472656 11.046875 C 16.589844 10.6875 16.863281 9.582031 16.019531 9.367188 C 16.011719 9.363281 16.003906 9.359375 16 9.351562 C 15.972656 9.300781 15.917969 9.164062 15.71875 9.023438 C 15.472656 8.851562 15.152344 8.8125 14.875 8.925781 C 14.796875 8.957031 14.757812 8.988281 14.757812 8.988281 C 14.757812 8.988281 14.351562 8.929688 14.132812 9.035156 C 14.109375 9.046875 14.109375 9.082031 14.136719 9.09375 C 14.167969 9.105469 14.164062 9.148438 14.132812 9.152344 C 14.097656 9.160156 14.054688 9.167969 14.003906 9.183594 C 13.601562 9.316406 13.339844 9.707031 13.351562 10.136719 C 13.355469 10.390625 13.398438 10.78125 13.503906 11.058594 C 13.464844 11.027344 13.375 11.011719 13.375 11.5 C 13.375 12.121094 13.667969 12.164062 13.667969 12.164062 C 13.816406 12.425781 13.890625 12.632812 13.890625 12.929688 C 13.890625 12.976562 13.890625 13.023438 13.886719 13.070312 L 13.871094 13.269531 L 13.816406 13.320312 C 13.761719 13.378906 13.730469 13.453125 13.730469 13.53125 L 11.613281 14.625 C 11.332031 14.769531 11.15625 15.058594 11.15625 15.375 L 11.15625 15.9375 L 18.835938 15.9375 L 18.835938 15.375 C 18.835938 15.058594 18.65625 14.769531 18.378906 14.625 Z M 18.378906 14.625 " fill-opacity="1" fill-rule="nonzero"/></g><g clip-path="url(#e909e2ba71)"><path fill="#940012" d="M 7.199219 10.746094 C 7.199219 6.4375 10.691406 2.949219 14.996094 2.949219 C 19.300781 2.949219 22.792969 6.4375 22.792969 10.746094 C 22.792969 14.886719 18.484375 19.957031 15.480469 22.800781 C 15.207031 23.058594 14.785156 23.058594 14.511719 22.800781 C 11.507812 19.957031 7.199219 14.886719 7.199219 10.746094 Z M 12.039062 21 C 9.289062 21.402344 7.363281 22.34375 7.363281 23.4375 C 7.363281 24.898438 10.78125 26.082031 14.996094 26.082031 C 19.210938 26.082031 22.628906 24.898438 22.628906 23.4375 C 22.628906 22.34375 20.699219 21.402344 17.953125 21 L 17.898438 21.0625 C 19.640625 21.410156 20.8125 22.0625 20.8125 22.808594 C 20.8125 23.921875 18.207031 24.824219 14.996094 24.824219 C 11.785156 24.824219 9.179688 23.921875 9.179688 22.808594 C 9.179688 22.0625 10.351562 21.410156 12.09375 21.0625 Z M 14.996094 7.171875 C 13.023438 7.171875 11.421875 8.773438 11.421875 10.746094 C 11.421875 12.71875 13.023438 14.316406 14.996094 14.316406 C 16.96875 14.316406 18.566406 12.71875 18.566406 10.746094 C 18.566406 8.773438 16.96875 7.171875 14.996094 7.171875 Z M 14.996094 7.171875 " fill-opacity="1" fill-rule="evenodd"/></g></svg>