<svg xmlns="http://www.w3.org/2000/svg" xmlns:xlink="http://www.w3.org/1999/xlink" width="40" zoomAndPan="magnify" viewBox="0 0 30 30.000001" height="40" preserveAspectRatio="xMidYMid meet" version="1.0"><defs><clipPath id="93ca71d8c9"><path d="M 11.15625 8.855469 L 19 8.855469 L 19 16 L 11.15625 16 Z M 11.15625 8.855469 " clip-rule="nonzero"/></clipPath><clipPath id="4ac20b74b4"><path d="M 3.386719 6.835938 L 26.613281 6.835938 L 26.613281 22.078125 L 3.386719 22.078125 Z M 3.386719 6.835938 " clip-rule="nonzero"/></clipPath><clipPath id="963734e516"><path d="M 0.386719 2 L 6 2 L 6 13 L 0.386719 13 Z M 0.386719 2 " clip-rule="nonzero"/></clipPath><clipPath id="51a5f73815"><path d="M 2 3 L 16 3 L 16 16.078125 L 2 16.078125 Z M 2 3 " clip-rule="nonzero"/></clipPath><clipPath id="445e227e27"><path d="M 19 0.835938 L 23.613281 0.835938 L 23.613281 5 L 19 5 Z M 19 0.835938 " clip-rule="nonzero"/></clipPath><clipPath id="eef4d2cf77"><rect x="0" width="24" y="0" height="17"/></clipPath></defs><g clip-path="url(#93ca71d8c9)"><path fill="#ffffff" d="M 18.378906 14.625 L 16.261719 13.53125 C 16.261719 13.453125 16.230469 13.378906 16.171875 13.320312 L 16.121094 13.269531 L 16.105469 13.070312 C 16.101562 13.023438 16.097656 12.976562 16.097656 12.929688 C 16.097656 12.632812 16.144531 12.425781 16.292969 12.164062 C 16.292969 12.164062 16.582031 12.121094 16.582031 11.5 C 16.582031 11.078125 16.515625 11.03125 16.472656 11.046875 C 16.589844 10.6875 16.863281 9.582031 16.019531 9.367188 C 16.011719 9.363281 16.003906 9.359375 16 9.351562 C 15.972656 9.300781 15.917969 9.164062 15.71875 9.023438 C 15.472656 8.851562 15.152344 8.8125 14.875 8.925781 C 14.796875 8.957031 14.757812 8.988281 14.757812 8.988281 C 14.757812 8.988281 14.351562 8.929688 14.132812 9.035156 C 14.109375 9.046875 14.109375 9.082031 14.136719 9.09375 C 14.167969 9.105469 14.164062 9.148438 14.132812 9.152344 C 14.097656 9.160156 14.054688 9.167969 14.003906 9.183594 C 13.601562 9.316406 13.339844 9.707031 13.351562 10.136719 C 13.355469 10.390625 13.398438 10.78125 13.503906 11.058594 C 13.464844 11.027344 13.375 11.011719 13.375 11.5 C 13.375 12.121094 13.667969 12.164062 13.667969 12.164062 C 13.816406 12.425781 13.890625 12.632812 13.890625 12.929688 C 13.890625 12.976562 13.890625 13.023438 13.886719 13.070312 L 13.871094 13.269531 L 13.816406 13.320312 C 13.761719 13.378906 13.730469 13.453125 13.730469 13.53125 L 11.613281 14.625 C 11.332031 14.769531 11.15625 15.058594 11.15625 15.375 L 11.15625 15.9375 L 18.835938 15.9375 L 18.835938 15.375 C 18.835938 15.058594 18.65625 14.769531 18.378906 14.625 Z M 18.378906 14.625 " fill-opacity="1" fill-rule="nonzero"/></g><g clip-path="url(#4ac20b74b4)"><g transform="matrix(1, 0, 0, 1, 3, 6)"><g clip-path="url(#eef4d2cf77)"><g clip-path="url(#963734e516)"><path fill="#940012" d="M 0.480469 5.023438 C 0.386719 6.589844 1.003906 7.949219 1.828125 9.234375 C 2.429688 10.175781 3.238281 11.222656 3.429688 12.375 C 3.464844 12.25 3.5 12.125 3.527344 12 C 3.558594 11.863281 3.589844 11.722656 3.617188 11.585938 C 3.617188 11.582031 3.613281 11.578125 3.613281 11.574219 C 3.203125 10.242188 2.253906 9.203125 1.589844 8.003906 C 1.035156 6.996094 0.816406 5.820312 1.066406 4.695312 C 1.25 3.847656 1.820312 3.117188 2.648438 2.839844 C 3.625 2.511719 4.683594 3.160156 5.316406 3.855469 C 5.328125 3.867188 5.332031 3.878906 5.339844 3.890625 C 5.398438 3.722656 5.464844 3.554688 5.535156 3.390625 C 4.597656 2.601562 3.488281 1.785156 2.199219 2.152344 C 0.976562 2.492188 0.546875 3.90625 0.480469 5.023438 " fill-opacity="1" fill-rule="nonzero"/></g><g clip-path="url(#51a5f73815)"><path fill="#940012" d="M 4.480469 8.988281 C 4.285156 10.027344 3.269531 13.582031 2.957031 14.421875 C 4.773438 15.683594 7.386719 16.011719 9.535156 16.101562 C 11.707031 16.191406 13.796875 15.882812 15.859375 15.234375 C 15.570312 13.265625 15.230469 11.304688 14.929688 9.335938 C 14.769531 8.28125 14.621094 7.226562 14.476562 6.167969 C 14.359375 5.265625 14.074219 3.355469 14.070312 3.285156 C 14.074219 3.335938 12.292969 3.203125 12.09375 3.195312 C 11.324219 3.164062 10.554688 3.171875 9.785156 3.191406 C 9.089844 3.210938 8.398438 3.238281 7.703125 3.265625 C 7.0625 3.292969 6.382812 3.394531 5.75 3.285156 C 5.742188 3.328125 5.730469 3.375 5.722656 3.414062 C 5.722656 3.464844 5.265625 5.113281 5.089844 5.898438 C 4.855469 6.921875 4.675781 7.960938 4.480469 8.988281 " fill-opacity="1" fill-rule="nonzero"/></g><path fill="#940012" d="M 14.863281 7.023438 C 14.972656 7.769531 15.089844 8.515625 15.203125 9.261719 C 15.328125 10.039062 15.464844 10.820312 15.605469 11.601562 C 16.40625 10.28125 17.269531 9.003906 18.183594 7.761719 C 19.03125 6.601562 21.003906 4.394531 21.011719 4.371094 C 20.921875 4.292969 20.835938 4.203125 20.761719 4.132812 C 20.609375 3.988281 20.46875 3.832031 20.335938 3.671875 C 20.324219 3.667969 20.273438 3.601562 20.253906 3.578125 C 20.246094 3.566406 20.238281 3.550781 20.226562 3.542969 C 20.222656 3.542969 20.222656 3.546875 20.226562 3.550781 C 20.226562 3.554688 20.199219 3.558594 20.183594 3.570312 C 20.171875 3.574219 20.160156 3.578125 20.148438 3.585938 C 19.964844 3.679688 19.5 4.03125 19.4375 4.070312 C 18.90625 4.429688 18.382812 4.808594 17.855469 5.175781 C 17.28125 5.585938 16.703125 5.988281 16.105469 6.367188 C 15.738281 6.601562 15.300781 6.925781 14.863281 7.023438 " fill-opacity="1" fill-rule="nonzero"/><g clip-path="url(#445e227e27)"><path fill="#940012" d="M 19.921875 0.835938 C 19.886719 1.730469 20.054688 2.515625 20.332031 3.359375 C 20.335938 3.363281 20.335938 3.363281 20.34375 3.367188 C 20.511719 3.59375 20.695312 3.800781 20.894531 4 C 21.007812 4.113281 21.164062 4.222656 21.277344 4.351562 C 21.671875 4.683594 22.128906 4.871094 22.640625 4.933594 C 22.988281 4.980469 23.277344 4.84375 23.613281 4.890625 C 23.558594 4.824219 23.164062 4.292969 22.917969 3.992188 C 22.609375 3.621094 22.285156 3.261719 21.957031 2.902344 C 21.300781 2.191406 20.613281 1.511719 19.921875 0.835938 " fill-opacity="1" fill-rule="nonzero"/></g><path fill="#940012" d="M 5.851562 9.34375 C 5.394531 9.636719 5.394531 10.371094 5.484375 10.820312 C 5.585938 11.375 5.878906 11.992188 6.429688 12.273438 C 6.695312 12.402344 6.996094 12.390625 7.265625 12.304688 C 7.449219 12.25 8.042969 11.707031 8.132812 11.589844 C 7.859375 11.316406 7.667969 10.953125 7.601562 10.511719 C 7.558594 10.238281 7.582031 9.96875 7.640625 9.707031 C 7.3125 9.582031 7 9.335938 6.660156 9.253906 C 6.382812 9.179688 6.089844 9.183594 5.851562 9.34375 " fill-opacity="1" fill-rule="nonzero"/><path fill="#940012" d="M 6.019531 7.28125 C 5.773438 7.511719 5.714844 7.855469 5.761719 8.164062 C 5.796875 8.394531 6.414062 8.746094 6.632812 8.777344 C 6.960938 8.820312 7.464844 8.988281 7.804688 9.222656 C 7.996094 8.820312 8.289062 8.46875 8.65625 8.207031 C 8.226562 7.871094 7.15625 6.917969 6.972656 6.914062 C 6.605469 6.898438 6.265625 7.046875 6.019531 7.28125 " fill-opacity="1" fill-rule="nonzero"/><path fill="#940012" d="M 7.804688 5.726562 C 7.429688 6.292969 7.90625 6.949219 8.320312 7.367188 C 8.535156 7.582031 8.773438 7.765625 9.015625 7.945312 C 9.03125 7.953125 9.039062 7.964844 9.050781 7.976562 C 9.269531 7.875 10.261719 7.804688 10.277344 7.78125 C 10.472656 7.085938 11.058594 6.34375 10.617188 5.609375 C 10.339844 5.15625 9.71875 5.03125 9.199219 5.054688 C 8.675781 5.082031 8.089844 5.289062 7.804688 5.726562 " fill-opacity="1" fill-rule="nonzero"/><path fill="#940012" d="M 9.390625 8.328125 C 7.785156 8.710938 7.976562 10.054688 7.96875 10.210938 C 7.933594 11.324219 8.902344 11.980469 10.023438 11.800781 C 12.648438 11.367188 11.796875 7.804688 9.390625 8.328125 " fill-opacity="1" fill-rule="nonzero"/><path fill="#940012" d="M 8.472656 11.871094 C 8.109375 12.34375 7.824219 12.925781 8.191406 13.46875 C 8.480469 13.886719 9.09375 14.085938 9.597656 14.136719 C 10.078125 14.183594 10.691406 14.136719 10.992188 13.734375 C 11.375 13.21875 10.957031 12.632812 10.761719 12.113281 C 10.738281 12.089844 10.710938 12.0625 10.699219 12.039062 C 10.582031 12.082031 10.460938 12.121094 10.324219 12.152344 C 9.636719 12.300781 8.976562 12.191406 8.472656 11.871094 " fill-opacity="1" fill-rule="nonzero"/><path fill="#940012" d="M 11.332031 7.230469 C 11.082031 7.417969 10.542969 7.933594 10.523438 7.953125 C 11.292969 8.152344 11.835938 8.828125 12.011719 9.59375 C 12.621094 9.554688 13.273438 9.546875 13.59375 8.960938 C 13.820312 8.539062 13.648438 7.996094 13.402344 7.621094 C 13.136719 7.210938 12.675781 6.898438 12.148438 6.90625 C 11.851562 6.914062 11.5625 7.058594 11.332031 7.230469 " fill-opacity="1" fill-rule="nonzero"/><path fill="#940012" d="M 11.039062 11.886719 C 11.238281 12.007812 11.414062 12.164062 11.613281 12.28125 C 11.863281 12.414062 12.136719 12.503906 12.429688 12.523438 C 12.878906 12.542969 13.265625 12.3125 13.484375 11.949219 C 13.710938 11.570312 13.65625 11.105469 13.445312 10.734375 C 13.308594 10.5 13.082031 10.316406 12.851562 10.167969 C 12.722656 10.089844 12.175781 9.976562 12.066406 9.96875 C 12.117188 10.710938 11.808594 11.457031 11.039062 11.886719 " fill-opacity="1" fill-rule="nonzero"/></g></g></g></svg>